<?xml version="1.0" encoding="utf-8"?>
<!-- Generator: Adobe Illustrator 24.0.0, SVG Export Plug-In . SVG Version: 6.00 Build 0)  -->
<svg version="1.1" id="Layer_1" xmlns="http://www.w3.org/2000/svg" xmlns:xlink="http://www.w3.org/1999/xlink" x="0px" y="0px"
	 viewBox="0 0 1406.7 148" style="enable-background:new 0 0 1406.7 148;" xml:space="preserve">
<style type="text/css">
	.st0{enable-background:new    ;}
	.st1{fill:#413e66;}
</style>
<g class="st0">
	<path class="st1" d="M127.1,23.4l-23.6,23.8H32.2v58.7h91.1l-23.8,23.8H24.3L0.2,105.8V47.6l24.1-24.2H127.1z"/>
	<path class="st1" d="M270.9,105.4l-24.1,24.2h-88.4l-24.1-24.2V47.5l24.1-24.2h88.4l24.1,24.2V105.4z M238.9,105.8V47.1h-72.5v58.7
		H238.9z"/>
	<path class="st1" d="M424.8,129.6h-24.3l-75.2-61.9v61.9l-32-0.2v-106h22.4l77.1,63.5V23.6l32-18.6V129.6z"/>
	<path class="st1" d="M585,23.4l-23.6,23.8h-31.5v100.8l-32-18.4V47.1h-31.5l-23.6-23.8H585z"/>
	<path class="st1" d="M710.8,147.9l-32-18.2V99.2h-64.6v30.4l-32-0.2V47.1l24.1-23.8h80.5l24.1,23.8V147.9z M678.8,75.8V47.1h-64.6
		v28.6H678.8z"/>
	<path class="st1" d="M856.3,23.4l-23.6,23.8h-71.3v58.7h91.1l-23.8,23.8h-75.2l-24.1-23.8V47.6l24.1-24.2H856.3z"/>
	<path class="st1" d="M1005.7,23.4l-23.6,23.8h-31.5v100.8l-32-18.4V47.1H887l-23.6-23.8H1005.7z"/>
	<path class="st1" d="M1237.7,105.5l-24.1,24.1h-80.5l-24.1-24.1V23.4l32,0.2v82.3h64.6V23.5l32-18.5V105.5z"/>
	<path class="st1" d="M1402.6,97l-24.1,32.6h-123.1l23.6-23.8h80.8l7.6-8.8l-7.7-9.6h-80.9l-23.4-31.4l24.1-32.7h123.1l-23.8,23.8
		h-80.6l-7.7,9.1l7.7,9.6h81L1402.6,97z"/>
</g>
</svg>
