<svg id="Layer_1" data-name="Layer 1" xmlns="http://www.w3.org/2000/svg" viewBox="0 0 1016.76 145.3">
  <title>events</title>
  <path d="M.53,148.56V101.1" transform="translate(-0.53 -12.22)"/>
  <path d="M7.53,13.16a13.55,13.55,0,0,1,2.54-.49q71.19,0,142.37,0c.59,0,1.18.05,2.22.11-.86,1-1.41,1.6-2,2.19-7.76,7.83-15.56,15.61-23.25,23.5a6.51,6.51,0,0,1-5.12,2.15q-37.59-.09-75.18,0h-3.6V61.71h91.33c-.87,1-1.34,1.55-1.87,2.09-7.22,7.23-14.4,14.5-21.73,21.63a6.5,6.5,0,0,1-4.12,1.69C89,87.23,69,87.2,48.87,87.2H45.52v20.55H150.23c-.77,1-1.13,1.49-1.58,1.94-8.1,8.11-16.23,16.19-24.29,24.35a5.63,5.63,0,0,1-4.43,1.77q-54.66-.08-109.31-.06a20.56,20.56,0,0,1-3.09-.45Z" transform="translate(-0.53 -12.22)" fill="#413e66" stroke="#413e66" stroke-miterlimit="10" stroke-width="0.75"/>
  <path d="M846,134.88c6.53-6.39,13.53-12.38,19.46-19.29,5.27-6.14,11-8.17,19.08-8,26.38.54,52.78.17,79.18.25a5.55,5.55,0,0,0,4.94-2.34c1.95-2.53,4.12-4.89,6.39-7.55-2.67-3.36-5.27-6.81-8.11-10-.58-.66-2.11-.67-3.19-.67q-43.72,0-87.45,0a5.48,5.48,0,0,1-5.05-2.5C863,73.36,854.5,62.08,846,50.65c3.09-4.2,6.13-8.34,9.18-12.47q8.7-11.79,17.37-23.59a4.11,4.11,0,0,1,3.7-2q68.79.08,137.57,0h2.63c-1,1.06-1.49,1.7-2.08,2.29-7.72,7.74-15.5,15.42-23.13,23.24a7.38,7.38,0,0,1-5.8,2.44c-28.88-.07-57.77,0-86.65-.09a5.53,5.53,0,0,0-5,2.25c-2.1,2.75-4.46,5.3-6.8,8,2.66,3.33,5.23,6.72,8,9.91a4.47,4.47,0,0,0,3,.92q44,.08,88,0a5.49,5.49,0,0,1,5.05,2.5q11.77,16,23.82,31.73c1.09,1.44,1.24,2.38.11,3.89-8.52,11.36-16.91,22.82-25.45,34.16a4.94,4.94,0,0,1-3.42,1.77q-68.92.13-137.84.07c-.59,0-1.19-.06-1.79-.09Z" transform="translate(-0.53 -12.22)" fill="#413e66" stroke="#413e66" stroke-miterlimit="10" stroke-width="0.75"/>
  <path d="M633.5,85.32V12.87h37.31v122.9h-4.76c-6.84,0-13.69-.07-20.53,0a7.13,7.13,0,0,1-5-1.89q-41.19-34-82.46-67.95c-.41-.33-.86-.62-1.83-1.31V68q0,32.4,0,64.8c0,1.57-.06,2.83-1.73,3.77-11.5,6.49-22.94,13.1-34.41,19.66-.3.17-.63.27-1.23.52V12.66c8.63,0,17.06,0,25.49.05a4.13,4.13,0,0,1,2.28,1.12Q580.35,41.63,614,69.48q8.82,7.29,17.68,14.57C632.16,84.43,632.66,84.74,633.5,85.32Z" transform="translate(-0.53 -12.22)" fill="#413e66" stroke="#413e66" stroke-miterlimit="10" stroke-width="0.75"/>
  <path d="M357.57,12.79H504.24c-.73.85-1.19,1.45-1.72,2-7.95,8-15.93,16-23.82,24.05a5.58,5.58,0,0,1-4.44,1.78q-37.86-.06-75.72,0H395V61.65h91.51c-.7.85-1,1.25-1.34,1.6-7.54,7.55-15,15.13-22.67,22.57a5.78,5.78,0,0,1-3.74,1.32c-20.17.08-40.35.06-60.52.06h-3.4c0,6.61,0,12.9.07,19.18,0,.47.87,1.14,1.46,1.33a7.84,7.84,0,0,0,2.38.07H500c-.77.92-1.15,1.45-1.6,1.9-8.1,8.11-16.16,16.26-24.36,24.27a6.53,6.53,0,0,1-4.11,1.75q-54.79.13-109.58.07c-.86,0-1.73-.08-2.75-.13Z" transform="translate(-0.53 -12.22)" fill="#413e66" stroke="#413e66" stroke-miterlimit="10" stroke-width="0.75"/>
  <path d="M250.08,96.4c5-9.07,9.72-17.68,14.44-26.29q15.06-27.51,30.09-55a4,4,0,0,1,4.11-2.46c11.64.11,23.28.05,35.34.05-.41.92-.66,1.61-1,2.25q-32.1,59.25-64.2,118.52a3.83,3.83,0,0,1-3.89,2.41q-14.79-.18-29.59,0a3.64,3.64,0,0,1-3.73-2.22Q199.57,74.32,167.45,15.08c-.36-.67-.66-1.37-1.11-2.3,1.06,0,1.83-.12,2.59-.12,10.93,0,21.86,0,32.79-.05a3.59,3.59,0,0,1,3.68,2.23q21,38.4,42,76.72Z" transform="translate(-0.53 -12.22)" fill="#413e66" stroke="#413e66" stroke-miterlimit="10" stroke-width="0.75"/>
  <path d="M754.74,156.91V40.57H751.5c-10,0-19.91,0-29.86,0a6.62,6.62,0,0,1-5.12-2.18c-8.39-8.3-16.89-16.5-25.36-24.73l.57-.82H855.62c-.56.68-.94,1.22-1.4,1.69-8,8.07-16.07,16.1-24,24.23a5.59,5.59,0,0,1-4.43,1.8q-14.4-.11-28.8,0c-5.51,0-4.71-.75-4.72,4.85q0,43.46,0,86.91a4.9,4.9,0,0,1-2.9,5c-10.68,6-21.26,12.11-31.88,18.18C756.77,155.93,756,156.28,754.74,156.91Z" transform="translate(-0.53 -12.22)" fill="#413e66" stroke="#413e66" stroke-miterlimit="10" stroke-width="0.75"/>
</svg>
