<?xml version="1.0" standalone="no"?>
<!DOCTYPE svg PUBLIC "-//W3C//DTD SVG 20010904//EN"
 "http://www.w3.org/TR/2001/REC-SVG-20010904/DTD/svg10.dtd">
<svg version="1.0" xmlns="http://www.w3.org/2000/svg"
 width="2021.000000pt" height="2057.000000pt" viewBox="0 0 2021.000000 2057.000000"
 preserveAspectRatio="xMidYMid meet">

<g transform="translate(0.000000,2057.000000) scale(0.100000,-0.100000)"
fill="#fff" stroke="none">
<path d="M10171 17869 c-26 -25 -31 -39 -31 -76 0 -44 3 -49 93 -140 50 -52
104 -101 119 -109 44 -23 83 -18 117 17 26 25 31 38 31 77 0 45 -2 48 -108
154 -102 102 -110 108 -149 108 -33 0 -48 -6 -72 -31z m168 -137 c71 -65 93
-92 88 -105 -3 -9 -12 -17 -19 -17 -20 0 -201 186 -194 199 14 21 32 10 125
-77z"/>
<path d="M10625 17553 c-149 -153 -398 -408 -555 -568 -419 -427 -646 -659
-1135 -1160 -242 -247 -577 -589 -745 -760 -168 -170 -488 -497 -710 -725
-222 -228 -540 -552 -705 -720 -360 -366 -1124 -1147 -1360 -1390 -93 -96
-323 -330 -511 -520 -187 -190 -410 -417 -495 -505 -84 -88 -271 -279 -415
-425 -143 -146 -355 -362 -470 -480 -115 -118 -273 -279 -352 -359 -188 -191
-188 -198 0 -92 120 67 360 194 938 499 157 82 310 163 340 180 30 16 152 80
270 141 118 62 224 117 235 123 11 6 61 32 110 58 50 26 144 76 210 112 256
139 374 198 378 191 2 -5 -2 -60 -9 -123 -7 -63 -13 -143 -13 -177 -1 -35 -5
-63 -11 -63 -6 0 -10 -102 -10 -285 0 -183 4 -285 10 -285 6 0 10 -26 10 -57
1 -110 42 -426 81 -618 67 -328 156 -616 286 -924 391 -932 1059 -1714 1918
-2249 66 -41 136 -85 155 -97 29 -18 39 -34 59 -96 132 -415 392 -815 718
-1103 56 -50 100 -92 98 -94 -6 -6 -232 57 -385 108 -494 163 -996 413 -1335
665 -33 25 -85 61 -115 81 -30 21 -81 58 -112 83 -31 25 -83 65 -115 88 -164
117 -490 433 -698 677 -189 220 -444 576 -521 726 -16 30 -42 75 -59 100 -71
106 -277 538 -344 722 -109 301 -183 545 -221 732 -96 475 -121 714 -120 1161
0 171 4 345 8 388 4 42 4 77 0 77 -5 0 -279 -143 -609 -317 l-601 -318 5 -105
c55 -981 278 -1833 697 -2655 654 -1283 1678 -2287 2977 -2921 84 -41 155 -74
157 -74 3 0 33 -13 68 -29 82 -38 346 -140 473 -185 513 -178 1055 -289 1645
-337 63 -5 138 -12 166 -15 l52 -6 5 -56 c9 -97 39 -346 67 -567 17 -125 30
-238 46 -375 8 -74 22 -193 30 -265 20 -177 30 -266 48 -425 8 -74 22 -187 30
-250 8 -63 20 -158 25 -210 26 -244 32 -285 40 -293 20 -20 25 33 33 337 4
176 14 466 22 645 9 179 20 463 26 631 6 168 17 454 25 635 8 182 17 407 20
500 3 94 10 260 15 370 6 110 17 387 25 615 8 228 20 501 25 605 5 105 14 318
20 475 6 157 19 506 30 775 31 743 98 2450 115 2895 8 217 21 548 29 735 9
187 18 419 21 515 12 379 15 455 25 735 6 160 15 358 20 440 6 83 12 263 15
400 7 335 23 843 35 1095 5 113 14 342 20 510 10 287 28 762 50 1335 6 138 17
444 25 680 8 237 17 466 20 510 3 44 15 321 26 615 11 294 21 546 22 559 1 13
-3 26 -8 28 -6 2 -132 -122 -280 -274z m-1745 -4773 c0 -26 4 -71 9 -101 17
-102 34 -256 29 -269 -2 -8 -62 60 -136 155 -73 92 -131 172 -130 177 2 5 48
33 103 62 114 62 125 59 125 -24z m-228 -162 c40 -44 117 -130 171 -190 54
-60 102 -120 107 -133 5 -14 19 -107 30 -208 11 -100 24 -220 30 -267 5 -47
16 -143 25 -215 12 -111 61 -513 95 -790 6 -44 14 -123 20 -175 11 -110 25
-231 40 -345 9 -71 55 -462 80 -680 5 -44 14 -116 19 -160 44 -346 50 -311
-66 -383 -390 -240 -719 -598 -922 -1002 -183 -365 -257 -667 -270 -1093 l-6
-208 -85 58 c-367 251 -722 589 -1019 971 -90 116 -261 374 -261 394 0 8 39
38 88 67 48 29 110 67 137 84 196 122 422 261 485 299 41 25 197 121 345 213
149 92 286 177 306 189 20 11 130 79 245 150 115 71 256 158 314 194 58 35
121 74 140 86 19 13 54 35 78 49 78 50 35 47 -47 -3 -26 -15 -113 -64 -196
-108 -82 -43 -179 -95 -215 -114 -144 -78 -490 -263 -560 -301 -41 -22 -109
-58 -150 -81 -41 -23 -88 -48 -105 -56 -16 -8 -46 -24 -65 -35 -19 -12 -92
-51 -162 -88 -70 -37 -146 -77 -170 -90 -24 -13 -79 -43 -123 -67 -44 -24
-102 -55 -130 -70 -27 -15 -95 -51 -149 -80 -55 -29 -112 -60 -127 -69 -19
-10 -31 -12 -38 -6 -48 51 -272 548 -255 565 5 5 86 38 179 75 94 36 184 72
202 80 17 8 35 15 40 15 5 0 33 11 61 25 29 14 55 25 59 25 6 0 138 51 208 81
84 35 247 99 280 109 22 7 45 16 50 20 6 4 66 28 135 55 69 26 139 53 155 60
17 7 50 20 75 30 25 9 54 21 65 26 11 4 37 15 58 23 20 8 37 20 37 25 0 6 -3
11 -6 11 -9 0 -227 -71 -244 -79 -8 -4 -89 -31 -180 -60 -91 -29 -172 -56
-180 -60 -9 -5 -31 -12 -50 -16 -19 -4 -39 -11 -45 -15 -5 -4 -84 -30 -175
-59 -91 -29 -174 -56 -185 -61 -11 -5 -31 -12 -45 -15 -14 -4 -47 -15 -75 -25
-27 -10 -142 -48 -254 -85 -166 -53 -207 -64 -216 -53 -24 25 -124 369 -140
478 -3 25 -11 58 -17 73 -14 35 -4 46 54 59 95 20 178 37 278 57 58 11 125 25
150 31 25 5 79 17 120 25 41 9 104 22 140 29 36 8 115 24 175 36 126 25 232
47 290 60 61 14 179 38 290 60 107 21 222 45 295 61 25 5 54 11 65 13 21 3 58
11 115 26 19 5 98 21 175 35 166 30 217 45 212 59 -2 6 -13 10 -23 8 -10 -1
-44 -7 -74 -12 -30 -4 -89 -13 -130 -19 -41 -6 -91 -14 -110 -17 -92 -15 -158
-25 -190 -29 -69 -8 -185 -25 -210 -30 -14 -3 -77 -12 -140 -21 -63 -8 -158
-21 -210 -29 -52 -7 -129 -18 -170 -24 -41 -6 -102 -15 -135 -21 -55 -10 -370
-55 -455 -66 -19 -2 -62 -8 -95 -13 -33 -5 -96 -14 -140 -20 -44 -6 -93 -14
-110 -17 -16 -2 -59 -9 -95 -14 -36 -6 -70 -12 -76 -14 -20 -7 -35 11 -44 50
-16 76 -41 390 -38 484 l3 95 155 7 c184 8 836 26 1250 34 356 7 343 7 347 20
4 12 -207 21 -1062 44 -209 5 -451 13 -537 16 l-158 7 0 106 c0 115 23 383 41
469 11 53 11 54 42 49 18 -3 84 -12 147 -21 63 -8 180 -25 260 -37 80 -11 177
-25 215 -29 39 -5 95 -13 125 -19 30 -6 105 -17 165 -26 61 -9 137 -20 170
-25 33 -6 114 -17 180 -26 175 -24 492 -70 580 -84 28 -5 100 -15 160 -23 163
-22 266 -37 303 -47 36 -9 90 3 62 14 -8 3 -37 11 -65 17 -93 19 -190 40 -230
49 -63 13 -307 61 -340 67 -16 2 -37 7 -45 11 -8 3 -44 11 -80 18 -36 7 -85
17 -110 23 -25 6 -81 18 -125 26 -44 8 -100 19 -125 25 -56 14 -247 52 -585
119 -88 18 -169 34 -180 37 -11 3 -51 12 -90 19 -38 8 -90 19 -115 25 -45 11
-162 36 -230 49 -75 14 -85 8 515 322 94 49 179 92 191 95 18 5 113 -21 169
-46 11 -5 72 -26 135 -46 149 -47 349 -113 375 -123 11 -5 94 -32 185 -61 91
-30 170 -57 176 -62 11 -8 24 -1 24 12 0 7 -82 43 -190 83 -36 14 -85 33 -110
44 -25 11 -79 33 -120 47 -41 15 -84 31 -95 36 -62 26 -99 42 -185 75 -201 79
-225 89 -238 99 -10 7 3 18 55 44 37 19 164 86 281 148 117 63 222 114 233
114 11 0 41 -12 67 -27 26 -14 61 -33 77 -41 17 -8 73 -38 125 -67 93 -51 197
-107 350 -188 41 -21 89 -47 105 -57 17 -10 64 -35 105 -57 41 -22 107 -57
145 -78 76 -41 243 -129 288 -153 52 -26 39 -4 -17 30 -30 18 -95 57 -143 87
-338 210 -924 571 -951 587 -18 10 -31 23 -29 29 4 13 437 243 460 244 16 1
124 -80 307 -229 25 -20 59 -45 75 -55 39 -23 -26 40 -198 194 -70 62 -127
116 -127 120 0 6 32 23 255 141 55 29 109 59 120 67 11 7 25 13 32 13 6 0 45
-37 85 -82z m-3838 -3486 c2 -4 8 -35 11 -68 l7 -61 -161 -74 c-89 -41 -156
-75 -149 -77 7 -1 83 11 168 27 85 16 158 27 162 25 8 -5 22 -113 16 -119 -5
-5 -649 -125 -672 -125 -16 0 -22 21 -32 103 l-7 57 124 60 c68 33 117 59 109
57 -72 -18 -241 -40 -249 -32 -6 6 -13 33 -17 62 l-6 52 33 6 c19 3 162 30
319 59 296 56 336 61 344 48z m4540 -404 c11 -41 17 -173 9 -183 -4 -6 -33
-30 -63 -54 -244 -196 -462 -482 -583 -766 -90 -212 -121 -337 -174 -698 -4
-28 -11 -38 -27 -42 -68 -13 -85 -16 -125 -20 l-43 -4 6 102 c31 459 188 868
472 1229 87 111 266 284 389 376 61 45 115 82 121 82 7 0 14 -10 18 -22z
m-4464 -143 c42 -22 67 -59 81 -119 17 -76 5 -123 -40 -166 -33 -31 -59 -41
-246 -95 -283 -80 -348 -77 -396 16 -47 92 -32 194 34 241 42 30 418 136 485
137 29 1 66 -6 82 -14z m4504 -207 c4 -20 11 -73 46 -367 9 -73 9 -76 -18
-109 -158 -199 -263 -394 -313 -582 -19 -73 -39 -173 -39 -196 0 -23 -30 -34
-140 -54 -30 -5 -100 -18 -154 -30 -54 -11 -101 -18 -103 -16 -7 7 16 182 39
291 47 228 172 517 305 705 66 93 339 380 361 380 7 0 14 -10 16 -22z m-4318
-254 c8 -19 17 -48 20 -63 l6 -27 -320 -117 c-175 -64 -325 -117 -333 -117
-15 0 -49 79 -49 111 0 12 59 38 228 99 125 46 265 98 312 116 111 42 118 42
136 -2z m144 -355 c38 -74 42 -71 -241 -198 l-257 -114 19 -45 c10 -24 19 -48
19 -52 0 -12 -90 -52 -108 -48 -14 3 -142 281 -142 309 0 16 74 59 102 59 5 0
18 -20 29 -45 11 -25 23 -45 28 -45 4 0 117 49 252 110 134 60 252 110 261
110 11 0 26 -17 38 -41z m4269 -160 c6 -56 9 -104 6 -107 -5 -5 -145 76 -145
85 0 9 39 72 79 127 35 49 35 49 42 23 4 -14 12 -72 18 -128z m-59 -99 c38
-22 71 -44 73 -48 8 -12 29 -263 23 -269 -3 -3 -40 -12 -83 -20 -43 -8 -98
-19 -123 -25 -79 -17 -130 -21 -130 -10 0 50 62 249 111 361 33 72 26 71 129
11z m-4035 -91 c23 -43 25 -53 14 -64 -17 -15 -597 -325 -610 -325 -16 0 -62
103 -53 117 11 17 584 323 605 323 9 0 28 -22 44 -51z m147 -278 c37 -32 128
-170 128 -194 0 -15 -561 -377 -584 -377 -15 0 -104 138 -122 189 -18 50 -17
68 7 118 18 37 41 55 184 147 222 142 229 146 297 146 49 0 62 -4 90 -29z
m4028 -265 c10 -28 31 -208 25 -215 -3 -2 -47 3 -97 13 -146 26 -339 65 -383
75 -75 19 -470 93 -579 110 -66 10 -111 21 -114 29 -3 9 115 12 567 12 l571 0
10 -24z m-1115 -22 l81 -16 23 -156 c38 -254 78 -407 154 -582 191 -442 519
-788 952 -1006 l120 -60 9 -57 c5 -31 6 -60 3 -64 -11 -10 -82 17 -217 83
-324 158 -575 362 -790 644 -250 328 -400 725 -435 1153 -7 89 -15 84 100 61z
m402 -79 c222 -44 213 -41 213 -71 0 -40 46 -223 79 -311 95 -258 259 -482
481 -658 41 -32 78 -63 81 -67 3 -4 11 -56 18 -116 7 -59 16 -134 21 -167 15
-100 22 -205 13 -205 -20 1 -212 111 -294 169 -459 326 -735 809 -794 1394 -4
37 -5 67 -1 67 3 0 86 -16 183 -35z m-3044 -36 c32 -17 77 -60 93 -91 22 -42
18 -119 -8 -158 -28 -41 -451 -370 -476 -370 -22 0 -88 88 -76 100 5 5 104 81
219 170 116 89 214 170 219 181 13 28 -19 62 -46 48 -11 -6 -112 -82 -226
-170 -113 -87 -213 -159 -222 -159 -14 0 -81 74 -80 89 1 10 398 314 448 343
51 30 116 37 155 17z m3597 -74 c102 -20 188 -39 192 -43 3 -4 10 -52 13 -108
l7 -101 -28 -20 c-50 -34 -245 -145 -249 -141 -11 11 -75 152 -94 207 -22 64
-61 216 -61 238 0 6 8 9 18 7 9 -2 100 -20 202 -39z m-3286 -274 c29 -29 36
-44 31 -60 -3 -11 -42 -53 -85 -92 -44 -39 -82 -80 -85 -90 -6 -19 10 -59 24
-59 5 0 52 41 104 90 52 50 101 90 108 90 16 0 89 -70 89 -85 0 -16 -496 -475
-514 -475 -24 0 -165 168 -172 206 -12 67 16 119 98 185 39 30 58 39 89 39 36
0 39 2 39 28 1 15 6 37 13 49 20 36 191 210 207 212 9 0 33 -17 54 -38z m3510
-43 c16 -113 24 -211 19 -226 -3 -9 -24 -43 -46 -75 -47 -68 -61 -68 -120 -5
-55 60 -131 178 -121 188 13 12 248 150 256 150 4 0 9 -15 12 -32z m-3101
-374 c59 -53 106 -100 105 -105 -8 -23 -455 -509 -469 -509 -18 0 -229 186
-229 203 0 16 61 77 78 77 8 0 41 -25 75 -55 33 -30 61 -54 62 -52 1 1 24 26
51 56 l49 53 -54 48 -54 48 32 41 c18 23 40 41 48 41 8 0 37 -18 63 -40 l49
-41 48 52 c75 80 75 76 5 139 -34 31 -62 60 -62 65 0 15 63 75 79 75 9 0 65
-43 124 -96z m3121 62 c-10 -8 -21 -12 -24 -9 -3 2 4 11 14 19 11 7 22 12 25
9 2 -3 -4 -12 -15 -19z m30 -105 c5 -39 6 -74 2 -78 -7 -8 -72 52 -88 81 -9
17 -5 24 23 48 18 16 38 27 44 25 5 -2 14 -36 19 -76z m-2567 -394 c73 -50 93
-129 54 -205 -45 -84 -249 -368 -281 -389 -47 -33 -129 -32 -186 2 -92 54
-108 145 -45 244 38 59 58 64 114 26 20 -14 37 -28 37 -30 0 -2 -14 -26 -30
-53 -32 -51 -32 -75 0 -92 23 -12 23 -11 159 189 62 91 111 175 111 187 0 13
-9 28 -20 34 -16 9 -23 5 -47 -26 -70 -91 -69 -90 -95 -75 -14 7 -37 23 -53
35 l-28 23 34 49 c65 96 97 115 181 111 42 -2 66 -10 95 -30z m323 -216 c25
-16 44 -33 43 -38 -1 -5 -77 -138 -169 -296 -131 -225 -171 -287 -187 -287
-20 0 -107 46 -107 56 0 3 77 138 172 300 114 197 176 294 187 293 9 0 36 -13
61 -28z m403 -206 l96 -45 -93 -192 c-197 -408 -208 -428 -228 -428 -25 0
-167 72 -206 105 -43 36 -59 92 -43 148 7 23 56 127 108 230 108 215 120 227
214 227 46 0 74 -8 152 -45z m314 -141 c51 -20 50 -16 28 -204 -25 -209 -26
-210 81 73 19 50 30 67 45 67 28 0 99 -31 99 -43 0 -6 -53 -151 -117 -324 -85
-225 -122 -313 -133 -313 -9 0 -43 10 -75 23 l-60 23 0 50 c0 27 4 87 8 134
l7 85 -35 -90 c-53 -137 -52 -135 -79 -135 -27 0 -96 27 -96 38 0 4 53 148
117 319 132 350 119 332 210 297z m489 -165 c27 -7 44 -17 44 -26 0 -24 -181
-637 -191 -647 -10 -11 -117 12 -126 27 -3 5 37 155 88 333 105 363 90 337
185 313z"/>
<path d="M4610 8411 c-107 -31 -201 -60 -207 -64 -18 -11 -16 -42 3 -58 13
-10 48 -3 219 45 199 57 225 68 225 92 0 14 -28 45 -38 43 -4 -1 -95 -27 -202
-58z"/>
<path d="M5270 6935 c-91 -57 -169 -111 -174 -119 -10 -15 6 -66 21 -66 5 0
92 53 194 118 l187 118 -14 27 c-8 15 -22 27 -32 27 -9 0 -91 -47 -182 -105z"/>
<path d="M5820 6003 c-58 -51 -64 -66 -40 -95 l19 -23 57 57 c57 56 58 57 39
78 -24 27 -28 26 -75 -17z"/>
<path d="M7687 5033 c-25 -28 -177 -353 -177 -379 0 -21 35 -52 46 -41 8 7
205 410 202 412 -6 5 -47 25 -51 25 -2 0 -11 -8 -20 -17z"/>
<path d="M10032 17718 c-7 -7 -12 -29 -12 -49 0 -20 -7 -42 -15 -49 -19 -16
-19 -29 2 -52 16 -18 17 -18 39 3 l23 22 88 -81 c48 -44 99 -92 112 -106 l25
-26 23 22 c13 12 23 26 23 32 0 11 -280 296 -291 296 -3 0 -10 -5 -17 -12z"/>
<path d="M9821 17519 c-26 -25 -31 -39 -31 -76 0 -44 3 -49 93 -140 50 -52
104 -101 119 -109 44 -23 83 -18 117 17 26 25 31 38 31 77 0 45 -2 48 -108
154 -102 102 -110 108 -149 108 -33 0 -48 -6 -72 -31z m168 -137 c71 -65 93
-92 88 -105 -3 -9 -12 -17 -19 -17 -20 0 -201 186 -194 199 14 21 32 10 125
-77z"/>
<path d="M9682 17368 c-7 -7 -12 -29 -12 -49 0 -20 -7 -42 -15 -49 -19 -16
-19 -29 2 -52 16 -18 17 -18 39 3 l23 22 88 -81 c48 -44 99 -92 112 -106 l25
-26 23 22 c13 12 23 26 23 32 0 11 -280 296 -291 296 -3 0 -10 -5 -17 -12z"/>
<path d="M9481 17159 c-26 -25 -31 -39 -31 -76 0 -44 3 -49 93 -140 50 -52
104 -101 119 -109 44 -23 83 -18 117 17 26 25 31 38 31 77 0 45 -2 48 -108
154 -102 102 -110 108 -149 108 -33 0 -48 -6 -72 -31z m168 -137 c71 -65 93
-92 88 -105 -3 -9 -12 -17 -19 -17 -20 0 -201 186 -194 199 14 21 32 10 125
-77z"/>
<path d="M9301 16989 c-26 -25 -31 -39 -31 -76 0 -44 3 -49 93 -140 50 -52
104 -101 119 -109 44 -23 83 -18 117 17 26 25 31 38 31 77 0 45 -2 48 -108
154 -102 102 -110 108 -149 108 -33 0 -48 -6 -72 -31z m168 -137 c71 -65 93
-92 88 -105 -3 -9 -12 -17 -19 -17 -20 0 -201 186 -194 199 14 21 32 10 125
-77z"/>
<path d="M9131 16809 c-26 -25 -31 -39 -31 -76 0 -44 3 -49 93 -140 50 -52
104 -101 119 -109 44 -23 83 -18 117 17 26 25 31 38 31 77 0 45 -2 48 -108
154 -102 102 -110 108 -149 108 -33 0 -48 -6 -72 -31z m168 -137 c71 -65 93
-92 88 -105 -3 -9 -12 -17 -19 -17 -20 0 -201 186 -194 199 14 21 32 10 125
-77z"/>
<path d="M8961 16639 c-26 -25 -31 -39 -31 -76 0 -44 3 -49 93 -140 50 -52
104 -101 119 -109 44 -23 83 -18 117 17 26 25 31 38 31 77 0 45 -2 48 -108
154 -102 102 -110 108 -149 108 -33 0 -48 -6 -72 -31z m168 -137 c71 -65 93
-92 88 -105 -3 -9 -12 -17 -19 -17 -20 0 -201 186 -194 199 14 21 32 10 125
-77z"/>
<path d="M10980 16519 c0 -19 -5 -133 -10 -253 -8 -167 -8 -221 1 -227 7 -4
37 -10 68 -14 291 -34 744 -142 1086 -258 107 -37 344 -127 410 -157 22 -10
87 -39 144 -65 808 -362 1567 -949 2152 -1665 706 -864 1157 -1917 1293 -3025
36 -290 41 -378 41 -745 -1 -365 -4 -429 -41 -730 -139 -1147 -619 -2234
-1382 -3130 -131 -154 -418 -447 -573 -586 -984 -876 -2209 -1396 -3524 -1494
-82 -7 -153 -15 -156 -18 -4 -4 -12 -90 -18 -192 -6 -102 -14 -218 -17 -259
l-7 -73 54 6 c30 3 106 10 169 15 668 55 1263 187 1850 412 58 22 119 47 137
55 17 8 34 14 37 14 3 0 40 16 82 35 41 19 77 35 80 35 9 0 312 151 424 211
708 380 1369 921 1900 1554 516 616 922 1340 1173 2095 77 231 82 249 133 448
142 555 199 1018 199 1612 0 482 -33 829 -121 1270 -154 772 -438 1483 -867
2170 -479 768 -1159 1465 -1917 1965 -352 232 -622 376 -1095 586 -186 82
-590 217 -854 285 -256 66 -615 135 -781 150 l-70 7 0 -34z"/>
<path d="M8711 16379 c-26 -25 -31 -39 -31 -76 0 -44 3 -49 93 -140 50 -52
104 -101 119 -109 44 -23 83 -18 117 17 26 25 31 38 31 77 0 45 -2 48 -108
154 -102 102 -110 108 -149 108 -33 0 -48 -6 -72 -31z m168 -137 c71 -65 93
-92 88 -105 -3 -9 -12 -17 -19 -17 -20 0 -201 186 -194 199 14 21 32 10 125
-77z"/>
<path d="M8541 16209 c-26 -25 -31 -39 -31 -76 0 -44 3 -49 93 -140 50 -52
104 -101 119 -109 44 -23 83 -18 117 17 26 25 31 38 31 77 0 45 -2 48 -108
154 -102 102 -110 108 -149 108 -33 0 -48 -6 -72 -31z m168 -137 c71 -65 93
-92 88 -105 -3 -9 -12 -17 -19 -17 -20 0 -201 186 -194 199 14 21 32 10 125
-77z"/>
<path d="M8361 16029 c-26 -25 -31 -39 -31 -76 0 -44 3 -49 93 -140 50 -52
104 -101 119 -109 44 -23 83 -18 117 17 26 25 31 38 31 77 0 45 -2 48 -108
154 -102 102 -110 108 -149 108 -33 0 -48 -6 -72 -31z m168 -137 c71 -65 93
-92 88 -105 -3 -9 -12 -17 -19 -17 -20 0 -201 186 -194 199 14 21 32 10 125
-77z"/>
<path d="M8191 15849 c-26 -25 -31 -39 -31 -76 0 -44 3 -49 93 -140 50 -52
104 -101 119 -109 44 -23 83 -18 117 17 26 25 31 38 31 77 0 45 -2 48 -108
154 -102 102 -110 108 -149 108 -33 0 -48 -6 -72 -31z m168 -137 c71 -65 93
-92 88 -105 -3 -9 -12 -17 -19 -17 -20 0 -201 186 -194 199 14 21 32 10 125
-77z"/>
<path d="M10946 15633 c-4 -104 -8 -205 -10 -226 -5 -46 2 -50 119 -67 361
-52 811 -181 1195 -343 964 -406 1789 -1090 2365 -1962 164 -247 294 -480 395
-705 29 -63 60 -133 70 -155 52 -115 151 -392 200 -560 151 -520 211 -948 211
-1500 0 -438 -26 -682 -121 -1151 -52 -255 -173 -629 -299 -922 -686 -1602
-2128 -2773 -3830 -3112 -217 -43 -389 -67 -636 -88 l-80 -7 -14 -233 c-8
-128 -10 -236 -6 -240 4 -4 10 -1 12 6 3 7 24 12 56 12 132 0 538 53 772 101
1751 359 3233 1503 4024 3109 135 273 282 650 351 895 15 53 45 166 65 240 66
252 121 586 157 960 13 129 16 712 4 810 -3 33 -11 110 -17 170 -158 1711
-1099 3280 -2544 4242 -325 217 -694 411 -1048 553 -402 160 -822 274 -1269
345 -54 8 -102 15 -107 15 -5 0 -12 -84 -15 -187z"/>
<path d="M8052 15708 c-7 -7 -12 -29 -12 -49 0 -20 -7 -42 -15 -49 -19 -16
-19 -29 2 -52 16 -18 17 -18 39 3 l23 22 88 -81 c48 -44 99 -92 112 -106 l25
-26 23 22 c13 12 23 26 23 32 0 11 -280 296 -291 296 -3 0 -10 -5 -17 -12z"/>
<path d="M7872 15528 c-7 -7 -12 -29 -12 -49 0 -20 -7 -42 -15 -49 -19 -16
-19 -29 2 -52 16 -18 17 -18 39 3 l23 22 88 -81 c48 -44 99 -92 112 -106 l25
-26 23 22 c13 12 23 26 23 32 0 11 -280 296 -291 296 -3 0 -10 -5 -17 -12z"/>
<path d="M7671 15329 c-26 -25 -31 -39 -31 -76 0 -44 3 -49 93 -140 50 -52
104 -101 119 -109 44 -23 83 -18 117 17 26 25 31 38 31 77 0 45 -2 48 -108
154 -102 102 -110 108 -149 108 -33 0 -48 -6 -72 -31z m168 -137 c71 -65 93
-92 88 -105 -3 -9 -12 -17 -19 -17 -20 0 -201 186 -194 199 14 21 32 10 125
-77z"/>
<path d="M7501 15149 c-26 -25 -31 -39 -31 -76 0 -44 3 -49 93 -140 50 -52
104 -101 119 -109 44 -23 83 -18 117 17 26 25 31 38 31 77 0 45 -2 48 -108
154 -102 102 -110 108 -149 108 -33 0 -48 -6 -72 -31z m168 -137 c71 -65 93
-92 88 -105 -3 -9 -12 -17 -19 -17 -20 0 -201 186 -194 199 14 21 32 10 125
-77z"/>
<path d="M7251 14899 c-26 -25 -31 -39 -31 -76 0 -44 3 -49 93 -140 50 -52
104 -101 119 -109 44 -23 83 -18 117 17 26 25 31 38 31 77 0 45 -2 48 -108
154 -102 102 -110 108 -149 108 -33 0 -48 -6 -72 -31z m168 -137 c71 -65 93
-92 88 -105 -3 -9 -12 -17 -19 -17 -20 0 -201 186 -194 199 14 21 32 10 125
-77z"/>
<path d="M7102 14748 c-7 -7 -12 -29 -12 -49 0 -20 -7 -42 -15 -49 -19 -16
-19 -29 2 -52 16 -18 17 -18 39 3 l23 22 88 -81 c48 -44 99 -92 112 -106 l25
-26 23 22 c13 12 23 26 23 32 0 11 -280 296 -291 296 -3 0 -10 -5 -17 -12z"/>
<path d="M6901 14539 c-26 -25 -31 -39 -31 -76 0 -44 3 -49 93 -140 50 -52
104 -101 119 -109 44 -23 83 -18 117 17 26 25 31 38 31 77 0 45 -2 48 -108
154 -102 102 -110 108 -149 108 -33 0 -48 -6 -72 -31z m168 -137 c71 -65 93
-92 88 -105 -3 -9 -12 -17 -19 -17 -20 0 -201 186 -194 199 14 21 32 10 125
-77z"/>
<path d="M6731 14369 c-26 -25 -31 -39 -31 -76 0 -44 3 -49 93 -140 50 -52
104 -101 119 -109 44 -23 83 -18 117 17 26 25 31 38 31 77 0 45 -2 48 -108
154 -102 102 -110 108 -149 108 -33 0 -48 -6 -72 -31z m168 -137 c71 -65 93
-92 88 -105 -3 -9 -12 -17 -19 -17 -20 0 -201 186 -194 199 14 21 32 10 125
-77z"/>
<path d="M6582 14218 c-7 -7 -12 -29 -12 -49 0 -20 -7 -42 -15 -49 -19 -16
-19 -29 2 -52 16 -18 17 -18 39 3 l23 22 88 -81 c48 -44 99 -92 112 -106 l25
-26 23 22 c13 12 23 26 23 32 0 11 -280 296 -291 296 -3 0 -10 -5 -17 -12z"/>
<path d="M6412 14048 c-7 -7 -12 -29 -12 -49 0 -20 -7 -42 -15 -49 -19 -16
-19 -29 2 -52 16 -18 17 -18 39 3 l23 22 88 -81 c48 -44 99 -92 112 -106 l25
-26 23 22 c13 12 23 26 23 32 0 11 -280 296 -291 296 -3 0 -10 -5 -17 -12z"/>
<path d="M6211 13839 c-26 -25 -31 -39 -31 -76 0 -44 3 -49 93 -140 50 -52
104 -101 119 -109 44 -23 83 -18 117 17 26 25 31 38 31 77 0 45 -2 48 -108
154 -102 102 -110 108 -149 108 -33 0 -48 -6 -72 -31z m168 -137 c71 -65 93
-92 88 -105 -3 -9 -12 -17 -19 -17 -20 0 -201 186 -194 199 14 21 32 10 125
-77z"/>
<path d="M6031 13659 c-26 -25 -31 -39 -31 -76 0 -44 3 -49 93 -140 50 -52
104 -101 119 -109 44 -23 83 -18 117 17 26 25 31 38 31 77 0 45 -2 48 -108
154 -102 102 -110 108 -149 108 -33 0 -48 -6 -72 -31z m168 -137 c71 -65 93
-92 88 -105 -3 -9 -12 -17 -19 -17 -20 0 -201 186 -194 199 14 21 32 10 125
-77z"/>
<path d="M5781 13409 c-26 -25 -31 -39 -31 -76 0 -44 3 -49 93 -140 50 -52
104 -101 119 -109 44 -23 83 -18 117 17 26 25 31 38 31 77 0 45 -2 48 -108
154 -102 102 -110 108 -149 108 -33 0 -48 -6 -72 -31z m168 -137 c71 -65 93
-92 88 -105 -3 -9 -12 -17 -19 -17 -20 0 -201 186 -194 199 14 21 32 10 125
-77z"/>
<path d="M5611 13239 c-26 -25 -31 -39 -31 -76 0 -44 3 -49 93 -140 50 -52
104 -101 119 -109 44 -23 83 -18 117 17 26 25 31 38 31 77 0 45 -2 48 -108
154 -102 102 -110 108 -149 108 -33 0 -48 -6 -72 -31z m168 -137 c71 -65 93
-92 88 -105 -3 -9 -12 -17 -19 -17 -20 0 -201 186 -194 199 14 21 32 10 125
-77z"/>
<path d="M5441 13059 c-26 -25 -31 -39 -31 -76 0 -44 3 -49 93 -140 50 -52
104 -101 119 -109 44 -23 83 -18 117 17 26 25 31 38 31 77 0 45 -2 48 -108
154 -102 102 -110 108 -149 108 -33 0 -48 -6 -72 -31z m168 -137 c71 -65 93
-92 88 -105 -3 -9 -12 -17 -19 -17 -20 0 -201 186 -194 199 14 21 32 10 125
-77z"/>
<path d="M11020 12570 l0 -420 216 0 216 0 -47 -57 c-242 -302 -439 -662 -499
-913 -10 -41 -22 -85 -27 -98 -12 -30 -12 -557 0 -580 5 -9 17 -44 26 -77 38
-132 133 -273 278 -412 142 -136 220 -186 551 -353 389 -196 454 -247 550
-430 81 -155 109 -313 82 -465 -68 -384 -308 -840 -698 -1326 -31 -39 -30 -33
-93 -454 -19 -132 -37 -250 -40 -262 -11 -49 27 -18 183 150 599 642 935 1202
1033 1720 7 37 16 67 21 67 10 0 11 447 1 452 -5 2 -19 46 -32 98 -44 180
-116 304 -266 459 -101 105 -216 198 -320 259 -38 22 -167 84 -285 138 -212
95 -302 150 -408 248 -90 83 -179 262 -203 407 -11 65 -10 88 5 169 50 272
201 583 440 905 126 168 276 345 300 350 11 3 178 4 369 3 l348 -3 -76 -95
c-174 -218 -335 -480 -420 -682 -46 -108 -105 -311 -105 -360 0 -15 -4 -30
-10 -33 -13 -8 -14 -419 -1 -443 5 -9 15 -44 21 -77 16 -79 62 -190 112 -266
50 -79 230 -264 329 -339 41 -32 109 -76 150 -98 110 -59 472 -240 500 -250
13 -5 61 -37 106 -70 167 -124 293 -372 294 -582 1 -153 -74 -404 -195 -655
-115 -237 -266 -475 -462 -725 l-82 -106 -52 -339 c-28 -187 -53 -346 -55
-352 -13 -40 39 5 170 144 582 621 920 1166 1037 1673 20 85 22 123 23 355 0
237 -2 267 -22 342 -48 178 -114 285 -282 456 -184 188 -256 235 -592 387
-200 90 -237 111 -327 181 -80 63 -112 96 -151 156 -63 96 -105 195 -126 301
-16 76 -16 89 -1 177 56 325 272 723 617 1132 48 57 106 119 129 138 l42 35
319 0 319 0 0 420 0 420 -1455 0 -1455 0 0 -420z"/>
<path d="M5261 12879 c-26 -25 -31 -39 -31 -76 0 -44 3 -49 93 -140 50 -52
104 -101 119 -109 44 -23 83 -18 117 17 26 25 31 38 31 77 0 45 -2 48 -108
154 -102 102 -110 108 -149 108 -33 0 -48 -6 -72 -31z m168 -137 c71 -65 93
-92 88 -105 -3 -9 -12 -17 -19 -17 -20 0 -201 186 -194 199 14 21 32 10 125
-77z"/>
<path d="M5122 12738 c-7 -7 -12 -29 -12 -49 0 -20 -7 -42 -15 -49 -19 -16
-19 -29 2 -52 16 -18 17 -18 39 3 l23 22 88 -81 c48 -44 99 -92 112 -106 l25
-26 23 22 c13 12 23 26 23 32 0 11 -280 296 -291 296 -3 0 -10 -5 -17 -12z"/>
<path d="M4952 12558 c-7 -7 -12 -29 -12 -49 0 -20 -7 -42 -15 -49 -19 -16
-19 -29 2 -52 16 -18 17 -18 39 3 l23 22 88 -81 c48 -44 99 -92 112 -106 l25
-26 23 22 c13 12 23 26 23 32 0 11 -280 296 -291 296 -3 0 -10 -5 -17 -12z"/>
<path d="M4741 12349 c-26 -25 -31 -39 -31 -76 0 -44 3 -49 93 -140 50 -52
104 -101 119 -109 44 -23 83 -18 117 17 26 25 31 38 31 77 0 45 -2 48 -108
154 -102 102 -110 108 -149 108 -33 0 -48 -6 -72 -31z m168 -137 c71 -65 93
-92 88 -105 -3 -9 -12 -17 -19 -17 -20 0 -201 186 -194 199 14 21 32 10 125
-77z"/>
<path d="M4571 12179 c-26 -25 -31 -39 -31 -76 0 -44 3 -49 93 -140 50 -52
104 -101 119 -109 44 -23 83 -18 117 17 26 25 31 38 31 77 0 45 -2 48 -108
154 -102 102 -110 108 -149 108 -33 0 -48 -6 -72 -31z m168 -137 c71 -65 93
-92 88 -105 -3 -9 -12 -17 -19 -17 -20 0 -201 186 -194 199 14 21 32 10 125
-77z"/>
<path d="M4321 11929 c-26 -25 -31 -39 -31 -76 0 -44 3 -49 93 -140 50 -52
104 -101 119 -109 44 -23 83 -18 117 17 26 25 31 38 31 77 0 45 -2 48 -108
154 -102 102 -110 108 -149 108 -33 0 -48 -6 -72 -31z m168 -137 c71 -65 93
-92 88 -105 -3 -9 -12 -17 -19 -17 -20 0 -201 186 -194 199 14 21 32 10 125
-77z"/>
<path d="M4182 11778 c-7 -7 -12 -29 -12 -49 0 -20 -7 -42 -15 -49 -19 -16
-19 -29 2 -52 16 -18 17 -18 39 3 l23 22 88 -81 c48 -44 99 -92 112 -106 l25
-26 23 22 c13 12 23 26 23 32 0 11 -280 296 -291 296 -3 0 -10 -5 -17 -12z"/>
<path d="M3981 11569 c-26 -25 -31 -39 -31 -76 0 -44 3 -49 93 -140 50 -52
104 -101 119 -109 44 -23 83 -18 117 17 26 25 31 38 31 77 0 45 -2 48 -108
154 -102 102 -110 108 -149 108 -33 0 -48 -6 -72 -31z m168 -137 c71 -65 93
-92 88 -105 -3 -9 -12 -17 -19 -17 -20 0 -201 186 -194 199 14 21 32 10 125
-77z"/>
<path d="M3801 11399 c-26 -25 -31 -39 -31 -76 0 -44 3 -49 93 -140 50 -52
104 -101 119 -109 44 -23 83 -18 117 17 26 25 31 38 31 77 0 45 -2 48 -108
154 -102 102 -110 108 -149 108 -33 0 -48 -6 -72 -31z m168 -137 c71 -65 93
-92 88 -105 -3 -9 -12 -17 -19 -17 -20 0 -201 186 -194 199 14 21 32 10 125
-77z"/>
<path d="M3662 11248 c-7 -7 -12 -29 -12 -49 0 -20 -7 -42 -15 -49 -19 -16
-19 -29 2 -52 16 -18 17 -18 39 3 l23 22 88 -81 c48 -44 99 -92 112 -106 l25
-26 23 22 c13 12 23 26 23 32 0 11 -280 296 -291 296 -3 0 -10 -5 -17 -12z"/>
<path d="M3492 11068 c-7 -7 -12 -29 -12 -49 0 -20 -7 -42 -15 -49 -19 -16
-19 -29 2 -52 16 -18 17 -18 39 3 l23 22 88 -81 c48 -44 99 -92 112 -106 l25
-26 23 22 c13 12 23 26 23 32 0 11 -280 296 -291 296 -3 0 -10 -5 -17 -12z"/>
<path d="M3281 10869 c-26 -25 -31 -39 -31 -76 0 -44 3 -49 93 -140 50 -52
104 -101 119 -109 44 -23 83 -18 117 17 26 25 31 38 31 77 0 45 -2 48 -108
154 -102 102 -110 108 -149 108 -33 0 -48 -6 -72 -31z m168 -137 c71 -65 93
-92 88 -105 -3 -9 -12 -17 -19 -17 -20 0 -201 186 -194 199 14 21 32 10 125
-77z"/>
<path d="M3111 10689 c-26 -25 -31 -39 -31 -76 0 -44 3 -49 93 -140 50 -52
104 -101 119 -109 44 -23 83 -18 117 17 26 25 31 38 31 77 0 45 -2 48 -108
154 -102 102 -110 108 -149 108 -33 0 -48 -6 -72 -31z m168 -137 c71 -65 93
-92 88 -105 -3 -9 -12 -17 -19 -17 -20 0 -201 186 -194 199 14 21 32 10 125
-77z"/>
</g>
</svg>
