<?xml version="1.0" encoding="utf-8"?>
<!-- Generator: Adobe Illustrator 24.0.0, SVG Export Plug-In . SVG Version: 6.00 Build 0)  -->
<svg version="1.1" id="Layer_1" xmlns="http://www.w3.org/2000/svg" xmlns:xlink="http://www.w3.org/1999/xlink" x="0px" y="0px"
	 viewBox="0 0 1454.7 148" style="enable-background:new 0 0 1454.7 148;" xml:space="preserve">
<style type="text/css">
	.st0{enable-background:new    ;}
	.st1{fill:#413e66;}
</style>
<g class="st0">
	<path class="st1" d="M131.8,129.6h-24.3L32.2,67.7v61.9l-32-0.2v-106h22.4l77.1,63.5V23.6l32-18.6V129.6z"/>
	<path class="st1" d="M290.5,105.4l-24.1,24.2H178l-24.1-24.2V47.5L178,23.4h88.4l24.1,24.2V105.4z M258.5,105.8V47.1h-72.5v58.7
		H258.5z"/>
	<path class="st1" d="M429.3,23.4l-23.6,23.8h-31.5v100.8l-32-18.4V47.1h-31.5l-23.6-23.8H429.3z"/>
	<path class="st1" d="M476.1,129.6l-32-0.2V23.5l32-18.5V129.6z"/>
	<path class="st1" d="M626.4,23.4l-23.6,23.8h-71.3v18.7h79.4l-21.6,21.6h-57.8v60.5l-32-18.4V23.4H626.4z"/>
	<path class="st1" d="M670.5,129.6l-32-0.2V23.5l32-18.5V129.6z"/>
	<path class="st1" d="M819.7,23.4l-23.6,23.8h-71.3v58.7h91.1l-23.8,23.8h-75.2l-24.1-23.8V47.6l24.1-24.2H819.7z"/>
	<path class="st1" d="M955.6,147.9l-32-18.2V99.2h-64.6v30.4l-32-0.2V47.1L851,23.4h80.5l24.1,23.8V147.9z M923.6,75.8V47.1h-64.6
		v28.6H923.6z"/>
	<path class="st1" d="M1094.7,23.4l-23.6,23.8h-31.5v100.8l-32-18.4V47.1h-31.5l-23.6-23.8H1094.7z"/>
	<path class="st1" d="M1141.5,129.6l-32-0.2V23.5l32-18.5V129.6z"/>
	<path class="st1" d="M1300.5,105.4l-24.1,24.2H1188l-24.1-24.2V47.5l24.1-24.2h88.4l24.1,24.2V105.4z M1268.4,105.8V47.1h-72.5
		v58.7H1268.4z"/>
	<path class="st1" d="M1454.4,129.6h-24.3l-75.2-61.9v61.9l-32-0.2v-106h22.4l77.1,63.5V23.6l32-18.6V129.6z"/>
</g>
</svg>
