<?xml version="1.0" encoding="utf-8"?>
<!-- Generator: Adobe Illustrator 24.0.0, SVG Export Plug-In . SVG Version: 6.00 Build 0)  -->
<svg version="1.1" id="Layer_1" xmlns="http://www.w3.org/2000/svg" xmlns:xlink="http://www.w3.org/1999/xlink" x="0px" y="0px"
	 viewBox="0 0 615 148" style="enable-background:new 0 0 615 148;" xml:space="preserve">
<style type="text/css">
	.st0{enable-background:new    ;}
	.st1{fill:#413E66;}
</style>
<g class="st0">
	<path class="st1" d="M142.4,23.4l-23.6,23.8H87.3v100.8l-32-18.4V47.1H23.8L0.2,23.4H142.4z"/>
	<path class="st1" d="M284,23.4l-23.6,23.8h-71.3v18.7h79.4L247,87.5h-57.8v18.4h91.1l-23.8,23.8h-99.4V23.4H284z"/>
	<path class="st1" d="M423.2,147.9l-32-18.2V99.2h-64.6v30.4l-32-0.2V47.1l24.1-23.8h80.5l24.1,23.8V147.9z M391.1,75.8V47.1h-64.6
		v28.6H391.1z"/>
	<path class="st1" d="M610.2,147.9l-32-18.4V61.7l-39.8,54.7h-20.7l-39.6-54.7v67.9h-32V23.4h36.1l46.1,63.3L574,23.4h36.2V147.9z"
		/>
</g>
</svg>
