<svg xmlns="http://www.w3.org/2000/svg" width="500" height="500" viewBox="0 0 500 500">
  <defs>
    <style>
      .cls-1 {
        fill: #aee5ff;
      }

      .cls-2 {
        fill: #24b9fe;
        fill-rule: evenodd;
      }
    </style>
  </defs>
  <circle class="cls-1" cx="249.5" cy="249.5" r="149.5"/>
  <path id="Color_Fill_1" data-name="Color Fill 1" class="cls-2" d="M177.336,179c7.054-.059,12.425.908,17.345,3.037,2.15,0.931,4.471,2.935,6.694,3.644h98.288a16.72,16.72,0,0,0,2.13-1.518,55.806,55.806,0,0,1,9.129-3.948c8.732-2.817,19.624-.3,25.257,3.644,12.742,8.922,13.573,25.424,18.866,41.606,3.78,11.558,6.6,24.186,10.346,35.836,1.4,4.362,1.642,8.394,3.043,12.756,2.253,7.015,5.228,16.423,2.434,24.9-3.586,10.884-12.907,17.027-24.648,19.74-5.7,1.318-13.532-.673-16.432-2.43-10.338-6.264-14.182-13.21-19.17-24.6-1.665-3.8-3.119-7.4-4.869-10.933-0.739-1.492-.553-2.98-2.13-3.644-1.751-1.072-4.692-.086-7-0.608-3.944-.892-7.922-1.775-10.955-3.644a34.322,34.322,0,0,1-9.433-8.5l-3.043-5.77h-45.34c-4.289,7.243-9.344,13.862-17.954,16.7-4.005,1.322-8.885.969-13.389,1.823-4.687,10.943-9.311,23.18-16.127,32.191-2.073,2.74-5.514,4.525-8.521,6.378-4.967,3.06-13.724,5.91-21.605,3.341a33.532,33.532,0,0,1-8.216-4.252,31.031,31.031,0,0,1-9.129-9.111c-5.438-8.633-4.581-20.08-1.217-30.37,6.312-19.3,10.462-39.859,16.736-58.916,2.964-9,4.074-18.994,9.129-25.815a33.384,33.384,0,0,1,12.781-9.718C172.173,180.027,175.733,180,177.336,179ZM316.7,196.614l-3.043.911c-1.6.947-2.124,2.644-3.348,3.948-0.4,5.118.911,9.125,5.173,10.326,6.436,1.813,12.431-6.51,8.825-10.933C323.427,198.125,320.34,196.626,316.7,196.614Zm-139.368,16.7c-3.584-.095-11.31-0.494-13.389.911-2.374,1.6-1.536,8.639-.913,11.54,3.254,1.882,9.021,1.545,14.3,1.519-0.034,4.712.286,9.077,0.608,13.362a4.62,4.62,0,0,0,1.217.608c2.3,1.893,10.634,1.146,11.564-1.215,1.592-2.238.65-9.319,0.608-12.755,3.831,0.08,11.064.889,13.389-.912,1.9-2.1,1.046-10.162,0-12.451a124.957,124.957,0,0,0-13.389-.607c0.081-3.852.9-11.041-.913-13.363v-0.3c-2.456-.322-11.288-1.359-12.476.608C176.943,201.916,177.281,210.619,177.336,213.318ZM264.973,220c0.226-2.393,1.389-10.372-.608-11.541-0.977-.627-2.848-0.017-4.261-0.3-4.014-.814-20.6-0.969-22.213,1.215-1.478,1.8-.88,8.961.608,10.021,1.611,1.225,5.147.911,7.912,0.912Zm39.254-11.541c-1.068.821-2.606,1-3.651,1.823l-2.13,3.34c-0.343,5.81,1.326,9,7,9.719,0.768,0.1,2.452.305,3.347-.3,2.5-.788,3-2.878,4.564-4.556a22.813,22.813,0,0,0-.913-6.681C309.819,210,309.053,208.433,304.227,208.458Zm23.431,0c-0.262.2-.957,0.407-1.217,0.608-8.9,2.172-4.095,18.269,6.086,13.97C340.219,219.788,337.8,208.178,327.658,208.458ZM315.182,220.3a1.556,1.556,0,0,1-.913.3c-1.3,1.391-2.614,2.882-3.956,4.252-0.15,2.1-.549,4.446.305,6.378,1.74,3.936,8.823,5.226,12.476,2.125,3.519-2.987,2.01-10.686-1.522-12.451C320.006,220.127,317.454,220.224,315.182,220.3Zm-71.205,6.681c-1.04.644-4.421,0.679-5.478,0.911-1.274,1.919-2.524,9.9.305,11.237,1.561,1.382,4.116.381,6.694,0.911,3.755,0.771,16.624.362,19.475-.911a63.664,63.664,0,0,0,0-10.933l-0.608-.3c-1.43-1.067-4.123-.275-6.391-0.607C254.142,226.726,247.179,227.75,243.977,226.984Zm-42.3,13.059c-0.99.575-2.786,0.164-3.955,0.607a12.413,12.413,0,0,0-6.086,5.77c-3.333,7.567,3.388,18.081,11.867,16.1,7.293-1.707,13.548-9.505,8.216-17.614C209.68,241.8,206.452,240.5,201.679,240.043Zm95.245,0c-0.7.427-1.884,0.252-2.738,0.607a12.229,12.229,0,0,0-6.695,7.593c-2.064,7.314,5.273,16.255,13.085,14.273C313.827,259.153,313.238,239.847,296.924,240.043Z"/>
</svg>
