<svg xmlns="http://www.w3.org/2000/svg" width="500" height="500" viewBox="0 0 500 500">
  <defs>
    <style>
      .cls-1 {
        fill: #bde7e8;
      }

      .cls-2 {
        fill: #358385;
        fill-rule: evenodd;
      }
    </style>
  </defs>
  <circle class="cls-1" cx="249.5" cy="249.5" r="149.5"/>
  <path id="Color_Fill_1" data-name="Color Fill 1" class="cls-2" d="M319.291,186.479c-4.32-.271-6.191-3.2-10.593-3.425a114.893,114.893,0,0,1-5.3,11.521c-0.33.571-1.272,1.159-1.558,1.868-4,9.939-8.757,19.158-13.4,28.335-4.443,8.789-7.721,17.421-11.84,26.468-1.922,4.221-4.762,8.622-6.854,12.766-0.943,1.867-.967,3.317-1.87,5.293-0.763,1.673-2.421,3.273-3.115,4.982-3.156,7.77-6.768,14.61-10.282,21.8-0.948,1.939-1.947,6.36-4.05,6.85-7.169-11.47-16.092-21.962-23.679-33.006-1.437-2.091-4.576-8.7-7.166-9.03-3.61,7.484-9.188,14.654-13.709,21.485-1.219,1.842-1.674,3.674-2.805,5.605-0.857,1.465-2.487,2.939-3.427,4.359-1.218,1.842-1.673,3.674-2.8,5.605-0.857,1.465-2.488,2.938-3.427,4.359-0.79,1.2-.813,2.451-1.558,3.737-0.467.805-1.664,1.709-2.181,2.491-3.375,5.106-5.925,10.247-9.035,15.569-3.785,6.476-9.365,12.525-12.463,19.617a1.07,1.07,0,0,1-.623-0.312,2.468,2.468,0,0,1-.935-0.623c0.624-3.28,2.687-5.812,4.051-8.407,3.073-5.848,5.756-11.78,8.723-17.437,9.322-17.77,17.594-35.971,26.8-53.557,3.064-5.855,5.764-11.776,8.724-17.437,1.246-2.382,1.419-5.869,4.674-6.227,2.083,2.852,5.3,4.986,7.789,7.473,4.673,4.67,9.035,9.652,13.709,14.323,2.07,2.069,4.3,6.448,7.789,6.85,9.751-22.4,19.461-44.573,29.6-66.946,0.974-2.149,2.9-4.7,3.739-6.85,0.469-1.2.1-1.944,0.623-3.114,0.8-1.772,2.375-3.715,3.115-5.605v-1.245c1.346-3,4.044-6.14,4.362-9.964-1.741-.742-8.92-3.131-9.658-4.36,2-1.285,3.672-3.345,5.608-4.67,5.983-4.1,11.879-7.633,17.759-11.833,3.44-2.456,7.139-6.567,11.528-7.784a41,41,0,0,0,1.247,8.1v6.227C318.521,167.364,319.206,178.339,319.291,186.479Zm-11.84,90.3H333V354H307.451V276.778Zm-36.764,18.683h25.548V354H270.687V295.461Zm-11.217,18.06V354H233.3V327.844c0-4.425-.436-9.806.311-13.7l0.935-.312c1.364-.852,5.182-0.311,7.166-0.311H259.47ZM166,345.281a3.947,3.947,0,0,1,1.246.312c-0.1.207-.207,0.415-0.311,0.623-0.623.008-.088,0.318-0.623,0A1.585,1.585,0,0,1,166,345.281Z"/>
</svg>
