<svg xmlns="http://www.w3.org/2000/svg" width="500" height="500" viewBox="0 0 500 500">
  <defs>
    <style>
      .cls-1 {
        fill: #760474;
      }

      .cls-2 {
        fill: #ffcbfe;
        fill-rule: evenodd;
      }
    </style>
  </defs>
  <circle class="cls-1" cx="249.5" cy="249.5" r="149.5"/>
  <path id="Color_Fill_1" data-name="Color Fill 1" class="cls-2" d="M370.149,189.332h18.068c2.133,4.871,5.164,10.674,5.782,16.538H350.274l-10.48-10.786c-1.446-1.452-3.609-2.541-3.975-5.033,2.052-2.16,1.563-7.167.362-9.707-2.615-5.527-10.251-10.18-17.346-5.393-7.261,4.9-6.456,16.961,1.446,20.493,3.512,1.57,8.657-.2,10.118.359,2.356,0.833,3.11,3.092,4.7,4.674,4.211,4.2,8.832,7.993,13.009,12.224,3.87-1.282,10.588-.36,15.177-0.36,9.793,0,24.087-1.334,32.884.36,0.4,3.289,3.922,14.291,2.891,16.538-1.631,1.029-6.306.359-8.673,0.359h-20.6c-2.214,0-6.443.59-7.95-.359-1.687-.752-2.4-2.381-3.613-3.595l-9.034-8.629-2.168-2.517h-34.33c-1.757-4.738-4.574-7.723-9.757-8.988-7.986-1.948-17.577,9.541-12.647,16.179,1.728,5.4,10.443,9.764,16.984,5.752,1.788-1.1,4.365-5.773,5.059-6.112h31.438c2.193,3.309,7.844,7.445,10.841,10.426l3.975,4.315h41.557q0.361,5.212.722,10.426c-4.6,1.507-14.652.359-20.236,0.359H336.542c-1.822-4.854-6.785-9.577-12.286-8.269-1.873.446-3.27,0.231-4.7,1.079-3.351,1.989-8.095,8.3-5.42,14.74,1.556,3.751,6.666,9.268,13.37,7.55,2.468-.632,5.535-2.141,6.866-3.954,0.671-.914,1.229-3.778,2.168-4.315h64.322c-0.035,2.482.136,8.33-1.084,10.067-1.711,1.058-9.867.359-12.647,0.359H354.249c-2.657,4.043-7.281,6.849-10.48,10.426-1.028,1.151-2.229,3.676-3.613,4.315H307.272c-1.3-2.921-3.235-5.58-6.143-6.831-9.259-3.981-19.863,6.184-15.539,15.819,2.542,5.663,11.625,9.3,18.068,4.674a16.375,16.375,0,0,0,3.975-5.034q0.182-.9.361-1.8h34.33v-0.36c2.633-.952,10.242-9.477,12.648-11.864l2.168-2.517H398.7a1.023,1.023,0,0,0,.362.36c-0.929,5.269-1.718,10.956-2.891,15.819-3.593,1.179-9.8.359-14.093,0.359H352.081c-2.813,4.3-7.718,7.433-11.2,11.145-1.784,1.9-3.155,5.146-6.143,5.753-2.121-2.013-8.113-1.482-10.479,0-5.477,3.428-7.99,13.586-2.53,19.054,6,6.01,16.691,2.431,19.514-3.954,1.737-3.93-.312-7.38-0.723-10.786,3.063-2,5.356-5.382,7.95-7.909,2.317-2.258,5.011-4.118,7.227-6.472h26.018c3.778,0,9.177-.665,12.287.36-1.43,3.819-2.917,7.91-4.337,11.5-0.469,1.188-.792,3.775-1.807,4.315H370.149c-1.123-4.807-7.939-7.077-12.648-3.955-2.994,1.985-3.588,5.74-2.891,10.426,1.791,1.458,5.818,7.344,10.48,4.314a8.807,8.807,0,0,0,4.336-2.876l0.723-2.157h15.177V316.6c-2.118,2.6-2.9,6.052-4.7,8.988-3.185,5.21-6.542,10.515-10.118,15.46-14.616,20.211-40.974,39.894-66.129,49.614-9.744,3.765-20.1,5.586-31.077,8.269l-8.673.719c-11.454,2.487-30.934,1.254-41.195-1.438-7.329-1.923-13.98-2.23-20.6-4.674-24.805-9.161-50.872-23.622-65.406-42.783-1.73-2.28-4.424-4.163-6.144-6.471-4.337-5.822-7.992-11.648-11.925-17.976-1.769-2.847-4.8-6.359-5.42-10.067H129.12c0.99,4.207,7.519,7.5,12.287,4.314,3.456-2.312,5.019-9.044,1.806-12.943-0.747-.906-2.374-1.357-3.252-2.157-6.06-.553-9.165.655-11.2,5.034-3.445-.619-16.047.449-17.707-0.36-2.014-1.773-5.829-12.3-6.143-15.819H133.1c2.847,0,8.811-.9,10.841.36,2.826,0.972,9.162,8.754,11.564,11.145,1.361,1.355,2.966,1.826,3.252,4.314-2.347,2.369-1.375,7.579,0,10.067,3.52,6.371,11.721,8.82,18.429,3.6,3.682-2.868,4.915-11.271,1.807-15.819-3.232-4.73-9.2-5.253-15.177-3.595-1.155-1.735-2.928-2.514-4.336-3.955-4.208-4.307-8.524-8.58-12.648-12.943H103.1v-0.359h-0.361c-0.606-5.375-2.707-10.022-2.891-16.179h42.279c2.653,4.025,7.252,7.251,10.841,10.426,1.2,1.061,2.54,3.676,3.975,4.315h34.691c0.313,2.606,1.655,3.472,2.891,5.033,6.2,7.833,16.64,3.384,19.513-4.314,0.417-1.116,1.3-3.694.723-5.753-1.814-6.491-10.8-12.666-18.429-7.55-1.3.872-3.994,5.564-4.337,5.753H159.475c-3.723-5.6-10.326-9.1-14.094-14.741H98.766a90.287,90.287,0,0,1-.723-10.066c4.6-1.508,14.653-.36,20.236-0.36h44.448c1.409,3.649,3.877,6.653,7.588,7.91,8.687,2.941,18.5-6.331,15.178-15.1-1.75-4.615-7.4-9.915-14.455-7.91a13.749,13.749,0,0,0-6.866,4.674q-0.721,1.8-1.445,3.595H98.4a17.66,17.66,0,0,1-.361-5.033c0.671-1.04.651-4.406,0.723-5.752h41.918c3.547-5.338,10.351-10.022,14.816-14.741h31.438c1.981,3.564,4.614,6.454,9.034,7.55,9.9,2.454,17.49-10.054,12.286-17.976-3.334-5.076-11.934-7.062-17.706-2.876-1.413,1.024-3.638,6.282-3.975,6.471H152.609v0.36c-2.027.725-2.935,2.933-4.337,4.314-3.355,3.308-7.868,6.476-10.479,10.426h-38.3c-0.076-3.656,2.126-15.8,3.974-16.9,1.779-1.1,10.478-.36,13.371-0.36h35.052c3.026-4.617,8.387-8.344,12.286-12.223,1.572-1.564,2.876-4.155,5.421-4.674,2.222,2.036,7.3.785,9.4-.36,6.239-3.406,9.726-12.68,3.252-18.695-6.96-6.466-17.562-2.477-19.874,5.393-1.069,3.637.575,6.7,1.445,9.348l-12.286,11.864L149,205.87H104.909c0.252-4.554,2.8-9,4.336-12.583,0.424-.987.6-3.48,1.446-3.955H129.12c1.187,2.514,2.907,3.238,4.7,5.033a22.261,22.261,0,0,0,7.589-.719c0.953-1.366,2.592-2.348,3.252-3.954,2.655-6.464-2.725-9.042-5.421-11.5-4.173-.166-6.787.311-9.034,2.876q-0.721,1.258-1.445,2.517H117.918c-0.51-.249-2.488-0.04-3.975,0,0.641-4.491,5.385-10.2,7.589-13.662,6.9-10.858,14.089-20.449,23.488-28.762,4.091-3.618,7.829-7.885,12.286-11.145,17.658-12.916,35.81-20.907,59.987-27.683,14.8-4.147,43.269-4.535,58.54-.719,6.207,1.551,11.587,1.707,17.346,3.595,27.654,9.065,54.309,24.456,70.1,45.3,1.168,1.541,3.172,2.751,4.336,4.314,4.36,5.854,7.993,11.586,11.925,17.976,1.988,3.231,4.693,6.746,5.782,10.786H370.51c-3.374-8.8-14.984-6.475-16.623,2.516C352.241,195.131,368.776,197.913,370.149,189.332ZM172.484,178.546c3.474-.093,6.04,1.084,6.866,3.6,1.335,1.619.458,4.344,0,6.111-0.983.65-1.281,1.358-2.53,1.8-3.809,3.094-7.135-1.171-9.034-3.236C167.647,181.033,169.409,180.912,172.484,178.546Zm151.772,0c2.3,0.006,3.365.619,5.059,1.079,1.324,2.038,2.5,2.93,2.529,6.471a4.211,4.211,0,0,0-.722,1.8,28.109,28.109,0,0,0-3.614,2.876c-6.782.267-8.534-2.728-7.589-8.988,0.752-.563,1.067-1.649,1.807-2.157C322.516,179.083,323.555,179.114,324.256,178.546Zm-188.993,3.6a9.741,9.741,0,0,1,4.337.719c1.513,2.337,2.351,6.072-1.084,7.19-1.38,1.113-2.725.417-4.337,0a6.512,6.512,0,0,1-1.084-1.8c-1.173-1.426-.428-3.039,0-4.673A10.633,10.633,0,0,0,135.263,182.142Zm225.852,0a12.835,12.835,0,0,1,4.336.719,6.458,6.458,0,0,1,1.084,1.8c1.935,2.648-.912,5.633-3.252,5.753a2.448,2.448,0,0,1-1.446.359c-1.61-1.262-3.006-1.223-3.252-3.955-0.509-.9.065-1.73,0.361-2.876ZM300.767,210.9c2.506,0.751,4.6.8,5.421,3.236,0.994,1.047,1.122,2.555,1.084,4.674-2.206,2.42-2.409,4.672-7.228,4.673-0.706-.555-1.734-0.542-2.529-1.078-1.09-.736-1.62-2.3-2.53-3.236a18.487,18.487,0,0,1,.723-5.393,21.506,21.506,0,0,0,3.252-2.516A3.042,3.042,0,0,0,300.767,210.9Zm-104.795.36c4.008-.167,6.65.405,7.589,3.235,0.81,1.011.772,2.774,0.723,4.674-1.245,1.326-1.667,2.922-3.614,3.595-2.731,2.28-7.24-.628-7.95-2.876-1.115-1.374-.556-3.473-0.361-5.393A34.6,34.6,0,0,0,195.972,211.263Zm-23.85,32.716c5.879-.2,8.129,2.128,7.95,7.91-1.276,1.367-1.566,2.926-3.613,3.595-1.582,1.293-4.041.449-5.782,0-1.689-2.359-2.942-2.705-2.891-7.191C169.245,246.8,170.621,245.431,172.122,243.979Zm151.411,0,4.7,0.36c3.082,3.8,3.751,4,2.168,9.707-3.83,2.2-4.2,2.4-9.034,1.078-1.314-2.012-2.191-2.835-2.168-6.471a6.578,6.578,0,0,0,1.084-2.517A19.519,19.519,0,0,0,323.533,243.979Zm-122.5,33.076a17.679,17.679,0,0,1,5.421.719c1.46,2.172,2.552,2.868,2.529,6.831-2.407,2.641-2.53,4.406-7.95,4.314-1.5-1.32-6.595-4.017-3.975-7.909C197.785,278.668,199.369,278.4,201.031,277.055Zm93.232,0a19.546,19.546,0,0,1,5.781.719c1.4,2.076,2.534,2.723,2.53,6.472a6.58,6.58,0,0,0-1.084,2.516c-2.1,1.344-3.091,2.185-6.866,2.157-2.681-2.415-4.436-2.448-4.336-7.909C291.627,279.639,292.885,278.388,294.263,277.055ZM167.786,308.693c4.262,0.753,3.936.916,7.227,3.236q0.181,2.336.362,4.673c-1.241,1.283-2.394,2.678-3.614,3.955a16.04,16.04,0,0,1-5.782-.359c-0.776-1.049-1.68-1.473-2.168-2.877-1.573-1.906-.172-4.646.361-6.471A14.041,14.041,0,0,0,167.786,308.693Zm161.529,0c2.1,0.052,3.013.661,4.7,1.079,1.276,1.914,2.459,2.792,2.529,6.111-1.162,1.517-1.223,3.248-3.252,3.955a5.227,5.227,0,0,1-5.782.36c-1.829-.623-2.09-2.015-3.252-3.236-0.164-1.749-.594-3.035.361-4.314,0.579-2.147,1.9-2.324,3.252-3.6A2.353,2.353,0,0,0,329.315,308.693Zm-193.329.36,2.891,0.359,2.168,2.517c0.075,3.509-.923,3.76-2.529,5.392a10.813,10.813,0,0,1-4.7-.719,6.717,6.717,0,0,1-1.446-4.314c1.149-1.423,1.166-2.64,3.614-2.876v-0.359Zm225.851,0,2.891,0.359a18.431,18.431,0,0,0,2.168,2.517c0.4,7.294-8.805,7.552-8.311-.36a1.289,1.289,0,0,0,.361-0.719A24.549,24.549,0,0,0,361.837,309.053Z"/>
</svg>
