<svg xmlns="http://www.w3.org/2000/svg" width="500" height="500" viewBox="0 0 500 500">
  <defs>
    <style>
      .cls-1 {
        fill: #c7cee9;
      }

      .cls-2 {
        fill: #085880;
        fill-rule: evenodd;
      }
    </style>
  </defs>
  <circle class="cls-1" cx="249.5" cy="249.5" r="149.5"/>
  <path id="Color_Fill_1" data-name="Color Fill 1" class="cls-2" d="M285.453,144.84a28.551,28.551,0,0,1,9.236,1.887c0.922,0.4,2.175,1.54,3.26,1.078,1.448-.516,1.528-1.7,2.445-2.695,1.369-1.484,3.219-2.584,4.619-4.043l3.26,0.269c1.266,1.683,3.774,1.905,4.075,4.582,1.066,1.824-3.474,7.407-3.8,9.7,1.6,1.23,4.894,5.752,5.976,7.547,0.516,0.856.462,2.282,1.359,2.695H318.6c1-.747,5.48-1.848,7.064-0.809,2.938,0.99,2.808,5.434,2.716,9.434-1.677.075-8.542,2.714-8.965,3.774-0.633,1,.061,2.923-0.271,4.312-0.55,2.3-1.244,6.372-.815,8.625a32.73,32.73,0,0,1,7.878,5.391c0.134,3.533-.738,6.981-3.26,7.817-2.463,1.559-7.8-2.6-9.78-1.887-2.2.366-2.328,2.2-3.532,3.5-1.792,1.946-5.417,3.444-5.7,6.738a14.21,14.21,0,0,1,1.9,9.164c-1.364.921-5.222,3.993-7.335,2.965-2.221-.75-5.2-6.335-6.52-8.355a65.632,65.632,0,0,1-13.04,1.078c-0.084,2.139-2.894,9.206-4.347,9.7-2.407.824-5.418-.883-7.063-1.348a6.764,6.764,0,0,0-1.087-1.347c0.011-3.725.811-7.405,0.272-10.243-2.233-1.393-5.112-2.813-7.064-4.582-1.307-1.184-1.354-2.515-3.8-2.695-1.156,1.438-6.383,3.979-8.965,4.043-1.506-1.5-3.782-2.731-4.075-5.391a2.227,2.227,0,0,1,0-2.156c1.218-3.5,6.348-3.795,6.52-8.086-1.692-1.857-2.969-7.782-2.989-11.321-2.35-.094-9.922-1.556-10.595-3.234-0.939-1.424-.146-5.43,0-7.008l1.9-1.617c3.822,0.022,6.1-.516,9.78-0.539,0.2-3.212,2.095-6.789,3.532-9.164,0.637-1.054,1.4-.961,1.63-2.7-1.343-1.255-5.2-5.567-5.434-7.547-0.507-.764-0.107-1.684,0-2.695,1.754-1.207,2.56-3.744,5.162-4.043,2.5-1.245,6.664,4.844,8.694,5.391,1.1,0.3,7.681-3.742,9.236-4.313,1.177-.432,2.776-0.321,3.26-1.348v-9.164h0.272c0.322-1.036.6-1.252,1.9-1.347,1.885-1.328,6.494-1.132,7.606.539C284.311,136.774,285.386,142.574,285.453,144.84Zm-7.064,9.165c-1,.669-2.5.35-3.8,0.808a31.6,31.6,0,0,0-5.977,2.426,32.015,32.015,0,0,0-12.768,16.711,21.655,21.655,0,0,0-.272,9.7c0.623,2.537.033,4.36,0.815,6.469,3.415,9.2,10.355,14.794,19.832,18.059,1.543,0.532,8.877.758,10.867,0.27,15.081-3.7,28.192-17.822,21.19-37.735-2.591-7.369-11.926-14.738-20.1-16.711h-9.78Zm-30.97,73.852v9.164c-0.262,1.069-1.19,2.878-.815,3.774,0.439,1.164,6.947,5.1,8.422,6.469,0.1,3.778-2.021,7.855-5.434,8.086-0.9-.659-7.488-2.715-8.15-2.426-1.855.592-9.045,7.8-9.236,9.973,1.169,1.639,2.517,6.179,2.716,8.625-1.408,1.37-2.981,3.233-5.433,3.5-0.789.54-2.421,0.191-3.26,0-0.786-1.306-2.247-2.293-2.988-3.5-0.717-1.171-1.229-3.757-2.445-4.313h-3.26c-1.871,1.3-7.316.355-9.78,0.809-0.731,1.7-3.089,8.867-4.347,9.434h-4.347c-1.486-.992-3.425-0.85-4.075-2.7-1.489-2.311.9-8.008,0.543-10.242a29.766,29.766,0,0,1-8.15-5.66c-0.577-.565-2.087-1.745-2.716-1.348-1.622.781-7.478,4.674-8.965,4.043-2.617-.691-4.87-3.953-4.89-7.277,0.563-.533.813-1.336,1.358-1.887,1.659-1.677,4.863-3.326,5.705-5.66-1.557-2.182-3.2-8.921-3.26-12.4-3.927.075-6.554-1.147-9.78-1.887-0.091-.269-0.181-0.539-0.272-0.808-1.338-1.912-.037-8.356,1.359-8.9,1.429-.883,7.811-0.179,9.78-0.539,0.976-2.268,1.382-4.423,2.445-6.738,0.834-1.819,2.44-2.856,2.716-5.391-1.736-1.314-5.622-6.334-5.705-9.164,0.739-.706,1.178-1.706,1.9-2.426,0.9-.9,2.1-1.512,2.988-2.426a5.757,5.757,0,0,1,2.717.27c0.959,0.3,6.224,4.291,7.063,5.121,4.279-1.072,6.672-4.626,11.954-4.852-0.141-4.131-1.042-11.214,2.717-11.59,1.282-.842,5.676-0.3,7.063,0,0.839,1.95,1.6,9.577,3.26,10.242,1.545,1,6.437,1.226,8.422,2.157a5.281,5.281,0,0,0,2.988.539c1.5-.486,6.338-5.412,7.607-6.739l2.716,0.27c1.691,2.243,4.617,2.122,4.619,6.2-0.849.7-4.1,7.409-3.8,8.086,0.765,2.439,3.536,4.412,4.89,6.469,0.917,1.392.713,2.9,2.445,3.5,2.124,1.276,7.069-1.644,9.781,0a2.414,2.414,0,0,1,1.9,2.426c0.88,1.313.867,4.385,0.544,5.93C254.348,225.633,251.084,227.549,247.419,227.857Zm-38.577-23.719c-1.458.975-6.46,0.923-8.421,1.887a30.675,30.675,0,0,0-15.757,16.981c-0.819,2.258-.814,4.689-0.815,7.547,0,15.084,7.317,22.138,17.93,26.683,2.638,1.13,8.234,2.934,12.5,1.887,11.389-2.8,18.018-7.992,22.548-17.52,2.083-4.38,1.719-13.387.272-18.058C233.51,211.967,224.344,204.031,208.842,204.138Zm84.217,28.571,7.064,0.808c1.758,0.74,3.732,1.973,5.977,2.157,2.025-2.756,4.7-4.862,7.063-7.278l2.173,0.27c0.884,1.289,2.409,1.657,3.532,2.695,0.55,0.509.811,1.366,1.358,1.887-0.048,4.61-3.6,6.289-4.075,10.242,2.427,1.828,6.188,9.287,7.879,9.973,1.758,0.923,8.555-2.855,10.866.27,1.236,1.669,1.12,4.63,1.087,7.547-2.558,1.577-5.439,3.457-9.237,3.773v8.086c-0.418,1.708-1.116,3.582-.815,5.391,2.192,1.308,8.184,4.665,8.422,7.547-1.791,2.575-1.613,6.422-5.977,6.469a17.788,17.788,0,0,0-8.15-2.426c-2.191,3.459-5.719,6.174-8.693,8.894,0.092,4.13,2.73,6.275,1.9,10.782-2.379,1.565-3.617,2.712-7.879,2.695-0.9-1.442-4.626-7.286-5.977-7.816-1.347-.82-3.669.509-4.89,0.808h-8.15c-0.087,2.156-2.821,8.912-4.346,9.434-2.5,1.667-7.117-1.946-8.15-2.965a37.9,37.9,0,0,1,1.086-9.7c-1.115-.673-2.629-1.111-3.8-1.887-2.139-1.414-4.9-5.165-7.878-5.391-1.133,1.318-6.557,3.979-8.965,4.043-1.506-1.5-3.782-2.731-4.076-5.39a2.232,2.232,0,0,1,0-2.157c0.911-2.758,4.275-4.136,5.977-6.2,0.3-.367.256-1.01,0.544-1.348-0.916-3.885-2.354-7.54-3.26-11.859-1.656-.684-3.7-0.521-5.706-1.078-1.232-.343-2.336-1.019-3.8-1.348a6.735,6.735,0,0,0-1.087-1.348c-0.221-9.393,2.938-8.834,11.954-8.625,0.3-5.126,4.641-8.084,5.162-12.4-1.279-.961-5.279-5.972-5.7-7.547q0.135-1.079.271-2.157c1.754-1.207,2.56-3.743,5.162-4.043,2.559-1.552,6.936,5,9.78,5.391,1.988-2.037,7.793-4.827,11.41-5.121-0.038-2.024-.5-8.5.272-9.7a2.425,2.425,0,0,1,2.445-1.887c1.661-1.146,6.362-.2,7.063.809C292.011,224.619,292.984,230.162,293.059,232.709Zm-5.976,8.625c-2.254,1.525-5.984,1.177-8.422,2.426-7.215,3.7-12.391,10-15.213,18.059-0.617,1.759-.842,10.714-0.272,12.937,2.623,10.24,9.418,16.769,19.017,20.215,2.659,0.955,8.318,2.4,12.5,1.348,8.438-2.117,17.414-7.723,20.376-15.094a59.259,59.259,0,0,0,2.445-8.086c1.03-4.248-.722-13-1.9-15.363-0.5-1-1.64-2.056-2.173-2.965C308.455,246.316,300.719,241.251,287.083,241.334Zm-65.744,41.508a25.372,25.372,0,0,1,9.237,1.348c0.993,0.355,2.34,1.439,3.26,1.078,1.5-.486,6.338-5.411,7.606-6.738l2.717,0.269c0.985,1.438,3.066,2.829,4.347,4.043,0.072,3.121-2.378,8.139-4.075,9.434,1,2.451,3.112,3.634,4.346,5.66,1.278,2.1,1.941,3.725,3.532,5.391,3.612-.016,6.789-0.942,10.324-0.27a11.812,11.812,0,0,1,1.9,8.356c-1.324.777-8.82,3.658-9.236,4.313-0.613.964-.269,3.415-0.272,4.851-0.007,3.194-1.282,5.541-.815,8.086,2.4,1.137,8.383,4.293,8.422,7.547-0.559.8-.317,1.714-0.815,2.7-0.749,1.474-2.4,2.626-3.532,3.773-1.994-.412-8.1-2.931-9.237-2.426-1.855.593-9.046,7.8-9.237,9.973a14.108,14.108,0,0,1,1.9,9.7c-2.139,1.334-3.806,2.663-7.335,2.7a36.92,36.92,0,0,1-4.618-5.391c-0.494-.819-0.546-2.543-1.359-2.965h-1.63c-2.321,1.616-8.217.484-11.41,1.078-1.123,2.466-2.26,8.253-4.89,9.164-2.486,1.685-7.147-1.451-8.15-2.425v-5.93c0.388-1.539,1.115-2.514.815-4.313a41.628,41.628,0,0,1-4.075-1.886c-2.326-1.389-3.863-4.994-7.063-5.391-0.8,1.035-7.542,4.811-8.694,4.312-2.536-.789-4.868-3.919-4.89-7.277,2.476-2.382,4.578-5.176,7.064-7.547-0.474-2.083-1.722-4.421-2.445-6.469q-0.271-2.7-.544-5.391c-2.786-1.134-8.933-1.162-10.595-3.5-1.5-1.874.058-5.651,0.272-7.816a6.735,6.735,0,0,0,1.358-1.078c3.172,0.029,7.058.262,9.78-.27,0.837-1.975.918-4.259,1.9-6.2,0.945-1.863,2.969-3.4,3.26-5.93-1.157-.868-5.33-6.161-5.705-7.547q0.137-1.077.272-2.156c1.421-1,4.238-5.444,6.248-4.582,2.2,0.664,6.638,4.063,8.15,5.66,4.18-1.069,6.563-4.624,11.954-4.852-0.038-2.023-.5-8.5.271-9.7,0.39-1.215,1.131-1.383,1.9-2.156a42.847,42.847,0,0,1,7.607.269A31.1,31.1,0,0,1,221.339,282.842Zm-7.063,8.625c-1,.671-2.507.34-3.8,0.809a36.283,36.283,0,0,0-3.8,2.156c-1.065.55-1.939,0.5-2.988,1.078-5.088,2.782-9.859,10.457-11.954,16.442-0.572,1.635-.864,10.884-0.272,12.938,0.223,0.771,1.072,1.926,1.359,2.695,3.544,9.489,9.164,14.836,19.288,17.789,2.087,0.609,9.629,1.259,12.5.54,9.622-2.415,15.941-8.817,19.832-16.981l0.543-2.965c0.731-2.07,1.634-9.177.815-12.4a56.146,56.146,0,0,0-2.445-7.008c-0.994-2.448-3.129-4.449-4.89-6.2C231.819,293.77,227.714,291.382,214.276,291.467Z"/>
</svg>
