<svg xmlns="http://www.w3.org/2000/svg" width="500" height="500" viewBox="0 0 500 500">
  <defs>
    <style>
      .cls-1 {
        fill: #fed2d2;
      }

      .cls-2 {
        fill: #ff0f0f;
        fill-rule: evenodd;
      }
    </style>
  </defs>
  <circle class="cls-1" cx="249.5" cy="249.5" r="149.5"/>
  <path id="Color_Fill_1" data-name="Color Fill 1" class="cls-2" d="M247.23,153h3.324c0.059,6.133.476,13.634-.554,18.859a14.231,14.231,0,0,1-2.77,1.11V153Zm-43.208,8.875,3.323,0.555c2.811,4.486,8.015,9.592,8.31,16.086a8.689,8.689,0,0,1-2.77.554C209.751,173.868,205.5,168.337,204.022,161.875Zm84.2,1.664h2.216a11.96,11.96,0,0,1,.554,3.883c-3.683,3.251-4.448,10.973-9.417,12.758a3.731,3.731,0,0,1-2.216.554v-1.109C282.883,174.689,285.047,168.6,288.223,163.539Zm-12.741,70.445c-0.517-5.327-3.542-10.314,2.216-12.757a3.726,3.726,0,0,1,2.216-.555c3.252,3.972,6.27,5.674,13.849,5.547v-3.328c-2.145.081-5.382,0.3-6.648-.555-2.945-.938-3.638-3.1-5.539-4.992,0.033-4.52,1.679-6.893,2.769-9.985q0.555-4.437,1.108-8.875l2.77-.554c2.481,3.58,7.694,5.226,8.309,10.539a1.994,1.994,0,0,1,.554,1.109c-4.578-.224-8.216.14-9.417,3.328a2,2,0,0,0-.554,1.11h2.216c1.263-1.006,5-1.709,6.647-.555,2.5,0.8,2.844,2.309,4.432,3.883,0.152,4.527,2.423,9.056,1.108,14.422-0.5,2.035-1.441,3.948-1.662,6.656a41.049,41.049,0,0,0-6.093,5.547c-5.252.155-9.463-1.245-9.418-6.656,1.086-1.654.626-6.257,0.554-8.875h-3.323c0.085,2.373.412,6.316-.554,7.765-0.8,2.5-2.306,2.847-3.878,4.438-7.536-.227-10.038-7.233-19.943-4.438-6.474,1.828-12.845,5.647-22.158,3.883-0.855-1.99-1.172-5.762-1.662-8.32h-2.216v1.109c-0.876,1.209-.86,5.447,0,6.656,0.8,2.5,2.306,2.847,3.878,4.438,14.427,0.158,19.91-5.607,31.022-4.992,1.23,1.563,2.549,1.716,3.323,3.882-5.326.013-10.342-.268-14.4,1.11-3.431,1.164-6.666,4.494-9.972,5.547-3.781,1.2-13.642.567-16.618-.555-3.591-1.354-4.788-4.7-7.2-7.211a35.667,35.667,0,0,1,0-5.547c6.75-4.965,7.159-13.285,19.389-13.312-0.1,4.481-.1,9.226,1.108,12.2a7.815,7.815,0,0,0,2.215.554,11.9,11.9,0,0,0,.554-3.882c-1.407-2.1-.244-6.471,0-8.875,1.946-1.358,2.748-3.456,4.432-4.993,4.539-4.14,13.293-4.361,20.5-2.773v-2.219c-1.22-.946-1.378-1.343-1.661-3.328,2.134-1.475,8.328-11.351,2.215-12.2-0.977,5.678-3.413,12.213-9.417,12.758-1.452.925-10.269,3.449-12.187,3.883V202.922c1.121-1.63.624-3.567,1.662-5.547,2.127-4.057,7.968-7.4,13.849-7.766v-2.218c-11.253-.162-16.658,6.826-18.835,15.531-1.371,5.483,1.18,10.463.554,14.422-6.631,4.112-18.555,4.449-29.359,4.437v1.11c1,0.868.71,1.09,2.215,1.664,1.281,0.854,4.49.621,6.648,0.554a2.679,2.679,0,0,1-.554,1.664c-1.187,2.829-4.089,5.095-6.094,7.211-3.254.055-7.5,0.533-9.971-.554-10.667-4.693-12.706-23.793-6.093-34.946,7.661-12.921,32.46-23.281,54.841-17.75,5.622,1.39,9.743.649,14.4,2.774,4.25,1.938,6.826,6.318,9.972,9.43,0.159,13.076-1.941,21.929-8.31,28.289-2.5,2.5-5.954,2.154-7.2,6.1C272.833,227.633,270.136,233.055,275.482,233.984ZM194.05,204.031c-4.121-.225-16.827-7.433-17.172-11.093a11.866,11.866,0,0,1,3.877-.555c3.056,4.087,10.886,4.273,12.741,9.43A3.734,3.734,0,0,1,194.05,204.031Zm23.267-3.328a59.58,59.58,0,0,0-8.31.555c-2.8,3.484-5.979,4-6.093,10.539h1.108c4.555-7.667,5.244-6.525,15.51-8.32q0.278-.833.554-1.664c1.379-2.081.761-7.538,0.554-9.43h-2.216q-0.276.831-.553,1.664C217.017,195.329,217.25,198.543,217.317,200.7Zm84.2,4.438v-2.219c5.09-3.2,10.069-8.585,17.727-8.875v1.109h-0.554C317.344,199.009,306.7,204.788,301.518,205.141ZM191.835,229.547v3.328c-6.125.059-13.617,0.476-18.835-.555V230.1h1.108C177.3,228.057,187.334,229.472,191.835,229.547Zm115.223,0c6.125-.059,13.616-0.476,18.834.555A14.238,14.238,0,0,1,327,232.875H307.058v-3.328Zm-27.7,12.758c4.117,0.688,8.162,2.433,8.309,7.211-2.083,1.483-3.555,4.006-6.093,4.992-8.282,3.216-19.774,1.392-22.713-5.547a3.752,3.752,0,0,1-.554-2.219h1.108C264.745,243.624,275.311,247.065,279.36,242.305Zm-14.4,109.273q-0.278,1.664-.554,3.328l-1.662.555c-2.942,1.867-18.936.555-23.82,0.555-21.329,0-35.049-2.945-42.1-17.2-1.258-2.542-2.873-9.083-1.662-13.867,2.628-10.378,12.99-15.141,23.266-17.75h12.188c11.982-2.949,20.255-4.448,28.8-10.539,5.354-3.814,11.779-12.361,8.864-23.851-1.577-6.212-6.374-11.3-11.08-14.422-3.472-2.3-7.319-2.384-8.309-7.211l3.878-2.774c4.416,1.576,7.315,7.066,11.633,9.43,8.847,4.843,11.114,24.252,5.539,34.945-0.79,1.517-3.225,2.668-4.431,3.883-8.293,8.353-13.871,10.559-27.144,13.867h-7.755c-12.682,3.129-25.252,2.181-30.468,12.758-3.618,7.336,1.5,15.8,4.432,18.859C215.9,353.959,241.728,351.766,264.957,351.578Zm-62.043-99.844v2.219c-5.217,3.293-9.756,8.626-17.727,8.875v-1.109h0.554C187.007,258.1,198.028,252.068,202.914,251.734Zm98.6,4.438c7.74,0.063,13.588,5.953,17.727,9.984v1.11h-2.216C312.042,263.774,303.313,262.715,301.518,256.172Zm-5.54,85.422h2.216V366h-2.216V341.594Zm-7.755,1.109v22.188c-9.9.338-19.688-.39-20.5-8.875-3.407-4.877,3.275-12.469,7.2-12.758C277.343,341.694,284.671,342.63,288.223,342.7Zm2.216,0h3.324v22.188h-3.324V342.7Zm9.971,2.219H312.6v3.328H300.41v-3.328Zm0,13.312H312.6v3.329H300.41v-3.329Z"/>
</svg>
