<svg xmlns="http://www.w3.org/2000/svg" width="500" height="500" viewBox="0 0 500 500">
  <defs>
    <style>
      .cls-1 {
        fill: #ffd27f;
      }

      .cls-2 {
        fill: #230f05;
        fill-rule: evenodd;
      }
    </style>
  </defs>
  <circle class="cls-1" cx="249.5" cy="249.5" r="149.5"/>
  <path id="Color_Fill_1" data-name="Color Fill 1" class="cls-2" d="M279.289,212.025c-0.056,2.3,0,5.44.541,6.5,0.4,0.689.573,0.543,1.622,0.542,1.338-.938,4.609-1.227,6.49-1.355,0.1-.709-0.2-0.355.541-0.542a5,5,0,0,0,2.434.271v-0.271h0.27c-0.33-1.9.518-3.18,0.541-6.231h1.623a22.25,22.25,0,0,0,.27,4.335l0.811,0.271a4.275,4.275,0,0,0,2.164.271v1.625h50.838v2.709h1.623V210.4h2.163c-0.05,2.878-.283,6.621.541,8.67a4.954,4.954,0,0,0,1.622.271,1.815,1.815,0,0,1,1.082-.271c-0.1,1.5-.482,2.15-0.541,3.793h14.062c1.836-.608.935-1.094,3.245-0.542,1.78,0.424,5.361-.51,6.22,0,0.548,0.757.424,1.724,0.541,2.98a1.639,1.639,0,0,0-.541.542,15.6,15.6,0,0,0-6.22-.271c-0.258.065-1.478,0.841-1.622,0.812-0.227-.044-1.285-0.729-1.623-0.812-2.965-.729-12.351-0.009-14.6.542-2.237.547-4.192-.412-5.949-0.542a10.263,10.263,0,0,1,0,2.709H326.882a4.139,4.139,0,0,1-3.245,1.084,2.861,2.861,0,0,1-.27,1.625c-0.6,1.683-2.878,3.1-4.056,4.335h-1.082c-0.095,5.679,1.738,8.908,2.163,13.546l-3.785.812c-1.516,3.617-1.393,9.128-3.516,12.191-1.042,1.5-3.033,1.742-4.327,2.981-1.431,1.37-2.608,2.96-4.6,3.792-1.89.791-3.036-.441-4.326-0.812h-2.7a28.39,28.39,0,0,1-4.326-1.355c-4.242-1.918-8.334-5.569-12.98-6.773-0.012,2.589-1.1,3.426-1.623,5.418,7.559,0.416,6.38,11.8,4.868,18.423v7.044c-0.677,2.614-2.463,7.249-5.138,7.856a12.272,12.272,0,0,0-4.057-1.354c-1.833,2.816-1.476,3.1-.54,6.5l0.27,2.438c0.58,1.146,1.879,1.805,2.7,2.709,0.718,0.785.924,1.894,1.623,2.709a44.08,44.08,0,0,1,4.326,5.148,148.528,148.528,0,0,1,7.572,15.171c1.279,2.821,2.147,5.981,3.245,8.669,0.452,1.106.342,2.772,1.352,3.251h1.623c0.235,3.271,1.259,5.263,1.893,7.586,0.61,2.236-.386,8.751-0.812,10.566v4.063c-0.562,2.32-.824,6.494-1.622,9.753-0.661,2.7.651,5.553,1.082,7.586q-0.407,2.98-.812,5.96c-2.618,1.352-14.982.568-19.2,0.542A13.487,13.487,0,0,0,275.5,384.6c-0.711-2.348-.5-5.113-1.082-7.315-0.7-2.666.3-5.511,0-7.044-0.152-.779-0.885-1.9-0.541-3.251,0.467-1.829,1.642-1.93,2.164-3.251v-2.167c0.657-2.922,1.152-7.377-1.623-8.4-2.026-1.281-5.4.235-7.3-1.625-1.106-1.085-1.554-2.738-2.434-4.064-1.916-2.886-4.3-5.784-6.219-8.669-1.72-2.586-1.764-5.438-6.22-5.419l-2.163-.812a43.857,43.857,0,0,1-3.245-5.69H246.3c-0.464,2.433-1.415,4.874-2.975,6.231a8.709,8.709,0,0,0-2.434,2.439c-0.947,2.049-.965,3.89-1.892,5.96a47.66,47.66,0,0,0-2.975,7.044c-0.608,2.339.186,4.55-.811,6.5-0.725,1.417-2.877,2-3.786,3.251-1.072,1.468-1.308,3.484-2.434,4.876l-2.975,2.168c-0.308.451-2.327,5.055-2.433,5.418-0.544,1.846,1.048,4.631.27,7.044-1.167,3.619-4.792,8.525-5.138,11.92H196c0.219-3.615,2.749-5.764,4.056-8.4,1.4-2.829.86-7.694,2.164-10.566,0.795-1.752,2.343-3.478,3.245-5.148,0.382-.709.129-1.209,0.54-1.9,0.6-1.008,2.069-1.7,2.705-2.709,0.838-1.33.848-3,1.622-4.335,0.484-.834,1.581-1.637,1.893-2.709,1.205-4.143-1.012-7.779,0-11.92,0.766-3.134.749-6.821,1.623-10.3,0.375-1.494,1.755-4.386,1.081-6.5-0.185-.581-1.165-1.177-1.352-1.626q0.135-1.624.271-3.251c-0.3-1.061-.911-1.408-0.812-2.709a2.423,2.423,0,0,0,1.082-2.167,6.371,6.371,0,0,1-1.622-1.9c0.744-1.142.419-2.787,1.081-4.064,0.341-.659,1.021-0.712,1.352-1.626,0.8,0.1,1.6.568,2.164-.542-1.048-1.521-.088-4.258-0.541-6.5-0.868-4.3-2.438-11.909-1.082-17.338,1.97-1.029,2.719-2.147,5.949-2.168v-0.812a23.284,23.284,0,0,1-8.653-1.626c-1.255-2.8.425-7.355,1.082-10.024V263.5c0.51-2.073.5-5.961,0.811-8.4,0.72-.324,1.166-1.117,1.893-1.355h5.408a10.474,10.474,0,0,1,2.7-.542c-0.09-4.127-2.254-8.214-1.081-13,3.42-13.965,5.442-26.748,22.985-26.55a3.329,3.329,0,0,0,2.7,1.626,0.978,0.978,0,0,1,.541-0.271,6.28,6.28,0,0,0,.541-2.167c-2.858-2.51-1.012-11.062,0-13.817,0.517-1.408.389-2.585,1.082-3.793,2.8-4.891,11.923-11.6,20.822-8.4a22.759,22.759,0,0,1,4.867,2.98c1.826,1.208,5.437,1.6,6.22,3.793,0.569,0.894.169,2.711,0.541,3.792,0.541,1.572,2.743,8.743,1.082,11.379C284.355,210.763,281.86,212.016,279.289,212.025Zm23.8,23.841a22.226,22.226,0,0,0,4.326-.271c0.09-.271.181-0.542,0.271-0.813a5.029,5.029,0,0,0,.27-2.438,13.3,13.3,0,0,0-3.786-.271,0.974,0.974,0,0,1-.541.271l-0.27.812A6.742,6.742,0,0,0,303.086,235.866Z"/>
</svg>
