<svg xmlns="http://www.w3.org/2000/svg" width="500" height="500" viewBox="0 0 500 500">
  <defs>
    <style>
      .cls-1 {
        fill: #d6cfff;
      }

      .cls-2 {
        fill: #061151;
        fill-rule: evenodd;
      }
    </style>
  </defs>
  <circle class="cls-1" cx="249.5" cy="249.5" r="149.5"/>
  <path id="Color_Fill_1" data-name="Color Fill 1" class="cls-2" d="M224.885,306.859c13.018-.251,16.377.509,19.808,10.141H178.949v-0.845c0.557-.81.319-1.94,0.843-2.958,3.079-5.973,9.188-6.477,18.543-6.338V297.14c-3.691,1.11-15,0-21.493,0-19.535,0-39.573,3.847-43.829-11.831V213.054c0-14.3-.647-24.512,9.272-28.734,5.523-2.35,24.571-.845,32.45-0.845h75.858c12.465,0,28.359-1.74,35.4,3.8,5.543,4.364,4.636,14.531,4.636,24.508V264.6c0,7.032,1.469,17.741-.843,23.24-5.654,13.447-28.312,9.3-47.622,9.3-4.373,0-14.858-1.067-16.857.423C224.21,299.258,224.83,304.329,224.885,306.859Zm77.544-120.426H364.8c3.64,5.732,1.685,26.624,1.685,35.917v91.27a1.521,1.521,0,0,0-.421.845,6.344,6.344,0,0,1-1.686.845c-2.136,1.337-12.943.422-16.436,0.422H318.022c-5.2,0-11.517.457-16.015-.422a10.535,10.535,0,0,0-1.685-2.113V202.49c0-4.826-.364-10.653.421-14.789A7.642,7.642,0,0,0,302.429,186.433Zm16.436,7.183c-0.325.289-.941,0.555-1.265,0.846-0.793.861-.843,1.62-0.843,3.38a5.108,5.108,0,0,0,3.793,1.268,5.137,5.137,0,0,0,1.265-3.8A9.043,9.043,0,0,0,318.865,193.616Zm-9.272.423a5.14,5.14,0,0,0-1.264,3.8,5.1,5.1,0,0,0,3.793,1.268,5.142,5.142,0,0,0,1.264-3.8,1.522,1.522,0,0,1-.421-0.845A10.529,10.529,0,0,0,309.593,194.039Zm-167.308,2.535v69.72c30.738,0.87,65.2,0,97.35,0H267.45c4.167,0,10.084-.709,13.486.423V196.574H142.285Zm166.887,9.719a4.873,4.873,0,0,0-.843,2.958c3.194,1.64,10.146.845,14.75,0.845h34.136a4.882,4.882,0,0,0,.843-2.958,2.588,2.588,0,0,1-.843-0.845H309.172Zm-99.037,66.762c-6.064,4.454-8.181,3.815-5.478,13.522,7.7,5.365,9.225,4.33,15.171-1.691C220.547,277.539,218.094,272.87,210.135,273.055ZM332.35,287.844a2.145,2.145,0,0,1-1.264.423l-0.843,1.267c-0.755.941-.841,2.027-0.843,3.8,0.681,0.809.8,1.474,1.686,2.113,0.872,0.7,1.751.807,3.372,0.845,2.259-1.819,3.081-1.909,2.95-6.338a7.465,7.465,0,0,0-1.686-1.268C334.863,287.894,334.106,287.844,332.35,287.844Z"/>
</svg>
