<svg xmlns="http://www.w3.org/2000/svg" width="500" height="500" viewBox="0 0 500 500">
  <defs>
    <style>
      .cls-1 {
        fill: #c7cee9;
      }

      .cls-2 {
        fill: #084b6c;
        fill-rule: evenodd;
      }
    </style>
  </defs>
  <circle class="cls-1" cx="249.5" cy="249.5" r="149.5"/>
  <path id="Color_Fill_1" data-name="Color Fill 1" class="cls-2" d="M222.865,172H275.59c2.118,5.339,7.087,9.1,8.715,14.755H213.279v-0.868C215.638,184.213,221.953,174.986,222.865,172Zm16.994,2.6v9.548h19.173a51.738,51.738,0,0,0-.436-9.548H239.859Zm71.026,4.34h21.787a27.419,27.419,0,0,0,3.051,7.811H307.835v-0.868C309.245,184.4,310.315,181.114,310.885,178.944Zm-140.745,2.6h16.123v0.868a17.652,17.652,0,0,1,1.307,4.339h-18.3C169.367,184.177,170,184.122,170.14,181.548Zm187.806,52.078h-48.8c-1.227-4.072-5.114-6.848-7.843-9.548-9.779-9.674-30.83-19.2-48.368-10.416h-2.178c-0.489.212-1.693,1.5-2.179,1.736h-1.743c-4.124,2.429-9.431,6.056-12.636,9.548-1,1.09-5.587,8.394-6.1,8.68H141.381c-0.127-13.248-2.218-31.764,4.793-38.191,7.637-7,32.444-4.341,47.061-4.34h114.6c13.122,0,36.723-2.374,44.01,3.472C360.336,201.379,357.347,220.3,357.946,233.626Zm-94.557-6.076c5.693-.084,12.815-0.232,16.559,1.736,12.159,6.392,24.094,21.136,16.558,39.926-2.7,6.725-9.136,12.214-15.251,15.624-2.317,1.291-7.054,1.75-9.587,2.6-3.448,1.162-11.753-1.706-13.508-2.6-2.789-1.429-5.584-1.585-7.843-3.472-5.621-4.7-13.546-14.569-11.329-25.171v-5.208A36.313,36.313,0,0,1,253.8,231.022C256.316,229.351,261.317,229.685,263.389,227.55ZM141.381,237.966h83.663v0.867c-4.556,4.976-5.16,23.483-2.615,31.247,4.865,14.837,14.214,24.332,27.017,31.247,2.218,1.2,4.865.807,7.407,1.736,2.811,1.027,13.949,3.392,18.737,1.736l0.436-.868h3.922l0.435-.868h3.05c12.327-5.871,20.847-12.4,27.888-23.435,1.118-1.752.838-3.738,1.743-5.642,2.064-4.342,5.138-13.174,3.486-20.4-0.659-2.882-.739-6.5-1.743-9.548-0.644-1.957-2.025-3.882-2.614-6.075h45.753v55.983c0,11.969.857,22.368-5.665,28.209-7.823,7.006-29.644,4.341-44.01,4.34H193.67c-14.488,0-39.468,2.481-47.06-4.34-5.92-5.319-5.23-15.076-5.229-26.473V237.966Z"/>
</svg>
