<svg xmlns="http://www.w3.org/2000/svg" width="500" height="500" viewBox="0 0 500 500">
  <defs>
    <style>
      .cls-1 {
        fill: #fed2d2;
      }

      .cls-2 {
        fill: #cd0000;
        fill-rule: evenodd;
      }
    </style>
  </defs>
  <circle class="cls-1" cx="249.5" cy="249.5" r="149.5"/>
  <path id="Color_Fill_1" data-name="Color Fill 1" class="cls-2" d="M272.261,168h12.426c11.378,3.01,23.5,19.088,16.7,34.213-10.74,23.855-35.483,35.154-42.326,62.982v11.664a1.325,1.325,0,0,0-.776.389c-5.437-1.921-14.1-12.172-18.251-16.329-14.4-14.419-28.937-28.049-36.5-49.375-3.316-9.351-.559-23.249,3.106-29.548,1.234-2.121,3.627-3.451,5.437-5.054a14.416,14.416,0,0,1,13.59-3.5c5.149,1.344,11.935,7.072,14.756,10.886,1.55,2.1,2.736,6.98,5.436,7.775,1.926-8.836,9.413-15.867,16.309-19.827C265.3,170.479,269.314,170.1,272.261,168ZM135.189,230.205c3.332,0.041,5.7.744,6.99,2.721,2.073,3.181.841,8.693,1.941,12.83,1.557,5.853,4.921,12.032,5.436,18.273h-0.388v0.389c-7.579-.066-7.13,4.028-11.261,4.665-2.859-7.257-6.271-15.524-6.989-24.493-0.212-2.641-1.97-7.49-.389-10.108C131.35,232.092,133.442,231.639,135.189,230.205Zm226.77,0,4.272,0.389a35.546,35.546,0,0,0,3.883,3.888c0.258,10-2.421,17.64-4.66,24.882-0.989,3.2-1.2,6.976-3.106,9.33a2.616,2.616,0,0,1-1.554.389,10.127,10.127,0,0,0-5.824-4.665c-1.372-.4-2.942.187-3.883-0.389a2.63,2.63,0,0,1-.389-1.555c4.278-5.732,5.364-21.174,7.378-29.548A34.457,34.457,0,0,0,361.959,230.205ZM168.2,299.8v-1.166c-4.828-3.047-8.861-7.7-13.591-10.886-3.327-2.243-6.946-3.833-9.707-6.61-1.309-1.316-4.521-5.709-2.718-8.553,0.813-2.362,3.039-3.122,4.659-4.665,17.627-.334,24.872,7.016,33.394,15.551,2.467,2.47,5.033,5.655,8.155,7.387,6.417,3.56,15.1,3.9,22.133,7,9.082,4.006,20.182,10.781,25.628,18.273,5.212,7.168,9.126,15.917,12.426,24.882,0.919,2.5,1.788,11.358,3.495,12.441v-5.443c2.45-3.524,1.975-9.778,3.5-14,3.732-10.357,9.3-20.88,17.473-26.826,6.881-5.008,14.983-8.486,23.687-11.664,3.951-1.442,8.432-1.331,12.037-3.11,6.764-3.338,11.259-8.943,16.309-14,5.071-5.073,11.641-8.507,19.8-10.5,6.732-1.642,12.439,1.25,13.591,5.443,1.193,4.346-3.008,7.45-5.048,8.942-5.425,3.966-10.943,8.467-16.309,12.441-1.941,1.437-4.15,2.194-5.048,4.665h0.388V299.8c4.755-2.1,10.019-2.71,14.367-5.054,10.251-5.526,17.755-16.141,22.91-26.826,2.473-5.125,3.583-11.9,5.048-17.495,0.775-2.958-.814-6.916.389-9.331,0.769-1.545,2.727-2.659,3.883-3.888,1.661-.06,4.422-0.289,5.436.389,1.754,0.595,2.319,1.975,3.5,3.11,0.488,19.221-6.949,37.469-13.591,50.153-1.323,2.528-1.733,4.889-3.106,7.387-15.765,28.681-41.021,48.03-71.837,61.816-5.225,2.338-10.43,2.7-16.309,4.277A121.577,121.577,0,0,1,251.292,369H239.255c-1.037-.371-3.839-1.248-5.048-1.555h-4.66c-7.044-1.8-14.957-2.589-21.745-5.054-22.707-8.246-40.173-19.223-55.527-34.6A153.131,153.131,0,0,1,122.763,285.8c-2.943-6.024-3.825-12.557-6.213-19.051-1.88-5.114-2.777-12.338-4.271-17.883-0.495-1.838-.317-7.009.388-8.165,0.595-1.756,1.973-2.321,3.107-3.5,1.661-.06,4.422-0.289,5.436.389,6.17,2.278,2.619,6.506,4.271,12.83,1.405,5.376,2.7,12.64,5.048,17.495C137.614,282.577,149.268,297.274,168.2,299.8Zm-12.814-60.261,4.271,0.389c0.954,1.253,2.758,2.06,3.5,3.5,1.193,2.328.414,5.093,1.165,7.775,1.046,3.734,2.561,7.8,3.883,11.275,0.52,1.367,2.353,6.2,2.33,6.22l-0.388.778H169.36c-2.93-3.994-9.891-3.668-15.144-5.443-0.494-6.86-4.852-13.427-3.5-20.994A45.989,45.989,0,0,0,155.381,239.536Zm186.386,0,4.272,0.389a35.626,35.626,0,0,0,3.883,3.887c0.1,4.563-2.5,17.642-4.272,20.217-2.1,1.27-5.39.679-7.766,1.555-2.564.946-5.259,3-7.766,3.888v-0.389a2.381,2.381,0,0,1-.776-0.777c2.654-2.368,5.455-13.052,6.6-17.107,0.76-2.69-.02-5.431,1.165-7.775C338.062,241.535,340.189,240.832,341.767,239.536ZM176.349,255.087c2.96,0.02,5.3-.047,6.99,1.166,2.993,2.143,2.226,7.31,3.883,10.886,1.549,3.345,2.777,7.424,4.66,10.886,2.027,3.728,5.588,7.4,6.989,11.664h-0.388a1.982,1.982,0,0,1-1.165.388c-2.036-1.387-5-1.4-6.99-2.721-2.453-1.63-14.357-13.2-15.532-15.551q-0.193-1.556-.388-3.111c-0.585-1.945-3.058-7.112-1.165-10.108C173.838,256.83,175.215,256.265,176.349,255.087Zm125.423,34.6c0.643-4.476,4.684-8.173,6.6-11.664,3.291-5.99,5.355-12.824,6.99-20.216,1.532-1.075,5.242-4.521,8.542-2.333,1.754,0.6,2.319,1.975,3.5,3.11,0.183,13.5-5.577,16.859-12.037,23.327C311.866,285.414,308.694,289.659,301.772,289.689Z"/>
</svg>
