<svg xmlns="http://www.w3.org/2000/svg" width="500" height="500" viewBox="0 0 500 500">
  <defs>
    <style>
      .cls-1 {
        fill: #ffd27f;
      }

      .cls-2 {
        fill: #5e2e00;
        fill-rule: evenodd;
      }
    </style>
  </defs>
  <circle class="cls-1" cx="249.5" cy="249.5" r="149.5"/>
  <path id="Color_Fill_1" data-name="Color Fill 1" class="cls-2" d="M164.109,153l171.657,0.47a5.914,5.914,0,0,1,.234,1.879,5.726,5.726,0,0,0-.234,2.583h-71.7v25.132c0,1.988-.52,8.176.233,9.4,0.839,2.33,3.286,4.2,4.671,6.106,2.765,3.8,5.405,7.475,8.174,11.274,1.016,1.394,5.09,4.706,4.2,7.516-0.387,1.229-1.668,2.281-2.335,3.289-1.959,2.956-3.869,5.865-5.839,8.69-1.206,1.728-4.226,8.021-6.072,8.455a4.368,4.368,0,0,0-1.635-1.174v16.676H228.335V237.32h-0.467a1.668,1.668,0,0,1-.934.469c-2.91-5.069-6.556-9.879-9.809-14.8-1.43-2.16-3.767-3.981-3.971-7.281,0.6-.772.828-1.793,1.4-2.583,3.151-4.341,6.6-8.52,9.809-12.918,1.231-1.688,4.631-4.863,5.371-6.577v-35.7l-65.627-.235V153Zm80.574,8.455c-0.867.561-2.063,0.493-3.036,0.94a13.2,13.2,0,0,0-6.539,7.986c-2.5,8.5,6.162,17.169,14.246,15.032,6.808-1.8,12.956-10.222,7.941-18.321C254.869,163.175,251.237,161.343,244.683,161.455Zm1.635,11.979h1.168v-10.1h0.233c0.817,0.5,2.133.32,3.036,0.7a11.086,11.086,0,0,1,5.839,6.577c2.115,6.632-4.444,14.483-10.977,12.918-5.462-1.309-11.225-6.912-7.94-14.328,1.443-3.259,4.606-5.136,8.641-5.872v10.1Zm-0.7,16.911a4.839,4.839,0,0,1-1.868.705c-0.869,1.224-2.123,2.083-2.569,3.757-1.2,4.509,3.6,8.406,7.707,6.812C254.84,199.309,253.605,190.089,245.617,190.345Zm0.467,0.939c3.459-.026,3.79,1.545,5.372,3.289,0.234,4.18-.747,4.008-3.036,6.106a17.207,17.207,0,0,1-3.737-.235c-2.207-2.745-2.929-2.73-1.868-7.046a15.963,15.963,0,0,0,2.335-1.879A1.5,1.5,0,0,0,246.084,191.284Zm-17.749,28.655h37.134v8.221h0.467c0.665-2.173,3.988-6.414,5.372-8.456,0.622-.919,2.18-2.462,2.1-3.288-0.442-1.331-1.6-2.032-2.335-3.053-2.356-3.286-5.913-7.122-7.707-10.57-1.54,1.119-2.261,2.952-4.2,3.758-3.4,1.409-12.1.47-16.582,0.47h-6.306c-2.931-.737-3.659-2.8-5.605-3.523-0.447,1.331-1.6,2.03-2.335,3.053-1.536,2.144-2.882,4.209-4.438,6.342-0.93,1.276-2.432,2.144-2.8,3.993,2.488,1.844,4.843,8.934,7.24,10.1v-7.046ZM179.29,264.8h37.368v33.352H179.29V264.8Zm97.156,0h37.367v33.352H276.446V264.8ZM173.918,300.97h141.53c7.7,0,12.517-.364,16.815,3.054,4.823,3.833,3.5,14.895,3.5,23.487v8.69a12.554,12.554,0,0,1-8.407,9.395c-2.443.745-6.251,0.235-9.109,0.235H182.093c-4.949,0-9.623.233-12.612-1.644-6.652-4.177-5.371-13.328-5.372-23.957,0-3.924-.5-8.827.7-11.744a13.01,13.01,0,0,1,6.539-6.811C172.226,301.31,173.221,301.454,173.918,300.97Zm13.546,3.993c-1.474.908-3.836,0.739-5.371,1.409a19.621,19.621,0,0,0-10.043,10.57c-3.444,8.5,1.583,17.955,6.306,21.373a20.655,20.655,0,0,0,4.437,2.114c1.885,0.792,5.268,2.12,8.408,1.409,7.32-1.656,12.565-4.992,15.18-11.274,4.657-11.183-2.874-21.319-10.276-24.426C193.692,305.124,190.818,304.93,187.464,304.963Zm40.4,0-4.905,1.175a19.706,19.706,0,0,0-10.276,10.1c-4.553,10.81,2.151,20.007,9.342,23.722,2.04,1.054,5.979,2.714,9.576,1.879,7.749-1.8,12.656-5.265,15.414-11.978,1.729-4.21.811-10.43-.7-13.858C243.3,309.15,237.808,304.867,227.868,304.963Zm40.4,0c-1.413.87-4.868,1-6.539,1.879a20.22,20.22,0,0,0-8.875,9.865c-4.405,10.625,2.875,20.425,10.043,23.487,2.06,0.88,5.651,2.427,9.108,1.644,7.374-1.668,12.548-5.177,15.181-11.508,4.771-11.472-3.635-22.017-11.678-24.662A22.7,22.7,0,0,0,268.271,304.963Zm40.17,0c-1.474.925-3.781,0.73-5.371,1.409a19.519,19.519,0,0,0-9.576,9.63c-4.638,11.113,2.239,21.353,10.277,24.427,1.965,0.752,5.236,2.126,8.407,1.409,7-1.582,12.4-4.638,14.947-10.569C333.255,317,322.614,304.824,308.441,304.963Zm-119.809,6.812c7.347-.031,14.879,7.027,11.677,15.5-1.665,4.408-5.164,6.717-10.276,7.751-7.4,1.5-14.574-8.519-11.444-15.971a12.906,12.906,0,0,1,6.073-6.342Zm40.4,0c7.657,0.045,15.029,7.446,11.443,15.971-1.724,4.1-5.147,6.29-10.042,7.281-7.089,1.435-14.486-8.053-11.678-15.5a12.656,12.656,0,0,1,6.306-6.811Zm40.17,0c8.344-.035,15.161,7.758,11.443,16.441-1.643,3.838-5.222,5.853-9.809,6.811a7.2,7.2,0,0,1-3.269-.47c-5.707-1.625-11.561-7.714-8.174-15.736a12.7,12.7,0,0,1,6.539-6.342C266.909,312.078,268.342,312.3,269.206,311.775Zm40.4,0c7.7-.048,15.131,7.412,11.678,15.736-1.768,4.262-5.041,6.436-10.043,7.516a7.125,7.125,0,0,1-3.27-.47c-5.559-1.59-11.572-7.622-8.407-15.267a12.806,12.806,0,0,1,6.773-6.811C307.312,312.077,308.746,312.3,309.609,311.775Zm-120.977,2.818c-0.77.472-1.93,0.327-2.8,0.7a9.876,9.876,0,0,0-4.9,5.637c-1.83,5.719,3.959,12.765,9.809,11.274a9.8,9.8,0,0,0,7.006-5.872C200.187,319.592,194.16,314.612,188.632,314.593Zm40.4,0c-0.77.472-1.93,0.327-2.8,0.7a9.977,9.977,0,0,0-4.905,5.4c-2.06,5.862,3.865,12.886,9.576,11.509,3.171-.766,5.868-2.611,7.006-5.4C240.654,320.074,234.928,314.613,229.036,314.593Zm40.17,0a19.046,19.046,0,0,1-2.1.47,9.715,9.715,0,0,0-5.6,6.341c-1.527,5.8,4.425,12.1,9.809,10.805C281.705,329.7,281.149,314.507,269.206,314.593Zm40.4,0a18.944,18.944,0,0,1-2.1.47,9.845,9.845,0,0,0-5.605,6.106c-1.582,5.5,4,12.51,9.809,11.04a9.888,9.888,0,0,0,7.007-5.637C321.361,320.024,315.516,314.551,309.609,314.593Z"/>
</svg>
