<svg xmlns="http://www.w3.org/2000/svg" width="500" height="500" viewBox="0 0 500 500">
  <defs>
    <style>
      .cls-1 {
        fill: #a1eeb1;
      }

      .cls-2 {
        fill: #045114;
        fill-rule: evenodd;
      }
    </style>
  </defs>
  <circle class="cls-1" cx="249.5" cy="249.5" r="149.5"/>
  <path id="Color_Fill_1" data-name="Color Fill 1" class="cls-2" d="M253.014,177.144v13.412c5.549,1.841,18.059.453,24.8,0.419,1.167-3.461.455-9.6,0.421-13.831h2.942c1.569,4.683.455,12.909,0.42,18.442h0.84c2.328,1.52,10.9.537,13.449,0V177.144h3.362v18.442h0.841c2.347,1.5,9.7.475,13.029,0.419l0.42-1.258c1.352-2.124.467-14.043,0.42-17.6H316.9v18.023c4.245,2.194,14.337.888,20.173,0.838l0.42-1.258c1.352-2.124.468-14.043,0.421-17.6h7.144c1.453,2.843.841,8.806,0.841,12.993V322.162a1.51,1.51,0,0,0-.42.838H224.015v-8.383c-3.581-1.2-9.926-.453-14.289-0.419-0.732,2.147-.453,5.972-0.42,8.8a14.882,14.882,0,0,1-4.623-.419c0.638-1.7.63-6.434-.421-7.964-2.5-1.59-10.364-.475-13.869-0.419-0.732,2.147-.453,5.972-0.42,8.8h-4.2a47.441,47.441,0,0,0-.42-8.8H171.061v0.839c-0.959,1.464-.476,5.72-0.421,7.963H154.67c-1.191-3.616-.42-9.862-0.42-14.25V177.563h0.84c1.48-.912,5.334-0.419,7.565-0.419h90.359Zm-95.4,2.515a4.82,4.82,0,0,0-.841,2.934,4.852,4.852,0,0,0,2.942.838,4.829,4.829,0,0,0,.841-2.934A4.852,4.852,0,0,0,157.612,179.659Zm81.113,0a4.82,4.82,0,0,0-.841,2.934,4.852,4.852,0,0,0,2.942.838,4.822,4.822,0,0,0,.841-2.934A4.852,4.852,0,0,0,238.725,179.659Zm101.706,0a4.82,4.82,0,0,0-.84,2.934,4.852,4.852,0,0,0,2.942.838,4.373,4.373,0,0,0,.84-2.515,3.518,3.518,0,0,0-1.26-.838A2.846,2.846,0,0,0,340.431,179.659ZM186.19,242.109c1.825,0.094,3.953,0,6.725,0V189.718c-1.921-.05-5.219-0.329-5.884,0-1.037.542-.286-0.18-0.841,0.838-1.285,2.069-.42,12.148-0.42,15.508C185.771,220.624,185.905,231,186.19,242.109Zm28.159-52.81c-2.177,2.663-1.261,9.991-1.261,14.669V241.69c1.621,0.554,4.461.449,6.724,0.419,1.379-4.167.421-11.37,0.421-16.346V190.137l-1.261-.419C218.629,189.6,215.421,189.652,214.349,189.3Zm-26.477,1.257h2.941V228.7h-2.941V190.556Zm27.317,0h2.942V228.7h-2.942V190.556Zm-15.55,74.185h6.725V192.652c-1.517-.52-4.154-0.449-6.3-0.419-1.7,5.158-.421,16.365-0.421,22.632v49.876Zm27.318,0h6.725V192.652c-1.517-.52-4.154-0.449-6.3-0.419-1.7,5.158-.42,16.365-0.42,22.632v49.876Zm-22.274-60.354h-2.942V193.909h0.42c0.773,0.487,1.769.207,2.1,0.419C205.447,196.156,204.738,201.7,204.683,204.387Zm26.9,0h-2.942c-0.055-3.279-.457-7.915.421-10.478a3.384,3.384,0,0,0,2.521,0v10.478Zm24.8-5.029c-1.107,1.648-1.7,1.933-1.681,5.029,1.653,1.1,1.939,1.7,5.044,1.677,1.107-1.648,1.7-1.933,1.681-5.03C259.767,199.93,259.481,199.335,256.376,199.358Zm14.71,2.934c-1.614,2.345-4.387,2.985-4.623,6.706,2.917,1.99,5.02,5.151,7.565,7.544v33.949c0,3.394,1.1,10.564-.42,12.993-1.018,2.94-5.351,6.351-7.565,8.383v0.419h0.42c0.747,2.333,3.681,5.321,6.724,5.448q3.573-3.771,7.145-7.544h45.39c1.584,2.5,5.536,7.334,9.246,7.544,1.617-1.677,3.863-2.937,4.623-5.448h0.42c0.416-.423-0.414-0.415-0.42-0.419-0.974-2.833-4.911-6.178-7.145-7.964v-47.78c2.96-1.942,5.023-5.151,7.565-7.544a1.435,1.435,0,0,0-.42-0.839c-0.7-2.179-3.629-5.2-6.3-5.448-1.846,2.173-4.283,3.86-6.3,5.867-0.24.238-.621,1.539-0.841,1.677h-45.81c-1.947-2.951-5.165-5.009-7.565-7.544h-1.681Zm-32.781,2.514c-0.8.852-1.208,0.783-1.682,2.1-2.62,3.631,2.756,4.883,5.464,4.191,1.094-2.038,2.016-4.787-.841-5.867A5.579,5.579,0,0,0,238.305,204.806Zm-36.564,1.258h2.521c1.526,4.614.421,12.571,0.421,18.022v39.4a9.069,9.069,0,0,1-2.942.419V206.064Zm26.9,0h2.942V263.9h-2.942V206.064Zm19.333,0c-1.071,1.447-1.9,1.673-2.1,4.191a8.214,8.214,0,0,1,.84,1.677,7.247,7.247,0,0,1,2.1,1.257l2.522-.419C253.46,209.788,253.627,205.864,247.971,206.064Zm23.956,0c1.49,0.7,1.923.812,2.1,2.934a4.852,4.852,0,0,1-2.942.838,4.38,4.38,0,0,1-.841-2.515A7.606,7.606,0,0,0,271.927,206.064Zm60.939,0.419h2.1a4.373,4.373,0,0,1,.84,2.515,4.85,4.85,0,0,1-2.942.838,4.56,4.56,0,0,0-.84-1.257,1.435,1.435,0,0,1,.42-0.839Zm-165.588,2.934c-1.328,1.689-2.111,1.7-2.1,5.029,2.127,1.5,2.9,2.492,5.884,1.258a7.227,7.227,0,0,1,1.26-2.1l-0.42-2.515a10.482,10.482,0,0,1-2.1-1.676h-2.522Zm112.634,5.448h46.23c1.921,3.189,1.261,9.989,1.261,15.089V263.9a1.51,1.51,0,0,0-.42.838h-0.841c-2.439,1.515-9.623.42-13.028,0.42h-33.2a7.591,7.591,0,0,0-1.261-1.677V230.373C278.651,225.077,278.047,218.289,279.912,214.865Zm-106.75,2.1c-1.528,1.549-2.159,1.661-2.1,5.03a1.506,1.506,0,0,1,.42.838c1.128,0.554,2.391,1.312,3.362.838,2.485-.368,3.046-1.644,2.942-4.61a1.51,1.51,0,0,1-.42-0.839,7.546,7.546,0,0,1-1.681-1.257h-2.522Zm73.128,53.648v4.611c-3.63,1.86-6.123,5.218-9.246,7.544-3.863,2.876-7.464,5.539-11.348,8.382-1.168.856-2.509,3.2-3.782,3.773H210.566c0.043-3.61.171-7.943-.42-10.9h-0.84c-1.522-.974-5.689-0.419-7.986-0.419-5.549,0-23.378-1.373-26.477.838-1.653,2.616-.466,18.654-0.42,23.052,2.5,1.285,7.551.839,11.347,0.839h23.956c2.669-3.405,11.28.265,15.97-1.258,4.792-1.555,7.409-7.52,12.188-9.221v3.773h5.884a5.323,5.323,0,0,1,.42-1.677h0.421v1.257h68.5c6.006,0,22.005,1.336,25.216-1.257v1.677h5.884c0.009-3.594.127-3.507,0-6.287H338.33v1.676h-0.42c-1.016-2.105-18.15-1.257-22.275-1.257H244.609a2.023,2.023,0,0,1-.421,1.257V296.6a2.137,2.137,0,0,1-.42-1.257h-2.942v-0.419h0.42l16.811-13.832c1.19-2.19.457-7.489,0.421-10.478H265.2c1.269-3.832.42-10.468,0.42-15.088V224.086c-5.254-1.748-14.451-.455-20.593-0.419-1.159,3.5-.42,9.566-0.42,13.831v29.339a4.1,4.1,0,0,0,0,3.353A2.832,2.832,0,0,0,246.29,270.609Zm-0.841-45.685c1.364,0.347.642-.205,1.261,0.839l-1.261.419v-1.258Zm18.072,0h1.261v1.258h-1.261v-1.258ZM169.8,227.439c-0.916.952-1.585,1.051-2.1,2.515-2.666,3.766,6.643,7.138,6.725.419-0.679-.8-0.8-1.462-1.681-2.1A4.526,4.526,0,0,0,169.8,227.439Zm18.072,2.934h2.941v10.059h-2.941V230.373Zm27.317,0h2.942v10.059h-2.942V230.373Zm34.463,0.838h5.464v0.419h0.42v1.258c1.378-.049,3.019-0.1,3.782.419-1.795-.1-3.1-0.281-3.782.838a11.568,11.568,0,0,1,3.782.419v0.419c-1.795-.1-3.1-0.28-3.782.839,1.378-.049,3.019-0.1,3.782.419h-3.782V237.5c1.378-.049,3.019-0.1,3.782.419-1.795-.1-3.1-0.28-3.782.839,1.743-.082,2.7-0.253,3.362.838-1.743-.082-2.7-0.253-3.362.838,1.378-.049,3.019-0.1,3.782.419h-3.782v1.258c1.378-.049,3.019-0.1,3.782.419-1.795-.1-3.1-0.281-3.782.838,1.378-.049,3.019-0.1,3.782.419H258.9c-1.117.655-2.624,0.11-3.362,1.258,1.378-.049,3.019-0.1,3.782.419-1.795-.1-3.1-0.281-3.782.838h0.42c0.684,0.422,2.684.4,3.362,0.838-1.795-.1-3.1-0.281-3.782.838,1.378-.049,3.019-0.1,3.782.42H258.9c-1.117.655-2.624,0.11-3.362,1.257,1.378-.049,3.019-0.1,3.782.419-1.795-.1-3.1-0.281-3.782.838a13.936,13.936,0,0,1,3.782.419v0.42c-1.795-.1-3.1-0.281-3.782.838,1.378-.049,3.019-0.1,3.782.419H258.9v0.419a10.565,10.565,0,0,0-3.362-.419v1.257c1.378-.049,3.019-0.1,3.782.419-1.795-.1-3.1-0.28-3.782.839,1.743-.082,2.7-0.253,3.362.838-1.743-.082-2.7-0.252-3.362.838,1.378-.049,3.019-0.1,3.782.419h-3.782v1.258c1.378-.049,3.019-0.1,3.782.419-1.795-.1-3.1-0.281-3.782.838,1.743-.082,2.7-0.252,3.362.838-1.743-.081-2.7-0.252-3.362.839,1.378-.049,3.019-0.1,3.782.419h-3.782v1.257c1.378-.049,3.019-0.1,3.782.419-1.795-.1-3.1-0.281-3.782.838,1.743-.081,2.7-0.252,3.362.839h-3.362a124.544,124.544,0,0,1-.42,14.25l-30.681,24.309H210.566v-5.867c3.139-1.055,8.717-.454,12.609-0.42,2.823-3.939,8.26-6.741,12.188-9.639,4.665-3.444,8.565-8.564,13.869-11.317,0.273-3.7.241-7.371,0.42-11.316H246.29v-0.839c1.3,0.04,2.66.059,3.362-.419-0.711-.22-2.749-0.425-3.362-0.838,1.8,0.052,2.566.062,3.362-.838h-0.42c-0.591-.371-2.357-0.455-2.942-0.838a9.982,9.982,0,0,0,3.362-.42v-0.419H246.29v-0.838c1.3,0.04,2.66.059,3.362-.419-0.711-.221-2.749-0.426-3.362-0.838,1.8,0.051,2.566.061,3.362-.839h-0.42c-0.591-.37-2.357-0.454-2.942-0.838a9.96,9.96,0,0,0,3.362-.419v-0.419H246.29v-0.838c1.3,0.039,2.66.059,3.362-.419-0.711-.221-2.749-0.426-3.362-0.839,1.8,0.052,2.566.062,3.362-.838h-0.42c-1.291-.768-1.831.057-2.942-0.838,1.743,0.082,2.7.252,3.362-.838H246.29V250.91c0.938,0.2,2.507.484,2.942,0h0.42v-0.419h-0.42c-0.591-.371-2.357-0.454-2.942-0.838a9.96,9.96,0,0,0,3.362-.419v-0.419H246.29v-0.839c1.743,0.082,2.7.253,3.362-.838H246.29v-0.419c1.8,0.052,2.566.062,3.362-.838h-0.42c-0.685-.422-2.684-0.4-3.362-0.838a11.544,11.544,0,0,0,3.782-.42V244.2H246.29v-0.838c1.3,0.04,2.66.059,3.362-.419-0.711-.221-2.749-0.426-3.362-0.838,1.8,0.051,2.566.061,3.362-.839h-0.42c-0.591-.37-2.357-0.454-2.942-0.838,1.743,0.082,2.7.253,3.362-.838H246.29v-0.838c1.3,0.039,2.66.059,3.362-.419-0.711-.221-2.749-0.426-3.362-0.839,1.8,0.052,2.566.062,3.362-.838h-0.42c-0.591-.371-2.357-0.455-2.942-0.838,1.743,0.081,2.7.252,3.362-.839H246.29v-0.838c1.3,0.04,2.66.059,3.362-.419-0.711-.22-2.749-0.426-3.362-0.838a9.985,9.985,0,0,0,3.362-.419v-1.258Zm-92.04,16.765a4.824,4.824,0,0,0-.841,2.934,4.859,4.859,0,0,0,2.942.839,4.831,4.831,0,0,0,.841-2.934,2.564,2.564,0,0,1-.841-0.839h-2.1Zm81.113,0a4.824,4.824,0,0,0-.841,2.934,4.859,4.859,0,0,0,2.942.839,4.824,4.824,0,0,0,.841-2.934,2.564,2.564,0,0,1-.841-0.839h-2.1Zm101.706,0a4.825,4.825,0,0,0-.84,2.934,4.859,4.859,0,0,0,2.942.839,4.825,4.825,0,0,0,.84-2.934A4.856,4.856,0,0,0,340.431,247.976ZM180.307,255.1c-0.362.271-1.322,0.56-1.682,0.838-3.737,1.016-4.073,3.882-6.3,6.287-0.2,2.807-.67,5.105.421,7.544,2.083,4.661,9.915,8.39,15.55,4.61C197.293,268.344,192.81,254.718,180.307,255.1ZM206.364,266a13.2,13.2,0,0,0-4.2.419l0.42,1.676a4.446,4.446,0,0,0-2.521.42c-0.736,1.107-.474,4.063-0.421,5.867,1.517,0.52,4.154.449,6.3,0.419C206.676,272.653,206.4,268.829,206.364,266Zm23.115,2.095h-2.1c-0.521,1.513-.45,4.143-0.42,6.287,1.517,0.52,4.154.449,6.3,0.419,0.7-2.039.453-5.668,0.421-8.382A12.162,12.162,0,0,0,229.9,266,6.577,6.577,0,0,0,229.479,268.094Zm16.391,0a1.622,1.622,0,0,1,.84,1.258h-0.42a1.514,1.514,0,0,1-.841.419A5.307,5.307,0,0,1,245.87,268.094Zm18.912,1.677h-1.261a5.338,5.338,0,0,1,.42-1.677h0.421v0.42A2.134,2.134,0,0,1,264.782,269.771Zm6.3,0.419h2.1a4.822,4.822,0,0,1,.841,2.934h-0.42v0.419l-2.1.419c-0.717-1.142-1.066-1.047-1.261-2.934A2.552,2.552,0,0,0,271.086,270.19Zm61.78,0h2.1a4.822,4.822,0,0,1,.84,2.934,4.616,4.616,0,0,0-1.26.838,1.439,1.439,0,0,1-.841-0.419c-1.155-.421-0.923-0.6-1.681-1.257a1.442,1.442,0,0,1,.42-0.839Zm-26.477,8.8a2.146,2.146,0,0,1-1.261.419c-0.654,1-1.228,1.226-1.681,2.515-2.309,3.249,1.934,5.969,5.043,5.867,1.3-1.065,2.309-1.109,2.942-2.933a5.534,5.534,0,0,0,.421-2.934,15.952,15.952,0,0,0-2.1-2.1C308.882,279.132,308.005,279.029,306.389,278.992Zm-22.695.419a2.146,2.146,0,0,1-1.261.419c-1.075,1.66-1.975,2.224-2.1,5.03,0.819,0.858,1.094,1.805,2.1,2.514,3.469,2.947,6.92-1.012,6.725-5.029a15.832,15.832,0,0,0-2.1-2.1C286.187,279.552,285.31,279.449,283.694,279.411Zm32.782,0.419c-1.638,1.708-2.535,2.316-2.522,5.868,2.1,2.059,2.685,2.778,6.3,2.515,1.244-1.67,2.31-2.122,2.522-5.03-1.024-1.19-1.9-2.241-2.942-3.353h-3.362ZM294.2,282.345c-3.5,3.3-4.689,8.8,3.362,8.382a1.524,1.524,0,0,1,.841-0.419c2.609-3.823,2.075-5-.841-7.963H294.2Zm-87.417,2.515h1.681a4.825,4.825,0,0,1,.841,2.933h-0.841a2.843,2.843,0,0,1-1.681.42C205.923,286.653,205.956,286.417,206.784,284.86Zm74.809,12.573v2.1H257.217c-3.447,0-8.2-.485-10.927.419v-2.934h0.42c1.841,1.147,6.99.419,9.666,0.419h25.217Zm2.1,2.1v-2.1H319c5.107,0,12.524,1,16.811-.419v2.934h-0.42c-2.665-1.652-10.61-.419-14.289-0.419h-37.4Zm-107.17,4.191h1.681a4.375,4.375,0,0,1,.841,2.515,4.852,4.852,0,0,1-2.942.838A3.293,3.293,0,0,1,176.524,303.72Zm61.36,0v6.287h5.884c0.348-1.36-.206-0.64.841-1.257,0.91,1.329,3.733.837,5.884,0.838h66.823c6.082,0,16.545,1.455,21.014-.838v1.257h5.884V303.72H338.33V305.4h-0.841c-0.132-2.094-17.449-1.259-21.854-1.258H244.609c-0.348,1.36.206,0.641-.841,1.258V303.72h-5.884Zm43.709,4.191H257.217c-3.447,0-8.2-.484-10.927.42V305.4h0.42c1.84,1.147,6.99.419,9.666,0.419h24.8A6.577,6.577,0,0,1,281.593,307.911Zm2.1,0v-2.1H319c5.107,0,12.524,1,16.811-.419v2.934h-0.42c-2.665-1.652-10.61-.42-14.289-0.42h-37.4Zm19.333,13.412V312.1H254.7c-0.732,2.147-.453,5.971-0.42,8.8,3.955,1.3,10.8.419,15.55,0.419h33.2Zm22.695-9.22c-1.071,1.447-1.9,1.673-2.1,4.191a8.183,8.183,0,0,1,.841,1.676,7.172,7.172,0,0,0,4.623.839c1.386-2.031,1.985-3.147.841-5.868A8.63,8.63,0,0,0,325.722,312.1Zm-18.072.419c-1.108,1.648-1.7,1.933-1.681,5.029,1.574,1.053,1.708,1.666,4.623,1.677a1.514,1.514,0,0,1,.84-0.419,7.012,7.012,0,0,0,1.261-4.611C311.04,313.094,310.755,312.5,307.65,312.522Zm-49.593,3.772h-2.941v-2.515a4.453,4.453,0,0,1,2.1-.838,1.514,1.514,0,0,0,.84.419v2.934Zm3.783,0h-2.522V313.36a6.624,6.624,0,0,1,2.1-.419,2.558,2.558,0,0,0,.84.838A7.649,7.649,0,0,0,261.84,316.294Zm4.2,0H263.1v-2.515a4.409,4.409,0,0,1,2.521-.838A10.478,10.478,0,0,1,266.043,316.294Zm4.2,0H267.3V313.36a6.611,6.611,0,0,1,2.1-.419A5.523,5.523,0,0,1,270.245,316.294Zm3.783,0h-2.522V313.36a6.618,6.618,0,0,1,2.1-.419A10.509,10.509,0,0,1,274.028,316.294Zm4.2,0h-2.942V313.36h0.84a2.844,2.844,0,0,1,1.681-.419A10.478,10.478,0,0,1,278.231,316.294Zm3.782,0h-2.521V313.36a6.611,6.611,0,0,1,2.1-.419A10.509,10.509,0,0,1,282.013,316.294Zm4.2,0h-2.942v-2.515a4.41,4.41,0,0,1,2.522-.838A10.509,10.509,0,0,1,286.216,316.294Zm4.2,0h-2.942V313.36a6.617,6.617,0,0,1,2.1-.419A5.522,5.522,0,0,1,290.419,316.294Zm3.782,0h-2.522V313.36a6.624,6.624,0,0,1,2.1-.419A10.509,10.509,0,0,1,294.2,316.294Zm4.2,0h-2.942V313.36H296.3c0.887-.506.937-0.2,2.1,0v2.934Zm3.782,0h-2.521V313.36a6.617,6.617,0,0,1,2.1-.419A10.453,10.453,0,0,1,302.186,316.294Zm14.29-2.934c-1.071,1.447-1.9,1.673-2.1,4.191,0.878,0.922.722,1.546,2.1,2.1,1.229,0.891,1.483.54,3.362,0.419,2.228-3.236,2.27-3.917-.42-6.706h-2.942Zm-158.864,3.353a4.822,4.822,0,0,0-.841,2.934,4.852,4.852,0,0,0,2.942.838,4.826,4.826,0,0,0,.841-2.934A4.859,4.859,0,0,0,157.612,316.713Zm81.113,0a4.822,4.822,0,0,0-.841,2.934,4.852,4.852,0,0,0,2.942.838,4.82,4.82,0,0,0,.841-2.934l-1.261-.419A2.844,2.844,0,0,0,238.725,316.713Zm101.706,0a4.822,4.822,0,0,0-.84,2.934,4.852,4.852,0,0,0,2.942.838,4.373,4.373,0,0,0,.84-2.515,3.531,3.531,0,0,0-1.26-.838A2.846,2.846,0,0,0,340.431,316.713Zm-82.374,3.772h-2.941V317.97a4.453,4.453,0,0,1,2.1-.838A5.525,5.525,0,0,1,258.057,320.485Zm3.783,0h-2.522v-2.934a6.652,6.652,0,0,1,2.1-.419A10.509,10.509,0,0,1,261.84,320.485Zm4.2,0H263.1V317.97a4.409,4.409,0,0,1,2.521-.838A10.478,10.478,0,0,1,266.043,320.485Zm4.2,0H267.3v-2.934a6.639,6.639,0,0,1,2.1-.419A5.525,5.525,0,0,1,270.245,320.485Zm3.783,0h-2.522v-2.934a6.646,6.646,0,0,1,2.1-.419A10.509,10.509,0,0,1,274.028,320.485Zm4.2,0h-2.942V317.97a4.462,4.462,0,0,1,2.1-.838A5.525,5.525,0,0,1,278.231,320.485Zm3.782,0h-2.521v-2.934a6.639,6.639,0,0,1,2.1-.419A10.509,10.509,0,0,1,282.013,320.485Zm4.2,0h-2.942V317.97a4.41,4.41,0,0,1,2.522-.838A10.509,10.509,0,0,1,286.216,320.485Zm4.2,0h-2.942v-2.934a6.645,6.645,0,0,1,2.1-.419A5.525,5.525,0,0,1,290.419,320.485Zm3.782,0h-2.522v-2.934a6.652,6.652,0,0,1,2.1-.419A10.509,10.509,0,0,1,294.2,320.485Zm4.2,0h-2.942V317.97a4.462,4.462,0,0,1,2.1-.838A5.525,5.525,0,0,1,298.4,320.485Zm3.782,0h-2.521v-2.934a6.645,6.645,0,0,1,2.1-.419A10.453,10.453,0,0,1,302.186,320.485Z"/>
</svg>
