<svg xmlns="http://www.w3.org/2000/svg" width="500" height="500" viewBox="0 0 500 500">
  <defs>
    <style>
      .cls-1 {
        fill: #e9c4e7;
      }

      .cls-2 {
        fill: #5c0757;
        fill-rule: evenodd;
      }
    </style>
  </defs>
  <circle class="cls-1" cx="249.5" cy="249.5" r="149.5"/>
  <path id="Color_Fill_1" data-name="Color Fill 1" class="cls-2" d="M269.7,321.04h19.046c2.023,0,6.088-.6,7.5.289a3.082,3.082,0,0,1,2.309,3.179c-0.761.728-1.581,1.55-2.309,2.311H209.964c-1.969,0-5.839.562-7.214-.289a3.08,3.08,0,0,1-2.309-3.178c0.761-.728,1.581-1.55,2.309-2.312H229.3V307.748H162.348c-1.656,0-4.653.4-5.772-.289-1.3-.414-1.481-1.2-2.308-2.022V186.675c0-2.472-.815-7.747.288-9.535,0.488-1.536,1.615-1.9,2.6-2.89h170.84c2.808,0,12.135-.774,13.852.289,1.535,0.489,1.9,1.617,2.886,2.6V295.9c0,2.473.815,7.748-.288,9.536-0.415,1.3-1.2,1.483-2.02,2.311H294.807c-7.627,0-16.893-1.058-23.952.289a7.214,7.214,0,0,1-1.154,1.445V321.04Zm-32.9-61.259a48.7,48.7,0,0,0-.288-8.668c-7.294-3.177-13.9-7.664-20.778-11.27-2.116-1.11-6.621-2.109-6.926-4.912,6.283-3.925,13.3-7.815,19.912-11.269,1.589-.83,7.5-3.086,8.08-4.335v-8.09c-3.164.222-5.8,3.011-8.08,4.334-3.159,1.837-6.3,2.865-9.523,4.623-3.109,1.694-6.355,4.1-9.523,5.779-1.795.952-9.16,4.1-9.812,5.491v7.512a1.049,1.049,0,0,1,.288.578c4.123,2.007,8.142,5.053,12.121,7.224,4.247,2.318,8.211,3.928,12.409,6.357C227.466,254.746,233.431,259.436,236.8,259.781Zm30.013-48.544a48.6,48.6,0,0,0,.289,8.668c2.628,1.219,5.116,3.036,7.5,4.335,4.659,2.535,9.294,4.44,13.563,7.224,1.954,1.274,6.116,1.713,6.637,4.334-6.347,3.5-12.9,7.61-19.335,10.98-1.947,1.02-7.65,3.12-8.368,4.913-0.939,1.461-.328,5.991-0.289,8.09h0.577c3.269-2.618,7.458-4,11.255-6.068,5.433-2.954,11.088-6.718,16.449-9.824,2.329-1.35,6.859-2.29,7.792-4.913,0.949-1.442.334-6.522,0-8.09-6.2-2.9-12.03-6.917-17.892-10.114-2.883-1.571-5.519-2.4-8.369-4.045C273.609,214.98,270.537,212.168,266.815,211.237Z"/>
</svg>
