<svg xmlns="http://www.w3.org/2000/svg" width="500" height="500" viewBox="0 0 500 500">
  <defs>
    <style>
      .cls-1 {
        fill: #a1eeb1;
      }

      .cls-2 {
        fill: #033409;
        fill-rule: evenodd;
      }
    </style>
  </defs>
  <circle class="cls-1" cx="249.5" cy="249.5" r="149.5"/>
  <path id="Color_Fill_1" data-name="Color Fill 1" class="cls-2" d="M272.34,208.97v-4.264c1.5-.791,4.605-0.566,6.925-0.533,1.172,2.255.565,7.465,0.533,10.661,3.436,2.219,6.659,4.826,10.122,7.2,2.018,1.382,3.806,3.778,6.392,4.531-0.149-4.332,2.724-3.378,6.659-3.2a0.963,0.963,0,0,0,.533.266,4.9,4.9,0,0,1,.267,1.6c0.333,0.543.289,5.7,0.266,7.2l18.912,13.859v6.4h-0.533c-1.56-1.089-3.415-1.016-5.327-1.866-3.641-1.619-8.009-3.389-11.72-4.8-1.035-.393-1.659-0.084-2.664-0.533-7.4-3.306-15.828-5.614-23.174-9.062-1.862-.875-3.679-0.746-5.593-1.6-3.253-1.45-9.4-4.525-13.318-4.8l-0.267.8c-1.711,2.68-.114,11.61-0.8,15.725-0.043.256-.488,1.146-0.533,1.332v10.661c-0.583,2.42.2,6.575-.532,9.6-0.427,1.771-.762,4.653-1.066,6.663-0.577,3.823-.289,7.162-1.065,10.395a7.631,7.631,0,0,0,.266,3.731c0.518,1.4,8.306,8.163,9.856,9.329,1.076,0.809,3.45,1.989,4,3.2v2.665a2.887,2.887,0,0,0-.266,1.6c-5.743-.6-9.774-3.85-15.982-4-1,1.681-2.149,3.491-3.2,5.064h-0.266v-0.267c-1.627-1.277-2.118-3.781-3.463-5.331-5.378,1.174-10.624,3.522-15.981,4.8v-4.531c1.739-.892,2.614-2.51,4-3.731,3.535-3.127,6.99-6.11,10.388-9.329a57.518,57.518,0,0,0-1.6-11.194v-4.8c-0.462-2.115-.59-5.5-1.065-7.463v-9.595c-0.767-3.148.327-8.193-.533-11.727-0.881-3.619-.743-9.723-0.8-13.86-2.533.258-4.726,1.542-6.659,2.4-1.009.447-1.627,0.141-2.664,0.533-3.273,1.24-7.013,2.879-10.122,4.265-3.844,1.713-7.686,1.956-11.454,3.731-10.393,4.9-21.99,7.777-32.762,12.26v-6.13l19.711-14.392v-8.263c1.533-.946,4.287-0.841,6.925-0.8a3.315,3.315,0,0,1,.533,3.2h1.065c1.917-2.4,5.2-3.782,7.725-5.6,0.99-.711,1.926-1.976,2.93-2.665,1.517-1.041,3.811-1.676,4.528-3.465,0.918-1.477.156-8.087,0.533-10.128a4.708,4.708,0,0,1,2.663-.533c1.058-.515,3.535-0.135,4.529.267,0.286,0.737.368,3.545,1.065,4,0.258,0.067.1,0.209,0.266,0,2.862-1.415,5.134-4.1,7.459-6.13,1.059-.923,3.17-1.589,3.729-2.931V178.053c0.662-1.144-.121-3.273.266-4.8a125.131,125.131,0,0,1,4.528-14.392c1.021-2.6,1.677-5.417,4.795-5.864,5.353,5.7,6.614,12.983,8.79,21.855v18.124c0,1.755-.492,5.182.266,6.4,0.966,2.6,8.981,7.04,11.188,9.594h0.8Zm-45.549,28.785q-0.532,49.037-1.065,98.082l-0.267,27.186c0,2.343.624,9.756-.266,11.194q-0.4-49.569-.8-99.148-0.133-13.193-.266-26.386c0-2.661-.522-9.047,0-9.862A5,5,0,0,1,226.791,237.755Zm48.212,0,2.664,0.8v14.126c-1.725,2.944,1.007,17.559-.266,23.187-1.2,5.317-.267,12.805-0.267,18.657v5.064c-1.006,4.44-.266,10.774-0.266,15.725q-0.133,13.725-.267,27.453-0.132,9.461-.266,18.923c0,2.051.635,6.267-.266,7.729Q275.537,303.595,275,237.755Zm-72.184,8.8q-0.267,21.587-.533,43.177v16.258c0,2.752.23,6.222-.267,8.529v5.863c0,6.223.937,14.938-.266,20.523v25.32c0,2.5.427,8.055-.533,9.595,0.062-43.1-1.276-85.45-1.331-128.2l0.8-.267A4.056,4.056,0,0,1,202.819,246.551Zm96.157,0a12.662,12.662,0,0,1,2.93,1.066c-0.475,1.457-.266,3.972-0.266,5.863v20.789c-1.222,5.683-.263,15.678-0.267,22.122q-0.265,18.921-.532,37.847c0,5.884.888,13.3-.267,18.657V374.75c0,2.106.665,6.49-.266,8Q299.642,314.655,298.976,246.551Zm-74.049,58.9c0.315,0.706-.239.478,0.532,0.8v0.267h0.267A1.444,1.444,0,0,0,224.927,305.453ZM55.786,519.473h0.533v0.267A0.913,0.913,0,0,1,55.786,519.473Zm2.4,2.132a0.968,0.968,0,0,1,.266.534H58.183v-0.534Zm12.785,0a0.967,0.967,0,0,1,.266.534H70.968v-0.534Zm-17.846.267h0.533v0.267A0.919,0.919,0,0,1,53.122,521.872Zm-2.93.267h0.533v0.266A0.913,0.913,0,0,1,50.192,522.139Zm4.262,0.266a0.961,0.961,0,0,1,.266.533H54.454v-0.533Zm66.591,0.267a0.963,0.963,0,0,1,.266.533h-0.266v-0.533Zm-74.049.8a0.961,0.961,0,0,1,.266.533H47v-0.533Zm70.054,0h0.533v0.267A0.914,0.914,0,0,1,117.049,523.471Zm267.164,0a0.963,0.963,0,0,1,.266.533h-0.266v-0.533Zm-303.656.267H81.09V524A0.912,0.912,0,0,1,80.557,523.738Zm19.445,0h0.533V524A0.911,0.911,0,0,1,100,523.738Zm27.169,0H127.7V524A0.915,0.915,0,0,1,127.171,523.738Zm300.992,0H428.7V524A0.911,0.911,0,0,1,428.163,523.738ZM86.95,524h0.533v0.267A0.913,0.913,0,0,1,86.95,524Zm9.855,0h0.533v0.267A0.912,0.912,0,0,1,96.806,524Zm13.584,0a0.963,0.963,0,0,1,.267.533H110.39V524Zm14.117,0h0.533v0.267A0.914,0.914,0,0,1,124.507,524Zm5.328,0h0.532v0.267A0.911,0.911,0,0,1,129.835,524Zm18.379,0.267a0.963,0.963,0,0,1,.266.533h-0.266v-0.533Zm2.4,0h0.533v0.266A0.915,0.915,0,0,1,150.611,524.271Zm2.664,0h0.533v0.266A0.911,0.911,0,0,1,153.275,524.271Zm1.6,0h0.533v0.266A0.911,0.911,0,0,1,154.873,524.271ZM43,524.537a0.961,0.961,0,0,1,.266.533H43v-0.533Zm124.658,0a0.957,0.957,0,0,1,.267.533h-0.267v-0.533Zm216.022,0h0.533V524.8A0.911,0.911,0,0,1,383.68,524.537Zm16.781,0a1.287,1.287,0,0,1,.8.267A1.287,1.287,0,0,1,400.461,524.537Zm14.65,0h0.533V524.8A0.911,0.911,0,0,1,415.111,524.537Zm4.528,0h0.533V524.8A0.914,0.914,0,0,1,419.639,524.537Zm2.93,0H423.1V524.8A0.914,0.914,0,0,1,422.569,524.537Zm13.585,0.267a0.963,0.963,0,0,1,.266.533h-0.266V524.8Zm-317.507.266a0.957,0.957,0,0,1,.267.533h-0.267V525.07ZM437.219,525.6h0.533v0.267A0.914,0.914,0,0,1,437.219,525.6Zm-287.141.267h0.533v0.266A0.915,0.915,0,0,1,150.078,525.87Zm293.267,0a0.957,0.957,0,0,1,.267.533h-0.267V525.87Zm-393.686.266a0.965,0.965,0,0,1,.266.533H49.659v-0.533Zm1.865,0h0.533V526.4A0.907,0.907,0,0,1,51.524,526.136Zm33.3,0a0.964,0.964,0,0,1,.266.533H84.819v-0.533Zm-31.165.267a0.961,0.961,0,0,1,.266.533H53.655V526.4Zm21.043,0H75.23v0.266A0.913,0.913,0,0,1,74.7,526.4Zm13.052,0h0.533v0.266A0.913,0.913,0,0,1,87.749,526.4Zm18.646,0a0.963,0.963,0,0,1,.266.533H106.4V526.4Zm29.832,0h0.533v0.266A0.915,0.915,0,0,1,136.227,526.4Zm10.389,0h0.532v0.266A0.911,0.911,0,0,1,146.616,526.4Zm-74.849.266a0.968,0.968,0,0,1,.266.534H71.767v-0.534Zm21.309,0a0.968,0.968,0,0,1,.266.534H93.077v-0.534Zm2.664,0a0.968,0.968,0,0,1,.266.534H95.74v-0.534Zm36.226,0a0.971,0.971,0,0,1,.266.534h-0.266v-0.534Zm1.864,0a0.971,0.971,0,0,1,.267.534H133.83v-0.534Zm11.987,0h0.532v0.267A0.905,0.905,0,0,1,145.817,526.669Zm15.715,0a0.964,0.964,0,0,1,.266.534h-0.266v-0.534Zm234.134,0H396.2v0.267A0.909,0.909,0,0,1,395.666,526.669Zm-287.407.267h0.533V527.2A0.92,0.92,0,0,1,108.259,526.936Zm-57.534.267h0.533v0.266A0.912,0.912,0,0,1,50.725,527.2Zm2.93,0.266h0.533v0.267A0.918,0.918,0,0,1,53.655,527.469Zm33.3,0h0.533v0.267A0.919,0.919,0,0,1,86.95,527.469ZM53.921,528a0.961,0.961,0,0,1,.266.533H53.921V528Zm33.3,0a0.961,0.961,0,0,1,.266.533H87.217V528ZM425.5,528a0.957,0.957,0,0,1,.266.533H425.5V528Zm-343.876.267a0.961,0.961,0,0,1,.266.533H81.623v-0.533Zm307.917,0a0.963,0.963,0,0,1,.266.533H389.54v-0.533Zm39.422,0a0.963,0.963,0,0,1,.266.533h-0.266v-0.533Zm3.462,0a0.957,0.957,0,0,1,.267.533h-0.267v-0.533Zm7.192,0h0.533v0.266A0.915,0.915,0,0,1,439.616,528.269ZM81.09,528.8a0.961,0.961,0,0,1,.266.533H81.09V528.8Zm55.4,0h0.533v0.266A0.911,0.911,0,0,1,136.494,528.8Zm248.784,0h0.533v0.266A0.915,0.915,0,0,1,385.278,528.8Zm24.772,0a0.963,0.963,0,0,1,.266.533H410.05V528.8Zm19.977,0a0.963,0.963,0,0,1,.267.533h-0.267V528.8Zm0.8,0a0.957,0.957,0,0,1,.267.533h-0.267V528.8Zm-380.368.266h0.533v0.267A0.913,0.913,0,0,1,50.458,529.068Zm29.833,0h0.533v0.267A0.913,0.913,0,0,1,80.291,529.068Zm7.192,0h0.533v0.267A0.913,0.913,0,0,1,87.483,529.068Zm59.665,0a0.957,0.957,0,0,1,.267.533h-0.267v-0.533Zm259.173,0h0.533v0.267A0.911,0.911,0,0,1,406.321,529.068Zm45.814,0a0.957,0.957,0,0,1,.267.533h-0.267v-0.533Zm-343.876.267a0.963,0.963,0,0,1,.267.533h-0.267v-0.533Zm48.745,0a0.963,0.963,0,0,1,.266.533H157v-0.533Zm235.2,0a1.291,1.291,0,0,1,.8.266A1.291,1.291,0,0,1,392.2,529.335Zm25.571,0a0.957,0.957,0,0,1,.267.533h-0.267v-0.533Zm3.73,0a1.29,1.29,0,0,1,.8.266H421.77C421.6,529.526,421.647,529.683,421.5,529.335Zm28.234,0h0.533V529.6A0.915,0.915,0,0,1,449.738,529.335Zm3.729,0H454V529.6A0.915,0.915,0,0,1,453.467,529.335Zm-65.259.266h0.533v0.267A0.914,0.914,0,0,1,388.208,529.6Zm-299.127.267h0.533C89.3,530.3,89.5,530.194,89.081,529.868Zm60.465,0.266a0.963,0.963,0,0,1,.266.533h-0.266v-0.533Zm15.715,0h0.533V530.4A0.914,0.914,0,0,1,165.261,530.134Zm-79.643.267a0.961,0.961,0,0,1,.266.533H85.618V530.4Zm18.113,0h0.533v0.266A0.915,0.915,0,0,1,103.731,530.4Zm8.524,0.266a0.967,0.967,0,0,1,.266.533h-0.266v-0.533Zm-63.928.267H48.86V531.2A0.913,0.913,0,0,1,48.327,530.934Zm70.054,0a0.957,0.957,0,0,1,.266.533h-0.266v-0.533Zm25.038,0a0.957,0.957,0,0,1,.267.533h-0.267v-0.533Zm20.777,0a0.963,0.963,0,0,1,.266.533H164.2v-0.533Zm-57.269.266h0.533v0.267A0.909,0.909,0,0,1,106.927,531.2Zm5.594,0h0.533C112.737,531.629,112.942,531.527,112.521,531.2Zm-44.216.267a1.287,1.287,0,0,1,.8.266A1.287,1.287,0,0,1,68.3,531.467Zm3.729,0h0.533v0.266A0.913,0.913,0,0,1,72.034,531.467Zm23.174,0a0.961,0.961,0,0,1,.266.533H95.207v-0.533Zm0.8,0a0.961,0.961,0,0,1,.266.533H96.007v-0.533Zm42.884,0h0.533v0.266A0.915,0.915,0,0,1,138.891,531.467Zm9.589,0a0.963,0.963,0,0,1,.267.533H148.48v-0.533Zm-65.792.266h0.533V532A0.907,0.907,0,0,1,82.688,531.733Zm4.528,0h0.533V532A0.907,0.907,0,0,1,87.217,531.733Zm67.124,0a1.291,1.291,0,0,1,.8.267A1.291,1.291,0,0,1,154.34,531.733Z"/>
</svg>
