<?xml version="1.0" encoding="utf-8"?>
<!-- Generator: Adobe Illustrator 24.0.0, SVG Export Plug-In . SVG Version: 6.00 Build 0)  -->
<svg version="1.1" id="Layer_1" xmlns="http://www.w3.org/2000/svg" xmlns:xlink="http://www.w3.org/1999/xlink" x="0px" y="0px"
	 viewBox="0 0 615 148" style="enable-background:new 0 0 615 148;" xml:space="preserve">
<style type="text/css">
	.st0{fill:#544E6A;}
</style>
<g>
	<path class="st0" d="M142.2,11.8L116,38.2H36.8V59H125l-24,24H36.8v67.2L1.2,129.8v-118H142.2z"/>
	<path class="st0" d="M284.2,150.2L248.6,130V96h-71.8v33.8l-35.6-0.2V38.2L168,11.8h89.4l26.8,26.4V150.2z M248.6,70V38.2h-71.8V70
		H248.6z"/>
	<path class="st0" d="M466.4,129.8h-47l-6.6-6.4l-6.6,6.4h-74.6L304.8,103V38.6l26.8-26.8h98.2l26.8,26.8v64.8h-25.8L466.4,129.8z
		 M421,103.4V38.2h-80.6v65.2H421z"/>
	<path class="st0" d="M606.6,102.9l-20.1,27.2H483.9l19.6-19.8h67.3l6.3-7.3l-6.4-8h-67.4l-19.5-26.2L504,41.6h102.6l-19.8,19.8
		h-67.2l-6.4,7.6l6.4,8h67.5L606.6,102.9z"/>
</g>
</svg>
