<svg width="100%" height="250" xmlns="http://www.w3.org/2000/svg" xmlns:svg="http://www.w3.org/2000/svg">
 <style>
 #el_TpySFbRmQF_an_kn2p2Gqij{
     fill:white;
     
 }
 #el_M1oQMkD8E1{
     fill:brown;
 }
 #el_hXFMEbGjEJ{
     fill:white;
 }
  #el_EW2Zvsqryy{
     fill:white;
 }

  #el_nZrGA7YXYB_an_r_S4PIerG{
     fill:grey;
 }
 #el_AlPMSKm5Ak_an_G-gaCMf4I{
     fill:grey;
 }
 #el_3c10RakTfi_an__HFCR86-G{
     fill:black;
 }

 #el_WtMY6M1Mzp_an_14yt2Rm1e{
     fill:puple;
 }
 #el_Fqwt2wEg3J_an_7DeuKbE63{
     fill:black;
 }
  #el_0m_nRcgjB_{
     fill:red;
 }
  #el_AKkPTMbjrs_an_s_Y7Ru9a0{
     fill:magents;
 }
  #el_AKkPTMbjrs_an_s_Y7Ru9a0{
     fill:black;
 }
 #el_Fqwt2wEg3J_an_7DeuKbE63{
     fill:black;
 }

 </style>
 <g>
  <title>Layer 1</title>
  <g id="el_TpySFbRmQF_an_kn2p2Gqij">
   <path id="el_TpySFbRmQF" d="m170.7,46.1c5.3,1.6 10.6,3 15.9,4.7c1.7,0.6 3.1,1.1 4.1,-0.7c1.1,-2 4.3,-3.1 2.7,-6.3c-2.7,-5.6 -5.1,-11.3 -8.7,-16.7c2.2,-0.4 3.2,1.3 4.5,2.3c26.6,22.7 42.1,51.3 45.7,86.2c3.3,32.2 -3.8,62 -23.5,87.7c-22.2,28.9 -52,42.7 -88.9,39.5c-18.1,-1.6 -34.7,-7.9 -50.3,-16.9c-1.5,-0.9 -3,-3.2 -5.3,-0.9c-0.7,0.7 -1.4,0 -1.9,-0.6c-2.6,-3.1 -6.1,-3 -9.7,-2.8c-4.4,0.2 -8.4,-1.1 -11.8,-3.9c-6.3,-5.2 -12.6,-10.5 -19,-15.7c-1.7,-1.4 -2,-2.3 -0.5,-4.1c5.3,-6.2 10.6,-12.5 15.6,-19c1.8,-2.3 2.8,-1.9 4.8,-0.2c6.1,5.3 12.3,10.4 18.6,15.5c3.9,3.2 5.5,7.4 6.2,12.2c0.4,2.7 1,5.2 3.4,6.9c1.5,1 3,1.9 0.9,4c-1.1,1 0.4,1.4 1.1,1.6c26,7.5 52.1,11.8 78.3,1.4c22.5,-8.9 37.4,-25.9 47.4,-47.2c20.8,-44.5 9.1,-94 -29,-125.1c-0.3,-0.3 -0.7,-0.4 -1.1,-0.7c0.1,-0.5 0.3,-0.9 0.5,-1.2z"/>
  </g>
  <path id="el_M1oQMkD8E1" d="m66.1,132.3c-0.4,-0.8 -0.6,-1.7 -1.1,-2.4c-8.3,-13.3 -4.5,-24.8 4.6,-36c13.5,-16.7 30,-28 51.6,-31.4c5.8,-0.9 11.7,-0.6 17.5,-0.6c1.6,0 2.4,0.9 2.7,2.3c0.2,1.1 0.3,2.3 0.3,3.5c0.3,38.2 0.6,76.5 0.9,114.7c0.1,7.2 -1.3,14 -4.9,20.2c-0.6,1 -1,2.4 -2.4,2.2c-1.3,-0.2 -1.6,-1.5 -1.9,-2.7c-1.8,-6.5 -2.1,-13.3 -2.3,-19.9c-0.5,-13.2 -0.6,-26.4 -0.7,-39.5c0,-2.6 -0.7,-3.1 -3.2,-3.1c-12.2,-0.1 -24.3,-0.3 -36.5,-0.5c-1.3,0 -2.8,0.1 -3.8,-0.5c-2.3,-1.4 -5.6,-2.8 -4.8,-6.1c0.9,-3.6 4,-5.3 7.7,-5.3c11.7,-0.1 23.5,-0.2 35.2,0c4.2,0.1 5.5,-0.9 5.4,-5.3c-0.3,-15.2 -0.2,-30.5 0.1,-45.7c0.1,-3.6 -2,-2.7 -3.6,-2.5c-11.6,1.2 -22.2,5.2 -31.4,12.4c-14.4,11.1 -22.7,26.1 -27.8,43.2c-0.4,1 -0.4,2.2 -1.6,3z"/>
  <path id="el_hXFMEbGjEJ" d="m174,178.4c3.9,-4.7 7.4,-9.7 9.7,-15.5c1.7,-4.3 1.6,-8.5 0.2,-12.8c-2.3,-6.8 -6.3,-12.5 -10.3,-18.2c-3.4,-4.8 -6.6,-9.7 -9,-15c-2.5,-5.5 -1.5,-10.7 1.6,-15.8c-1.5,12.2 4.2,21.5 11.2,30.5c2.9,3.7 5.3,7.7 7.4,11.9c5.4,10.8 4.1,20.9 -3.9,30c-1.8,2.1 -3.9,3.9 -5.9,5.9c-0.9,0.3 -1.1,-0.2 -1,-1z"/>
  <path id="el_EW2Zvsqryy" d="m168.8,169.5c-1.3,-1 -0.2,-1.8 0.3,-2.6c6.9,-9.4 4.8,-18.8 -0.6,-27.8c-4,-6.6 -8.6,-12.9 -12.8,-19.4c-3.8,-6 -5.1,-12.4 -2.6,-19.2c0.3,-0.7 0.1,-2.4 1.8,-1.8c1.2,0.4 0.7,1.4 0.5,2.2c-2.3,9.1 1.2,16.6 6.7,23.5c4.3,5.4 8.4,10.9 11.7,16.9c5.7,10.7 4.8,19.7 -3.2,29.1c-1.1,0.6 -1.4,-0.2 -1.8,-0.9z"/>
  <g id="el_nZrGA7YXYB_an_r_S4PIerG">
   <path id="el_nZrGA7YXYB" d="m14.7,170.4c6.3,-7.3 6.3,-7.3 13.6,-1.1c2.7,2.3 5.4,4.5 8,6.7c0.8,0.7 2.2,1.3 0.9,2.7c-2.8,3 -4.8,6.9 -8.4,9.2c-0.2,0 -0.4,-0.1 -0.6,-0.1c-2.3,-1 -2.6,-3.1 -2.8,-5.3c-0.2,-0.3 -0.4,-0.7 -0.6,-1c-1.2,-1.6 -2.7,-1.9 -4.6,-1.8c-2.3,0.1 -4.4,-1.1 -3.7,-3.6c0.7,-2.5 -3.3,-3.2 -1.8,-5.7z"/>
  </g>
  <g id="el_AlPMSKm5Ak_an_G-gaCMf4I">
   <path id="el_AlPMSKm5Ak" d="m28.8,188c-4.9,9.7 -5.5,9.9 -13.7,3c-2.9,-2.4 -5.8,-5 -8.8,-7.3c-1.3,-1 -1.2,-1.6 -0.2,-2.7c2.6,-2.9 4.7,-6.3 7.8,-8.8c1.6,0.9 3.2,1.6 2.6,4.3c-0.5,2.2 2,3.9 3.4,3.3c3.2,-1.5 4.4,1 6.4,2.1l0,0c-1.5,3 0.1,4.7 2.5,6.1l0,0z"/>
  </g>
  <g id="el_3c10RakTfi_an__HFCR86-G">
   <path id="el_3c10RakTfi" d="m146.8,37.8c0,-14.3 9.5,-26.5 23.1,-29.8c1.2,-0.3 2.8,-1.5 3.4,1c0.6,2.3 -0.7,2.5 -2.4,3c-12.4,3.5 -19.9,13.3 -20,25.6c0,1.7 2,5 -1.8,5.1c-4.2,0.2 -1.3,-3.5 -2.3,-4.9z"/>
  </g>
  <g id="el_WtMY6M1Mzp_an_14yt2Rm1e">
   <path id="el_WtMY6M1Mzp" d="m156,37.8c0.1,-9.5 6.6,-17.9 15.8,-20.1c1.2,-0.3 2.6,-1.4 3.3,1.1s-1,2.3 -2.2,2.7c-8.5,3.1 -13.1,9 -12.9,17.2c0,2.1 0,4 -2.5,3.8c-2.3,-0.2 -1,-2.5 -1.4,-3.8c-0.1,-0.3 -0.1,-0.6 -0.1,-0.9z"/>
  </g>
  <g id="el_Fqwt2wEg3J_an_7DeuKbE63">
   <path id="el_Fqwt2wEg3J" d="m165.8,38.6c-0.1,-5.8 3.8,-11.1 9,-12.4c0.8,-0.2 2.3,-1.6 2.8,0.4c0.4,1.3 0.6,2.7 -1.4,3.5c-3.8,1.5 -6.2,4.4 -6.3,8.6c-0.1,1.8 -0.9,2.4 -2.3,2.5c-2.3,0 -1.6,-1.8 -1.8,-2.6z"/>
  </g>
  <g id="el_AKkPTMbjrs_an_s_Y7Ru9a0">
   <path id="el_AKkPTMbjrs" d="m181.5,35.6c2.5,0.2 4.1,1.7 4,4.2c0,2.5 -1.5,4.1 -4.2,4.1s-4.2,-1.7 -4.2,-4.1c0.1,-2.4 1.6,-4.1 4.4,-4.2z"/>
  </g>
 </g>
</svg>