<svg xmlns="http://www.w3.org/2000/svg" width="500" height="500" viewBox="0 0 500 500">
  <defs>
    <style>
      .cls-1 {
        fill: #fed2d2;
      }

      .cls-2 {
        fill: #cb1212;
        fill-rule: evenodd;
      }
    </style>
  </defs>
  <circle class="cls-1" cx="249.5" cy="249.5" r="149.5"/>
  <path id="Color_Fill_1" data-name="Color Fill 1" class="cls-2" d="M242.489,138h6.343c0.067,2.27,0,5.566,0,8.724,2.317,0.786,6.443.363,9.347,0.336,1.828,1.138,5.3-.574,8.012,0,4.678,0.99,18.658.935,23.368,0q0.166-.5.334-1.007c-0.392-.726-0.044-3.651,0-5.369h6.342v46.64c8.769,36.325,18.494,71.027,33.717,100.661,1.424,2.771,1.907,5.287,3.339,8.053,2.642,5.1,6.043,10.355,8.679,15.435,1.108,2.134,2.6,6.847,4.34,8.053,2.385,1.652,6.847,2.548,9.681,3.691,1.968,0.793,3.409,2.416,6.009,2.684V341H138V326.572h7.678q0.166-7.046.334-14.093h-0.668c-1.025,2.336-5.228,5.038-7.344,6.376v-3.691c4.528-2,7.029-7.7,10.015-11.409C162.7,285.535,162.674,257.01,162.7,223.9l1-.336a3.862,3.862,0,0,1,2-.336v0.336h0.334a3.545,3.545,0,0,0,.334,2.013c1.812,1.154,12.315.373,15.356,0.336a7.168,7.168,0,0,1,.667-2.349,3.605,3.605,0,0,1,2-.336,1.162,1.162,0,0,0,.334.672c-1.175,6.388,1.532,12.5,3.339,16.776,4.327,10.254,8.349,15.482,15.69,22.481,2.533,2.416,7.9,8.091,11.684,8.724,3.783-6.065,8.907-11.547,12.017-18.454,1.071-2.376,1.046-4.172,2-6.711,5.5-14.6,9.261-31.343,13.02-47.982V138Zm8.012,16.106a139.592,139.592,0,0,0,.334,14.092q0.166,28.686.333,57.377h0.668c1.219,0.752,4.248.336,6.677,0.336H274.2c1.452-6.233,4.184-12.9,6.342-18.79,0.969-2.644.766-4.663,1.67-7.382,2.586-7.779,5.088-16.649,7.344-24.83v-20.8a19.135,19.135,0,0,0-5.341-.336c-1.76,1.1-6.86.336-9.348,0.336H250.5Zm38.724,30.869c-0.58,2.906-1.977,5.812-2.671,8.389-1.484,5.517-2.492,12.483-4.673,18.454-1.495,4.092-3.851,8.986-4.34,13.757h0.668c1.982,1.273,8.232.381,11.016,0.336,0.816-2.434.334-6.7,0.334-9.731v-20.8C289.559,192.665,290.434,186.913,289.225,184.975ZM341.636,319.19c-0.361-2.434-2.013-4.207-3-6.04-2.755-5.091-5.188-10.407-7.678-15.434-8.274-16.7-15.3-34.442-22.033-52.344-3.963-10.538-6.252-21.876-9.347-32.883-1.209-4.3-.537-11.349-3-14.763-0.867,7.673-.334,16.921-0.334,25.165,0,4.815-.567,10.879.334,15.1v66.1H296.9v0.335c2.961,0.19,5.37,1.858,7.678,2.685,7.346,2.632,14.073,3.955,21.365,6.71C330.563,315.566,336.126,318.821,341.636,319.19ZM242.155,211.818c-0.621,6-3.006,12.761-4.674,18.119-3.318,10.662-5.5,20.454-10.682,28.856-3.015,4.888-4.965,10.619-9.014,14.428a1.162,1.162,0,0,0,.334.672c1.1,1.711,11.055,7.119,13.687,7.381,2.4-1.67,9.187-3.482,10.349-6.039v-21.81c1.134-1.824.334-7.161,0.334-9.731V220.878C242.489,217.829,243.459,213.9,242.155,211.818ZM180.73,229.937H167.043v0.671c-1.79,2.758,1.189,6.2,2,7.718,1.905,3.549,3.418,7.171,5.675,10.4,1.679,2.4,3.977,4.637,5.675,7.047h0.334V229.937Zm73.443,6.711a6.165,6.165,0,0,1-3,.335c-1.014,3.037-.361,8.408-0.333,12.08,1.93,2.589,4.993,13.055,7.678,13.757,0.9-3.4,3.944-6.589,5.675-9.395a76.807,76.807,0,0,0,7.344-16.777H254.173Zm20.7,0c-0.257.229-.745,0.44-1,0.671-2.176,2.507-3.036,6.807-4.34,10.066a90.175,90.175,0,0,1-7.01,13.086c-1.153,1.864-2.7,2.877-3,5.7,2.293,2.555,3.339,6.625,5.008,9.731,2.9,5.391,6.172,11.2,9.347,16.441,1.442,2.38,2.126,4.89,3.672,7.046a41.023,41.023,0,0,0,11.684,3.02v-0.671c1.321-2.145.334-14.262,0.334-17.783v-46.64h-0.334v-0.336C284.834,236.686,280.271,236.648,274.87,236.648ZM184.4,237.99c-0.015,8.523.279,16.4,0.334,23.823,1.984,1.32,3.287,3.451,5.008,5.033a49.021,49.021,0,0,0,12.685,8.724c1.391,0.632,5.349,3.476,6.677,2.685a11.35,11.35,0,0,0,4.34-4.7c-6.7-2.878-17.441-14.09-21.366-20.132a67.144,67.144,0,0,1-5.007-9.4C186.152,241.892,186.014,239.388,184.4,237.99Zm-17.693,20.8h12.018v-1.677c-3.394-2.674-9.9-13.1-11.35-17.784h-0.668v19.461Zm84.126-5.033c-0.047,4.791-1.031,12.02.333,16.106a1.148,1.148,0,0,0,.668-0.335,6.257,6.257,0,0,0,4.34-5.369C253.684,261.392,253.43,256.425,250.835,253.76Zm-79.786,6.376c-0.665.448-2.172,0.37-3.338,0.335v0.671a48.893,48.893,0,0,1,7.344,9.06h0.334v-0.336c1.363-1.219,3.494-7.572,4.006-9.73h-8.346Zm10.683,1.677c-0.651,1.749-4.459,9.654-4.006,10.4,0.8,1.285,2.5,3.482,4.006,4.026C182.207,272.567,183.385,264.349,181.732,261.813Zm-14.689,1.007c-0.233,4.423,0,10.984,0,16.441,0,2.654-.362,6.3.334,8.389a1.208,1.208,0,0,0,.334-0.671c1.51-1.614,6.511-11.976,6.676-14.764C171.868,269.708,170.327,264.37,167.043,262.82Zm-3.338,1.342c-1.373,8.124-2.169,16.551-5.008,23.488-2.407,5.882-5.621,11.2-8.345,16.776h0.334c1.608-2.077,4.171-3.186,6.008-5.033a55.961,55.961,0,0,0,4.674-6.039l2.671-2.349V264.162h-0.334Zm21.031,0.671c-0.02,4.88-.5,11.071,0,14.093,5.191,1.385,13.5,3.18,19.7,1.006a1.2,1.2,0,0,0-.667-0.335c-2.2-2.561-6.752-3.175-9.348-5.369C191.924,272.121,187.245,265.975,184.736,264.833Zm80.453,18.79c-0.324-4.767-5.186-10.582-7.01-14.763h-0.668c-1.385,1.882-5.947,4.412-6.676,6.039V291.34h0.333l-0.333.672h0.333c0.563,0.89,2.19,1.813,3,1.342,0.989-.278.912-0.149,1.335-1.007,1.171-1.511.719-5.793,0.668-8.388C258.406,283.2,262.379,283.6,265.189,283.623Zm-89.466-9.395c-0.907,4.5-3.947,7.67-4.674,12.415h0.334c2.748-2.177,7.441-1.889,10.349-4.026a2.923,2.923,0,0,0,.334-1.678c-0.406-.6,0-0.587-0.334-1.007C181.2,278.481,177.276,274.721,175.723,274.228Zm40.059,1.342c-0.7,2.012-2.686,2.827-3.672,4.7,4.439,0.09,9.5,1.111,13.687,1.006v-0.335C223.065,279.444,218.78,276.171,215.782,275.57Zm26.373,14.764V278.255h-0.334c-3.088,2.813-12.742,6.348-19.028,5.7-3.115-.319-8.279-1.058-10.683-0.671v0.335h0.334c0.6,0.706.974,0.672,2.337,0.671,2.608,1.8,6.123,1.45,9.681,2.349C229.9,288.016,235.807,289.974,242.155,290.334Zm-30.712-7.382c-0.112.224-.223,0.447-0.334,0.671C211.691,283.154,211.443,282.952,211.443,282.952Zm55.082,2.684,0.333,11.073h0.668c1.2,0.784,4.007.953,5.675,1.007V297.38C271.047,294.96,269.033,286.908,266.525,285.636ZM184.736,313.15a9.678,9.678,0,0,1,2.671.671,18.383,18.383,0,0,1,.668,5.034,96.892,96.892,0,0,0,10.682.335q0.334,2.517.668,5.033c3.48,0.373,6.444-.127,10.015.336,0.152-.318.674-3.108,1-3.356h12.686v0.336h0.334c-0.067,1.67-.188,2.185,1,2.684,1,0.658,3.765.379,5.341,0.336v-0.671c1.43-2.211.71-8.065,0.668-11.409,2.933-.99,8.124-0.363,11.684-0.335a23.663,23.663,0,0,0,0-5.7c-3.008-.9-5.732-3.415-8.346-4.7H232.14c-2.195-1.007-4.8-2.981-7.01-4.026-5.772-2.735-12-4.1-17.693-6.711-0.929-.427-4.493-0.465-5.342-0.671-2.736-.663-16.007-0.265-17.359.671-1.074,1.7-.371,11.243-0.334,14.093C185.343,306.561,184.78,311,184.736,313.15Zm-13.353,11.409h6.343v-0.671c1.158-1.816.378-7.484,0.334-10.067a6.088,6.088,0,0,1,2-.335,3.6,3.6,0,0,1,2-.336V291.676c-5.756.313-10.756,3.513-15.023,5.7v28.856a13.628,13.628,0,0,0,4.006.336V325.9A2.273,2.273,0,0,0,171.383,324.559Zm-6.677,2.013V299.058c-3.734.629-8.78,5.972-11.684,8.053-1.821,1.305-4.846,1.811-5.675,4.026h-0.334v0.336h0.668c2.584,1.563,8.332-.651,10.683,1.006,1.037,1.641.371,10.675,0.333,13.422C160.076,326.636,162.41,326.614,164.706,326.572Zm90.8-2.013a27.55,27.55,0,0,1,.668-3.691q-0.334-5.2-.668-10.4a20.784,20.784,0,0,0-4.34.336c-0.581,1.719-.359,4.78-0.333,7.046,0.725,1.115.377,4.315,0.333,6.04A13.028,13.028,0,0,0,255.508,324.559Zm11.35,0c3.692,0.035,8.206.288,11.351-.336v-0.335l-11.351-5.7v6.376Z"/>
</svg>
