<svg xmlns="http://www.w3.org/2000/svg" width="500" height="500" viewBox="0 0 500 500">
  <defs>
    <style>
      .cls-1 {
        fill: #a1eeb1;
      }

      .cls-2 {
        fill: #1a4d25;
        fill-rule: evenodd;
      }
    </style>
  </defs>
  <circle class="cls-1" cx="249.5" cy="249.5" r="149.5"/>
  <path id="Color_Fill_1" data-name="Color Fill 1" class="cls-2" d="M336.4,188.726v13.82c2.646,1.373,5.037,4.71,7.337,5.69H373.9c0.833,0.654.224,0.289,1.631,0.813a14.669,14.669,0,0,0,2.446,3.252c0.077,5.072-.026,10.739-0.816,14.633l-2.445.812c-6.834,4.145-22.549-2.571-29.348,1.626-8.273,2.51-9.423,8.048-8.967,19.51h-18.75c-2.338,16.682-22.465,36.176-35.869,42.272-3.973,1.807-19.4,4.553-21.195,7.316-5.466,6.91-3.664,27.516-1.63,36.581,2.254,1.349,4.364,3.305,7.336,4.065,12.286,3.139,40-6.095,44.021,4.877,2.356,2.877,1.686,9.12.816,13.007H188.847v-1.626c-2.56-3.683.366-10.944,1.63-13.819,11.35-6.08,45.126,3.748,49.728-8.942,3.995-4.948,1.286-31.352-1.631-34.956-2.486-1.894-5.418-1.292-8.967-2.439-6.442-2.081-14.1-5.322-19.565-8.942a80.354,80.354,0,0,1-22.01-22.761l-6.522-14.633H163.575c0.078-5.072-.025-10.739-0.815-14.632-3.046-.956-6.177-3.545-8.152-5.691H124.446A14.663,14.663,0,0,0,122,225.308v-13.82c7.109-4.609,22.306-3.386,34.239-3.252,1.917-2.641,5.05-3.428,6.521-6.5,1.6-2.423.921-9.169,0.815-13.007h20.381c9.579-21.295,21.493-35.648,44.836-43.084,4.5-1.434,8-.5,13.043-1.626,7.444-1.667,18.911-1.174,26.087.813,6.05,1.676,13.58,4.133,18.75,7.316a76.827,76.827,0,0,1,23.64,23.575q2.446,6.5,4.892,13.006H336.4Zm-92.933-40.645c-4.805,2.912-12.769,1.952-17.935,4.064-12.6,5.154-28.889,16.353-32.608,30.078h0.815c12.308-20.946,52-35.884,83.151-22.761,7.858,3.31,15.462,8.879,22.011,13.819,3.218,2.428,4.7,6.6,8.152,8.942C296.7,160.217,276.211,147.955,243.466,148.081Zm2.445,11.381c-4.8,2.912-15.695,2.56-21.195,4.877-12.134,5.112-24.054,14.786-30.978,25.2-28.11,42.285,1.845,92.83,41.576,101.615v-1.626q-4.077-4.47-8.152-8.942c-15.528-11.285-26.656-15.937-33.424-36.581-11.719-35.748,12.636-64.069,36.684-73.163,6.14-2.321,17.013-6.317,26.9-4.064,25.493,5.806,43,18.075,50.543,41.458,1.456,4.51.49,7.79,1.63,13.007,1.482,6.777.473,16.432-1.63,22.762a70.731,70.731,0,0,1-7.337,15.445c-7.53,11.271-31.361,21.733-35.054,31.7h0.815c5.262-3.632,12.592-4.019,17.935-7.316,10.764-6.643,21.689-18.012,26.9-30.078C332.291,204.775,294.2,159.217,245.911,159.462ZM168.467,193.6v50.4H179.88c-0.441-7.7-3.778-17.507-1.631-26.826,1.975-8.572,5.274-15.941,7.337-23.575H168.467Zm145.921,0,6.522,19.51c2.621,10.394-.612,21.145-0.815,30.891h11.413V193.6h-17.12Zm-187.5,30.078H148.9v-0.813c-2.525-3.1-.946-6.128,0-9.755h-21.2v0.813h-0.815v9.755Zm224.182-10.568a31.042,31.042,0,0,1,0,10.568h21.195c0.815-2.352.864-6.239,0.815-9.755h-0.815v-0.813H351.073ZM307.052,352.123a16.543,16.543,0,0,0-1.631-7.317c-10.408-3.462-28.616-.882-40.76-0.813-1.6-1.269-4.2-1.923-6.522-2.438-2.016-3.056-4.659-5.587-5.706-9.755-1.595-6.347-.352-18.469.815-23.575,2.588-11.328,3.885-20.069,11.413-26.013,14.235-11.24,36.942-20.416,38.315-43.9-15.248-1.085-25.528,1.8-36.685,6.5-6.165,2.6-15.87,8.686-26.9,5.69-14.845-4.032-24.126-22.128-42.391-18.7v4.065c1.7,2.41,1.214,5.878,2.446,8.942A70.25,70.25,0,0,0,207.6,259.45c5.812,7.818,14.848,11.29,22.825,17.071,13.2,9.569,16.439,25.511,16.3,48.775-0.034,5.876-1.388,8.075-2.445,12.194-13.284,8.656-27.4,6.589-48.913,6.5q-0.406,1.219-.815,2.439a4.992,4.992,0,0,0-.815,4.878c4.089,2.531,24.324.813,30.978,0.813h82.336Z"/>
</svg>
