<svg xmlns="http://www.w3.org/2000/svg" width="500" height="500" viewBox="0 0 500 500">
  <defs>
    <style>
      .cls-1 {
        fill: #c7cee9;
      }

      .cls-2 {
        fill: #154e88;
        fill-rule: evenodd;
      }
    </style>
  </defs>
  <circle class="cls-1" cx="249.5" cy="249.5" r="149.5"/>
  <path id="Color_Fill_1" data-name="Color Fill 1" class="cls-2" d="M249.433,177c2.99,0.242,10.955,6.032,13.6,7.669,8.935,5.528,18.25,9.852,27.2,15.339,3.723,2.281,10.017,7.054,14.168,8.237v0.284h-6.234c-1.912-2.3-8.452-4.763-11.335-6.533-8.121-4.986-16.678-9.439-24.936-14.486-3.017-1.844-6.214-3.478-9.352-5.4-0.651-.4-1.775-1.873-2.833-1.7-0.638.1-1.721,1.369-2.267,1.7-3.129,1.917-6.358,3.558-9.352,5.4-8.772,5.389-17.893,9.638-26.637,15.054-2.534,1.57-5.269,2.916-7.934,4.545a19.919,19.919,0,0,1-1.7,1.42,13.7,13.7,0,0,1-6.234-.284h0.566c3.284-3.165,9.271-5.188,13.319-7.669,8.44-5.174,17.343-10.154,25.787-15.339,3.6-2.208,7.291-4.115,10.768-6.249C247.262,178.234,248.573,178.091,249.433,177Zm47.89,46.3H367.6v0.568c0.981,1.443,2.925,11,3.117,13.35H297.323V309.65h0.284a1.9,1.9,0,0,1,1.133-.284V238.922H371V323H264.452V292.891c0-4.484.764-10.66-.567-14.2-1.88-5-6.283-8.353-11.9-9.658-3.84-.892-7.428,1.011-9.352,2.273-9.794,6.422-7.367,17.793-7.367,33.233,0,5.889-.767,13.1.283,18.463H129V238.922h72.26v63.911c0,2.173-.274,5.118.283,6.817a4,4,0,0,1,1.134-.284V237.218H129.283c0.108-4.745,2.1-9.5,3.117-13.918h70.277V209.665c3.458-.881,9.121-5.207,12.185-7.1,8.286-5.123,16.914-9.119,25.22-14.2,2.364-1.447,4.875-2.741,7.368-4.261,0.507-.309,1.724-1.589,2.267-1.7,0.867-.184,2.281,1.364,2.833,1.7,2.627,1.614,5.356,3.108,7.935,4.545,8.936,4.978,17.752,10.05,26.353,15.338,3.155,1.94,6.406,3.37,9.352,5.4l1.133,0.284V223.3Zm-71.41-17.611h2.551c0.094-.284.189-0.568,0.283-0.852-0.592-.625-0.486-1.048-1.417-1.421-1.117-1.056-3.9-.517-5.1,0a3.853,3.853,0,0,0-.567,3.409c1.219,0.635,4.192,1.267,4.534,2.84a6.048,6.048,0,0,1-1.984.284c-0.573-1.3-.855-1.5-2.834-1.42a4.489,4.489,0,0,0-.283,1.42,1.02,1.02,0,0,1,.283.569,7.048,7.048,0,0,1,1.417,1.136,13.741,13.741,0,0,0,4.818-.284c0.7-1.063,1.283-1.346,1.416-3.125a5.551,5.551,0,0,1-.566-1.136c-1.053-.487-3.23-0.954-4.251-1.7a1.026,1.026,0,0,1-.283-0.568,4.4,4.4,0,0,1,1.417-.284,1.025,1.025,0,0,0,.566.284v0.852ZM233,202.848c-0.808.786-1.738,1.51-2.551,2.273-0.272,2.488-.446,5.155,1.7,5.965,1.307,1.267,3.434.713,5.1,0.284,0.623-.939,1.187-1.117,1.417-2.557h-0.283v-0.284c-0.92-.127-1.61-0.5-1.984-0.284-0.885.961-.57,1.4-2.55,1.42-0.1-.189-0.189-0.378-0.284-0.568a2.329,2.329,0,0,1,1.984-3.976,2.121,2.121,0,0,0,1.133,1.136c0.745-.5,1.512-0.3,1.984-1.136a12.62,12.62,0,0,0-1.7-1.705C236.128,202.749,234.56,202.807,233,202.848Zm7.367,0v8.806H243.2v-3.409h2.55v3.409h2.834v-8.806h-2.55a10.533,10.533,0,0,0-.284,3.125H243.2v-2.841A9.314,9.314,0,0,0,240.365,202.848Zm13.035,0a3.306,3.306,0,0,1-1.416.568c-0.649,1-1.255,1.257-1.417,2.841-0.738,1.078.021,2.7,0.283,3.692,1.311,1.027,3.884,3.176,6.234,1.421,1.332-.458,1.429-1.385,2.267-2.273a30.677,30.677,0,0,0-.283-4.26,17.026,17.026,0,0,1-2.55-1.989H253.4Zm10.2,0c-0.893.833-1.8,0.945-2.267,2.273-1.535,1.81-.251,5.408,1.417,5.965,1.567,1.518,3.942.5,5.667,0,1.26-2.034,1.53-3.737.85-6.533C267.546,203.4,266.826,202.807,263.6,202.848Zm7.934,0v8.806h6.8a6.131,6.131,0,0,0,.284-1.989h-0.284v-0.284H274.37v-6.533h-2.834Zm-17.569,2.273h1.984c0.094,0.284.189,0.568,0.283,0.852a6.079,6.079,0,0,1,.284,2.84,3.436,3.436,0,0,1-2.551.852c-0.094-.189-0.189-0.378-0.283-0.568C252.65,207.842,253.336,206.2,253.967,205.121Zm10.485,0h1.7c1.154,1.764,1.551,4.6-1.7,4.544a5.139,5.139,0,0,0-.85-1.136q0.141-1.561.283-3.124A0.97,0.97,0,0,0,264.452,205.121Zm-53.841,35.5H229.03V221.6c-3.523-1.173-13.624-.305-18.135-0.284C209.659,225.041,210.59,235.857,210.611,240.626Zm20.12-19.315v19.315H249.15V221.311H230.731Zm20.119,0v19.315h18.419V221.311H250.85Zm20.12,19.315h18.419V221.6c-3.524-1.173-13.624-.305-18.136-0.284C270.018,225.041,270.949,235.857,270.97,240.626Zm-52.141-17.042v6.249H212.6c0.036-1.987.235-4.732-.284-6.249h6.518Zm1.984,0h6.517v6.249h-6.517v-6.249Zm11.618,0h6.517v6.249h-6.517v-6.249Zm8.5,0h6.518v6.249h-6.518v-6.249Zm11.618,0h6.518v6.249H252.55v-6.249Zm8.5,0h6.517v0.284c-0.707,1.09-.321,4.324-0.283,5.965h-6.234v-6.249Zm11.618,0h6.517v6.249H272.67v-6.249Zm8.5,0H287.4v6.249h-6.234v-6.249ZM212.6,231.821h6.234v6.817c-1.6-.129-3.913,0-6.234,0v-6.817Zm8.218,0h6.517c0.037,2.144.284,5.154-.283,6.817-1.311-.119-4.093,0-6.234,0v-6.817Zm18.135,0v6.817h-6.234c-0.094-.284-0.189-0.568-0.283-0.852,0.25-.694.024-4.032,0-5.681C234.029,231.562,236.878,231.8,238.948,231.821Zm1.984,0h6.234c0.542,1.6.306,4.458,0.284,6.533-1.6.543-4.448,0.306-6.518,0.284v-6.817Zm11.618,0h6.518v6.817c-1.946.051-5.625,0.182-6.234-.284C252.066,237.165,252.513,233.582,252.55,231.821Zm8.5,0h6.234c0.032,1.812.4,5.708,0,6.533-1.137.739-4.538,0.322-6.234,0.284v-6.817Zm11.618,0h6.517v6.533c-1.306.447-3.626,0.306-5.384,0.284-0.5-.345-0.5,0-0.85-0.284C272.185,237.165,272.632,233.582,272.67,231.821Zm8.5,0H287.4v6.817h-6.234v-6.817ZM210.611,244.6v19.315H229.03V244.6H210.611Zm20.12,0v19.315H249.15V244.6H230.731Zm20.119,0v19.315h18.419V244.6H250.85Zm20.12,0v19.315h18.419V244.6H270.97Zm-130.068.852v29.257h21.536c0.782-2.371.283-6.483,0.283-9.373V245.455H140.9Zm28.054,0v29.257h21.819V245.455H168.956Zm140.269,0v29.257h21.819V245.455H309.225Zm28.054,0v29.257H359.1V245.455H337.279Zm-118.45,7.67H212.6v-6.534h0.283c1.03,0.7,4.868.393,5.951,0v6.534Zm8.5-6.25v6.25h-6.517v-6.534H221.1C222.233,247.331,225.634,246.913,227.33,246.875Zm11.618,6.25h-6.517c-0.048-2.813-.077-5.392.283-6.534a13.193,13.193,0,0,0,6.234,0v6.534Zm8.5,0h-6.518v-6.534h0.283c1.268,0.791,5.2-.181,5.951.284C247.9,248.015,247.487,251.424,247.45,253.125Zm11.618,0H252.55v-6.25c2.061,0.037,4.932.261,6.518-.284v6.534Zm1.984,0v-6.534h0.283c1.267,0.791,5.2-.181,5.951.284h0.283c-0.547,1.639-.166,4.989-0.283,6.25h-6.234Zm18.135,0H272.67v-6.25c2.06,0.037,4.931.261,6.517-.284v6.534Zm8.218,0h-6.234v-6.534h0.283c1.03,0.7,4.868.393,5.951,0v6.534Zm-144.52-5.4h7.651V255.4c-2.374.037-5.77,0.358-7.651-.284C143.159,253.726,142.9,250.038,142.885,247.728Zm17.569,0V255.4c-2.374.037-5.77,0.358-7.651-.284,0.3-1.008-.219-5.7.284-6.817C153.819,247.147,158.641,247.663,160.454,247.728Zm10.768,0h7.368V255.4h-7.368v-7.669Zm9.919,0h7.367V255.4h-7.367v-7.669Zm130.351,0h7.367V255.4h-7.367v-7.669Zm9.918,0h7.368V255.4H321.41v-7.669Zm18.136,0h7.367V255.4h-7.367v-7.669Zm9.918,0c2.374-.038,5.77-0.358,7.651.284-0.5,1.558.24,6.217-.284,7.1-1.334.862-5.429,0.322-7.367,0.284v-7.669ZM212.6,255.113h6.234v6.533H212.6v-6.533Zm8.218,0h6.517v6.533h-6.517v-6.533Zm11.618,0h6.517v6.533h-6.517v-0.568C232.7,260.32,232.456,256.834,232.431,255.113Zm8.5,0h6.518v6.533h-6.518v-6.533Zm11.618,0h6.518v6.533H252.55v-6.533Zm8.5,0h6.234c-0.037,2.065-.26,4.943.283,6.533h-6.517v-6.533Zm11.618,0h6.517v6.533H272.67v-6.533Zm8.5,0H287.4v6.533h-6.234v-6.533Zm-138.286,2.556h7.651v14.487h-7.651V257.669Zm17.569,0v14.487H152.8v-0.284c0.879-1.359.3-13.314,0-14.2h7.651Zm10.768,0h7.368v14.487h-7.368V257.669Zm9.919,0h7.367v14.487h-7.367V257.669Zm130.351,0h7.367v14.487h-7.367V257.669Zm9.918,0h7.368v14.487H321.41V257.669Zm18.136,0h7.367v14.487h-7.367V257.669Zm9.918,0h7.651v0.284c-1.037,1.645-.315,11.44-0.284,14.2h-7.367V257.669ZM208.911,309.934H229.03V286.926c0-3.743.526-8.457-.566-11.362a11.208,11.208,0,0,0-2.834-3.692c-1.532-1.518-4.765-3.778-8.5-2.841a11.23,11.23,0,0,0-7.935,7.1c-0.941,2.815-.283,7.461-0.283,10.794v23.008Zm62.059,0h20.119V286.926c0-3.322.67-8-.283-10.794a11.227,11.227,0,0,0-7.935-7.1c-3.8-.93-6.945,1.3-8.5,2.841a11.024,11.024,0,0,0-3.117,4.544c-0.883,3.029-.283,7.564-0.283,11.078v22.44Zm-44.207-1.988H211.178V276.984a8.868,8.868,0,0,1,5.667-5.68,8.616,8.616,0,0,1,8.218,2.556c1.91,2.6,1.7,6.738,1.7,11.362v22.724Zm62.059,0H273.237v-22.44c0-4.7-.235-8.988,1.7-11.646a8.567,8.567,0,0,1,8.218-2.556,8.87,8.87,0,0,1,5.667,5.68v30.962ZM140.9,280.677v29.257h21.819V280.677H140.9Zm28.054,0v29.257h21.819V280.677H168.956Zm140.269,0v29.257h21.819V280.677H309.225Zm28.054,0v29.257H359.1V280.677H337.279Zm-186.743,9.942h-7.651v-0.568c0.344-.951.026-4.88,0-6.818,2.375,0.038,5.771.358,7.651-.284v7.67Zm9.918,0H152.8c0.1-1.2.707-7.324,0-7.386h7.368v-0.284h0.283v7.67Zm18.136,0h-7.368v-7.67h0.284c1.16,0.78,5.851.443,7.084,0v7.67Zm9.918,0h-7.367v-7.67h0.283c1.16,0.78,5.851.443,7.084,0v7.67Zm130.351,0h-7.367v-7.386c2.3,0.038,5.561.334,7.367-.284v7.67Zm9.919,0H321.41v-7.67h0.283c1.161,0.78,5.851.443,7.085,0v7.67Zm18.135-7.386v7.386h-7.367v-7.67h0.283C341.114,283.781,345.036,283.271,346.913,283.233Zm9.918,0c-0.037,2.3-.332,5.575.284,7.386h-7.651v-7.67h0.283C351.032,283.781,354.954,283.271,356.831,283.233ZM150.536,307.661h-7.367l-0.284-.852c0.692-1.451.024-10.723,0-13.634a4.464,4.464,0,0,1,1.417-.284,38.817,38.817,0,0,0,6.234,0v14.77Zm9.918-14.77v14.77c-2.374.038-5.77,0.358-7.651-.284,0.37-1.66-.243-13.246.284-14.2C154.421,292.313,158.516,292.853,160.454,292.891Zm10.768,0h7.368v14.77h-7.368v-14.77Zm9.919,0c2.593-.07,7.347.138,7.367,0v14.77h-7.367v-14.77Zm130.351,0c2.727-.093,7.324.235,7.367,0v14.77h-7.367v-14.77Zm9.918,0h7.368v14.77H321.41v-14.77Zm18.136,0h7.367v14.77h-7.367v-14.77Zm9.918,0c2.743-.05,6.045-0.24,7.651.284-1.232,3.7-.308,10.175-0.284,14.486h-7.367v-14.77Z"/>
</svg>
